<?xml version="1.0" encoding="UTF-8"?>
<!DOCTYPE svg PUBLIC "-//W3C//DTD SVG 1.1//EN" "http://www.w3.org/Graphics/SVG/1.1/DTD/svg11.dtd">
<svg xmlns="http://www.w3.org/2000/svg" version="1.1" width="1459px" height="1459px" style="shape-rendering:geometricPrecision; text-rendering:geometricPrecision; image-rendering:optimizeQuality; fill-rule:evenodd; clip-rule:evenodd" xmlns:xlink="http://www.w3.org/1999/xlink">
<g><path style="opacity:1" fill="#fefefe" d="M -0.5,-0.5 C 485.833,-0.5 972.167,-0.5 1458.5,-0.5C 1458.5,485.833 1458.5,972.167 1458.5,1458.5C 972.167,1458.5 485.833,1458.5 -0.5,1458.5C -0.5,972.167 -0.5,485.833 -0.5,-0.5 Z"/></g>
<g><path style="opacity:1" fill="#eefcd5" d="M 773.5,209.5 C 779.535,209.537 785.535,210.037 791.5,211C 792.056,211.383 792.389,211.883 792.5,212.5C 791.167,212.5 789.833,212.5 788.5,212.5C 783.486,211.581 778.486,210.581 773.5,209.5 Z"/></g>
<g><path style="opacity:1" fill="#9ac360" d="M 743.5,208.5 C 745.304,207.838 747.304,207.505 749.5,207.5C 757.507,208.167 765.507,208.834 773.5,209.5C 778.486,210.581 783.486,211.581 788.5,212.5C 773.507,211.167 758.507,209.834 743.5,208.5 Z"/></g>
<g><path style="opacity:1" fill="#84c130" d="M 743.5,208.5 C 758.507,209.834 773.507,211.167 788.5,212.5C 789.833,212.5 791.167,212.5 792.5,212.5C 796.295,213.617 800.295,214.283 804.5,214.5C 809.348,216.075 814.348,217.408 819.5,218.5C 821.475,220.09 823.808,221.257 826.5,222C 828.134,222.494 829.801,222.66 831.5,222.5C 831.351,223.552 831.517,224.552 832,225.5C 835.762,223.98 839.262,224.48 842.5,227C 846.17,227.548 849.837,228.048 853.5,228.5C 858.965,229.766 864.299,231.433 869.5,233.5C 871.315,234.63 873.315,235.296 875.5,235.5C 883.288,239.544 891.288,243.211 899.5,246.5C 942.863,267.528 980.863,295.861 1013.5,331.5C 1016.44,336.105 1020.1,340.105 1024.5,343.5C 1044.04,364.895 1060.37,388.562 1073.5,414.5C 1073.34,416.527 1073.5,418.527 1074,420.5C 1076.51,424.186 1079.01,427.852 1081.5,431.5C 1083.45,433.353 1084.95,435.686 1086,438.5C 1088.45,443.652 1090.29,448.986 1091.5,454.5C 1091.95,458.163 1092.45,461.83 1093,465.5C 1095.67,469.348 1096.17,473.515 1094.5,478C 1095.1,479.563 1095.94,479.396 1097,477.5C 1097.67,478.167 1098.33,478.833 1099,479.5C 1099.33,483.806 1100.5,487.806 1102.5,491.5C 1100.76,494.415 1101.42,495.749 1104.5,495.5C 1104.73,498.249 1104.39,500.916 1103.5,503.5C 1104.26,503.911 1105.26,504.077 1106.5,504C 1107.08,505.302 1107.75,506.469 1108.5,507.5C 1109.43,508.568 1109.77,509.901 1109.5,511.5C 1109.34,514.187 1109.5,516.854 1110,519.5C 1110.2,521.32 1111.03,522.653 1112.5,523.5C 1112.5,523.833 1112.5,524.167 1112.5,524.5C 1113.91,543.192 1115.75,561.858 1118,580.5C 1118.5,592.829 1118.67,605.162 1118.5,617.5C 1116.64,629.825 1115.31,642.491 1114.5,655.5C 1113.15,667.231 1111.32,678.897 1109,690.5C 1105.98,699.38 1103.48,708.38 1101.5,717.5C 1099.53,720.084 1098.53,723.084 1098.5,726.5C 1093.9,737.367 1089.57,748.367 1085.5,759.5C 1080.94,767.61 1076.61,775.944 1072.5,784.5C 1069.74,788.596 1067.41,792.93 1065.5,797.5C 1063.17,800.833 1060.83,804.167 1058.5,807.5C 1055.41,810.258 1052.41,813.258 1049.5,816.5C 1048.53,818.396 1048.2,820.396 1048.5,822.5C 1047.4,823.605 1046.73,824.938 1046.5,826.5C 1044.17,829.167 1041.83,831.833 1039.5,834.5C 1038.5,834.586 1037.67,834.252 1037,833.5C 1035.17,835.48 1034.34,837.813 1034.5,840.5C 1033.18,840.67 1032.01,840.337 1031,839.5C 1030.67,841.167 1030.33,842.833 1030,844.5C 1029.67,844.167 1029.33,843.833 1029,843.5C 1028.72,845.886 1027.72,846.552 1026,845.5C 1025.51,847.134 1025.34,848.801 1025.5,850.5C 1024.18,850.67 1023.01,850.337 1022,849.5C 1020.51,850.253 1020.35,851.086 1021.5,852C 1020.38,853.044 1019.04,853.71 1017.5,854C 1018.65,856.085 1017.98,857.585 1015.5,858.5C 1014.57,859.689 1014.24,861.022 1014.5,862.5C 1012.61,862.703 1011.11,862.037 1010,860.5C 1009.35,862.235 1009.52,863.902 1010.5,865.5C 1009.68,866.386 1008.68,866.719 1007.5,866.5C 1007.5,867.833 1007.5,869.167 1007.5,870.5C 1004.5,870.833 1002.83,872.5 1002.5,875.5C 1001.17,875.5 999.833,875.5 998.5,875.5C 998.5,876.5 998.5,877.5 998.5,878.5C 997.5,878.5 996.5,878.5 995.5,878.5C 995.5,880.167 995.5,881.833 995.5,883.5C 973.926,903.606 950.593,921.273 925.5,936.5C 922.008,937.41 919.008,939.076 916.5,941.5C 909.088,945.181 901.754,948.848 894.5,952.5C 886.591,955.463 878.925,958.796 871.5,962.5C 864.861,964.266 858.527,966.599 852.5,969.5C 848.231,970.699 843.897,971.699 839.5,972.5C 828.669,975.209 817.669,977.375 806.5,979C 803.697,979.615 801.364,980.782 799.5,982.5C 791.347,983.637 783.347,984.97 775.5,986.5C 767.517,987.166 759.517,987.499 751.5,987.5C 729.158,987.606 706.825,987.273 684.5,986.5C 682.901,986.768 681.568,986.434 680.5,985.5C 667.77,982.994 654.937,980.66 642,978.5C 636.949,976.556 631.783,975.056 626.5,974C 624.911,972.255 622.911,971.088 620.5,970.5C 621.5,969.833 622.5,969.167 623.5,968.5C 622.667,968.167 621.833,967.833 621,967.5C 616.823,970.505 612.323,971.171 607.5,969.5C 598.876,965.251 589.876,961.751 580.5,959C 578.804,956.018 576.137,954.684 572.5,955C 571.167,954.333 571.167,953.667 572.5,953C 570.19,952.503 567.857,952.337 565.5,952.5C 565.5,951.5 565.5,950.5 565.5,949.5C 561.374,949.428 557.374,948.761 553.5,947.5C 526.547,934.357 501.547,918.19 478.5,899C 470.629,891.626 462.629,884.459 454.5,877.5C 453.167,875.833 451.833,874.167 450.5,872.5C 449.925,869.384 449.591,866.217 449.5,863C 451.51,841.99 452.843,820.823 453.5,799.5C 454.322,797.611 455.155,795.611 456,793.5C 456.977,781.993 458.477,770.66 460.5,759.5C 461.253,754.663 462.586,749.996 464.5,745.5C 466.968,740.812 469.635,736.145 472.5,731.5C 473.156,729.547 473.489,727.547 473.5,725.5C 473.5,724.833 473.833,724.5 474.5,724.5C 475.496,724.586 476.329,724.252 477,723.5C 478.792,720.253 480.292,716.919 481.5,713.5C 484.557,711.125 487.89,709.125 491.5,707.5C 492.736,708.246 494.07,708.579 495.5,708.5C 494.685,704.167 496.352,701.834 500.5,701.5C 500.5,700.5 500.5,699.5 500.5,698.5C 502.696,698.59 504.863,698.923 507,699.5C 509.582,697.258 512.582,695.925 516,695.5C 521.003,695.561 525.669,696.561 530,698.5C 530.671,697.748 531.504,697.414 532.5,697.5C 533.167,697.5 533.833,697.5 534.5,697.5C 547.013,704.595 558.679,712.928 569.5,722.5C 572.474,725.138 575.474,727.805 578.5,730.5C 599.612,751.398 624.279,766.731 652.5,776.5C 662.484,780.645 672.817,783.978 683.5,786.5C 686.627,787.581 689.96,788.247 693.5,788.5C 700.569,790.627 707.902,791.96 715.5,792.5C 727.509,795.062 739.509,795.062 751.5,792.5C 753.435,791.85 755.435,791.517 757.5,791.5C 768.259,791.195 778.926,790.029 789.5,788C 792.805,785.783 796.138,783.95 799.5,782.5C 805.676,779.881 812.01,777.381 818.5,775C 820.898,773.476 823.231,771.976 825.5,770.5C 829.474,768.883 833.474,767.217 837.5,765.5C 842.413,763.774 847.413,762.441 852.5,761.5C 852.343,760.127 852.51,758.793 853,757.5C 855.929,756.812 858.763,755.812 861.5,754.5C 861.291,753.914 860.957,753.414 860.5,753C 862.307,751.398 864.307,750.064 866.5,749C 867.305,747.887 867.972,746.721 868.5,745.5C 872.486,744.357 876.153,742.524 879.5,740C 880.748,735.419 883.748,733.086 888.5,733C 889.219,730.444 890.886,729.277 893.5,729.5C 895.154,725.507 896.82,721.507 898.5,717.5C 900.833,714.5 903.5,711.833 906.5,709.5C 908.017,709.489 909.184,708.823 910,707.5C 913.62,702.211 917.62,697.211 922,692.5C 924.991,687.352 928.158,682.352 931.5,677.5C 934.092,671.976 937.425,666.976 941.5,662.5C 944.386,659.985 947.22,659.985 950,662.5C 949.819,667.902 948.986,673.235 947.5,678.5C 946.241,685.003 943.907,691.003 940.5,696.5C 937.677,700.137 935.343,704.137 933.5,708.5C 932.139,712.181 930.806,715.847 929.5,719.5C 924.672,729.159 919.339,738.492 913.5,747.5C 911.548,750.118 909.215,752.452 906.5,754.5C 902.053,761.089 897.387,767.422 892.5,773.5C 886.756,779.573 881.089,785.573 875.5,791.5C 866.161,798.84 856.828,806.174 847.5,813.5C 839.829,817.333 832.496,821.666 825.5,826.5C 819.141,829.013 813.141,832.013 807.5,835.5C 806.833,835.5 806.167,835.5 805.5,835.5C 804.391,835.557 803.391,835.89 802.5,836.5C 797.234,837.387 792.068,838.721 787,840.5C 783.988,840.274 781.155,839.441 778.5,838C 774.663,837.239 770.996,837.739 767.5,839.5C 768.167,839.833 768.833,840.167 769.5,840.5C 773.773,838.779 778.106,839.279 782.5,842C 770.406,845.737 758.072,848.071 745.5,849C 744.584,849.278 743.918,849.778 743.5,850.5C 718.804,853.091 694.47,850.758 670.5,843.5C 669.194,842.533 668.527,841.199 668.5,839.5C 663.514,837.213 658.181,836.047 652.5,836C 651.167,835.333 649.833,834.667 648.5,834C 649.938,833.781 651.271,833.281 652.5,832.5C 652,832.167 651.5,831.833 651,831.5C 647.185,832.561 643.351,832.561 639.5,831.5C 639.15,827.159 636.817,825.492 632.5,826.5C 632.703,824.61 632.037,823.11 630.5,822C 625.876,821.666 621.876,819.999 618.5,817C 617.207,816.51 615.873,816.343 614.5,816.5C 607.974,813.31 602.308,808.976 597.5,803.5C 596.415,801.413 594.749,800.08 592.5,799.5C 586.571,795.076 581.071,790.076 576,784.5C 564.52,772.024 554.186,758.691 545,744.5C 541.964,741.296 538.797,738.296 535.5,735.5C 529.171,728.499 521.504,726.166 512.5,728.5C 507.959,730.202 504.459,733.202 502,737.5C 498.757,742.846 496.59,748.512 495.5,754.5C 493.742,757.854 492.742,761.521 492.5,765.5C 492.5,766.167 492.5,766.833 492.5,767.5C 490.876,774.689 489.542,782.022 488.5,789.5C 487.732,790.263 487.232,791.263 487,792.5C 486.171,812.338 486.338,832.004 487.5,851.5C 487.12,853.698 487.787,855.365 489.5,856.5C 492.936,860.057 496.603,863.391 500.5,866.5C 504.258,870.592 508.591,873.926 513.5,876.5C 521.913,883.906 530.913,890.573 540.5,896.5C 541.825,898.813 543.825,900.479 546.5,901.5C 547.386,902.325 547.719,903.325 547.5,904.5C 552.361,904.762 556.694,906.429 560.5,909.5C 561.386,910.325 561.719,911.325 561.5,912.5C 565.43,913.878 570.097,915.211 575.5,916.5C 581.96,919.612 588.627,922.279 595.5,924.5C 609.541,930.839 624.208,935.505 639.5,938.5C 649.944,942.111 660.611,944.778 671.5,946.5C 672.871,947.787 674.705,948.453 677,948.5C 699.915,952.227 723.082,953.394 746.5,952C 748.382,951.802 750.048,951.302 751.5,950.5C 759.507,950.666 767.507,950.5 775.5,950C 780.134,949.093 784.467,947.593 788.5,945.5C 788.833,945.5 789.167,945.5 789.5,945.5C 795.573,945.492 801.573,944.825 807.5,943.5C 807.863,942.817 808.196,942.15 808.5,941.5C 812.702,940.033 817.035,939.033 821.5,938.5C 827.396,937.099 833.396,936.266 839.5,936C 844.697,932.902 850.03,930.069 855.5,927.5C 865.466,922.851 875.466,918.185 885.5,913.5C 891.5,910.5 897.5,907.5 903.5,904.5C 909.077,902.431 914.744,900.597 920.5,899C 919.098,897.658 919.431,896.824 921.5,896.5C 922.442,896.608 923.275,896.941 924,897.5C 924.512,893.641 926.678,891.141 930.5,890C 931.883,888.729 932.883,887.229 933.5,885.5C 935.131,883.357 937.131,881.69 939.5,880.5C 944.152,877.179 948.485,873.513 952.5,869.5C 955.5,867.5 958.5,865.5 961.5,863.5C 965.57,860.94 969.236,857.773 972.5,854C 978.743,850.921 983.076,846.088 985.5,839.5C 992.862,831.141 1000.2,822.808 1007.5,814.5C 1011.63,812.776 1014.29,809.776 1015.5,805.5C 1016.74,804.754 1018.07,804.421 1019.5,804.5C 1019.23,802.571 1019.73,800.905 1021,799.5C 1021.45,801.929 1022.28,802.096 1023.5,800C 1022.58,797.959 1022.24,795.792 1022.5,793.5C 1029.5,781.492 1036.5,769.492 1043.5,757.5C 1044.15,757.196 1044.82,756.863 1045.5,756.5C 1046.28,754.219 1047.28,752.052 1048.5,750C 1050.13,749.46 1051.47,749.96 1052.5,751.5C 1054.8,750.731 1054.97,749.731 1053,748.5C 1051.9,742.725 1052.9,737.392 1056,732.5C 1057.35,732.554 1058.52,732.054 1059.5,731C 1059.04,729.699 1058.71,728.366 1058.5,727C 1059.51,723.318 1061.01,719.818 1063,716.5C 1064.49,717.741 1065.32,717.241 1065.5,715C 1064.75,712.846 1064.58,710.68 1065,708.5C 1065.33,708.833 1065.67,709.167 1066,709.5C 1066.5,705.49 1067,701.49 1067.5,697.5C 1067.5,696.833 1067.5,696.167 1067.5,695.5C 1068.15,695.196 1068.82,694.863 1069.5,694.5C 1071.41,688.184 1073.25,681.851 1075,675.5C 1075.5,672.183 1075.67,668.85 1075.5,665.5C 1075.5,663.5 1075.5,661.5 1075.5,659.5C 1077.69,653.493 1078.69,647.16 1078.5,640.5C 1079.4,632.197 1080.07,623.864 1080.5,615.5C 1082.2,588.887 1081.37,562.22 1078,535.5C 1076.7,529.805 1074.87,524.471 1072.5,519.5C 1071.39,514.985 1070.06,510.652 1068.5,506.5C 1066.97,498.481 1064.64,490.815 1061.5,483.5C 1058.61,473.048 1054.61,463.048 1049.5,453.5C 1025.29,399.441 989.627,354.274 942.5,318C 934.766,312.478 927.1,306.978 919.5,301.5C 918.021,298.695 915.688,297.028 912.5,296.5C 912.5,295.167 912.5,293.833 912.5,292.5C 908.122,291.692 903.789,290.692 899.5,289.5C 893.213,287.023 887.213,284.023 881.5,280.5C 875.817,276.159 869.483,273.159 862.5,271.5C 856.342,270.094 850.342,268.094 844.5,265.5C 839.218,261.739 833.218,259.739 826.5,259.5C 822.603,258.945 818.937,257.945 815.5,256.5C 814.019,254.753 812.019,253.586 809.5,253C 781.619,247.477 753.285,244.31 724.5,243.5C 728.556,234.845 733.39,226.845 739,219.5C 739.49,218.207 739.657,216.873 739.5,215.5C 740.58,213.004 741.914,210.67 743.5,208.5 Z"/></g>
<g><path style="opacity:1" fill="#0c5582" d="M 469.5,679.5 C 468.662,679.158 468.328,678.492 468.5,677.5C 482.877,622.284 518.544,598.451 575.5,606C 596.861,611.933 618.194,611.933 639.5,606C 664.212,594.274 676.879,574.607 677.5,547C 678.096,534.309 675.263,522.476 669,511.5C 654.831,493.662 641.831,474.995 630,455.5C 616.601,426.945 611.935,396.945 616,365.5C 620.601,328.098 629.434,291.764 642.5,256.5C 527.119,288.716 446.286,360.049 400,470.5C 361.359,578.097 370.193,681.597 426.5,781C 422.613,799.631 420.447,818.464 420,837.5C 358.617,756.691 331.617,665.358 339,563.5C 353.521,437.553 413.021,339.386 517.5,269C 571.598,234.856 630.598,214.856 694.5,209C 699.202,208.172 703.869,208.338 708.5,209.5C 673.41,265.104 653.076,325.77 647.5,391.5C 648.789,420.06 657.956,445.726 675,468.5C 694.518,489.87 706.851,514.87 712,543.5C 714.654,577.339 703.154,605.172 677.5,627C 659.642,637.465 640.308,642.298 619.5,641.5C 610.477,641.399 601.477,640.899 592.5,640C 579.832,637.999 567.165,635.999 554.5,634C 514.846,628.817 486.513,643.984 469.5,679.5 Z"/></g>
<g><path style="opacity:1" fill="#eefad9" d="M 804.5,214.5 C 808.182,214.335 811.848,214.501 815.5,215C 817.962,216.216 820.629,216.882 823.5,217C 824.571,217.852 825.571,218.685 826.5,219.5C 824.139,219.326 821.806,218.993 819.5,218.5C 814.348,217.408 809.348,216.075 804.5,214.5 Z"/></g>
<g><path style="opacity:1" fill="#f5fce3" d="M 737.5,216.5 C 734.922,221.747 731.922,226.747 728.5,231.5C 729.901,227.923 731.068,224.256 732,220.5C 733.73,218.924 735.563,217.59 737.5,216.5 Z"/></g>
<g><path style="opacity:1" fill="#8fbf47" d="M 819.5,218.5 C 821.806,218.993 824.139,219.326 826.5,219.5C 831.739,221.214 837.072,222.548 842.5,223.5C 846.083,225.36 849.749,227.027 853.5,228.5C 849.837,228.048 846.17,227.548 842.5,227C 839.262,224.48 835.762,223.98 832,225.5C 831.517,224.552 831.351,223.552 831.5,222.5C 829.801,222.66 828.134,222.494 826.5,222C 823.808,221.257 821.475,220.09 819.5,218.5 Z"/></g>
<g><path style="opacity:1" fill="#f2fde3" d="M 842.5,223.5 C 851.528,224.779 860.195,227.445 868.5,231.5C 868.863,232.183 869.196,232.85 869.5,233.5C 864.299,231.433 858.965,229.766 853.5,228.5C 849.749,227.027 846.083,225.36 842.5,223.5 Z"/></g>
<g><path style="opacity:1" fill="#edfad9" d="M 875.5,235.5 C 883.377,237.772 891.044,240.606 898.5,244C 899.252,244.671 899.586,245.504 899.5,246.5C 891.288,243.211 883.288,239.544 875.5,235.5 Z"/></g>
<g><path style="opacity:1" fill="#b8d690" d="M 722.5,244.5 C 732.167,245.167 741.833,245.833 751.5,246.5C 741.5,246.5 731.5,246.5 721.5,246.5C 721.328,245.508 721.662,244.842 722.5,244.5 Z"/></g>
<g><path style="opacity:1" fill="#92c050" d="M 739.5,215.5 C 739.657,216.873 739.49,218.207 739,219.5C 733.39,226.845 728.556,234.845 724.5,243.5C 753.285,244.31 781.619,247.477 809.5,253C 812.019,253.586 814.019,254.753 815.5,256.5C 812.873,255.908 810.206,255.575 807.5,255.5C 796.569,251.943 785.235,249.943 773.5,249.5C 773.167,249.5 772.833,249.5 772.5,249.5C 765.551,248.104 758.551,247.104 751.5,246.5C 741.833,245.833 732.167,245.167 722.5,244.5C 724.243,240.016 726.243,235.683 728.5,231.5C 731.922,226.747 734.922,221.747 737.5,216.5C 738.167,216.167 738.833,215.833 739.5,215.5 Z"/></g>
<g><path style="opacity:1" fill="#f8fee4" d="M 721.5,246.5 C 731.5,246.5 741.5,246.5 751.5,246.5C 758.551,247.104 765.551,248.104 772.5,249.5C 755.344,248.535 738.344,247.535 721.5,246.5 Z"/></g>
<g><path style="opacity:1" fill="#f2fbe3" d="M 773.5,249.5 C 785.235,249.943 796.569,251.943 807.5,255.5C 795.868,254.465 784.535,252.465 773.5,249.5 Z"/></g>
<g><path style="opacity:1" fill="#9ec567" d="M 826.5,259.5 C 833.218,259.739 839.218,261.739 844.5,265.5C 838.41,263.438 832.41,261.438 826.5,259.5 Z"/></g>
<g><path style="opacity:1" fill="#9ec662" d="M 862.5,271.5 C 869.483,273.159 875.817,276.159 881.5,280.5C 874.703,278.266 868.37,275.266 862.5,271.5 Z"/></g>
<g><path style="opacity:1" fill="#92c14c" d="M 899.5,289.5 C 903.789,290.692 908.122,291.692 912.5,292.5C 912.5,293.833 912.5,295.167 912.5,296.5C 915.688,297.028 918.021,298.695 919.5,301.5C 912.494,298 905.827,294 899.5,289.5 Z"/></g>
<g><path style="opacity:1" fill="#9cc463" d="M 1013.5,331.5 C 1017.9,334.895 1021.56,338.895 1024.5,343.5C 1020.1,340.105 1016.44,336.105 1013.5,331.5 Z"/></g>
<g><path style="opacity:1" fill="#0c5582" d="M 665.5,401.5 C 662.872,384.18 662.872,366.847 665.5,349.5C 666.638,340.041 668.471,330.707 671,321.5C 670.395,345.337 673.395,368.671 680,391.5C 683.176,401.039 688.676,408.872 696.5,415C 702.114,418.209 708.114,419.209 714.5,418C 718.5,416.667 722.5,415.333 726.5,414C 744.635,403.432 763.635,394.766 783.5,388C 833.046,375.423 873.879,388.923 906,428.5C 931.301,463.373 946.635,502.373 952,545.5C 957.498,576.656 949.831,603.99 929,627.5C 921.667,634.833 914.333,642.167 907,649.5C 920.586,584.607 911.586,522.94 880,464.5C 866.585,440.087 846.418,424.253 819.5,417C 804.711,414.489 790.378,416.155 776.5,422C 759.707,431.062 742.374,439.062 724.5,446C 698.779,453.056 680.945,444.223 671,419.5C 668.545,413.678 666.712,407.678 665.5,401.5 Z"/></g>
<g><path style="opacity:1" fill="#deeef4" d="M 665.5,349.5 C 662.872,366.847 662.872,384.18 665.5,401.5C 664.542,401.047 663.708,400.381 663,399.5C 662.333,383.833 662.333,368.167 663,352.5C 663.852,351.429 664.685,350.429 665.5,349.5 Z"/></g>
<g><path style="opacity:1" fill="#94c151" d="M 1073.5,414.5 C 1076.96,419.762 1079.63,425.429 1081.5,431.5C 1079.01,427.852 1076.51,424.186 1074,420.5C 1073.5,418.527 1073.34,416.527 1073.5,414.5 Z"/></g>
<g><path style="opacity:1" fill="#f2fae2" d="M 1049.5,453.5 C 1054.61,463.048 1058.61,473.048 1061.5,483.5C 1059.51,479.653 1057.51,475.653 1055.5,471.5C 1054.46,469.415 1052.96,467.748 1051,466.5C 1050.46,464.865 1050.96,463.532 1052.5,462.5C 1050.63,459.766 1049.63,456.766 1049.5,453.5 Z"/></g>
<g><path style="opacity:1" fill="#8dc044" d="M 1091.5,454.5 C 1095.04,460.914 1098.04,467.58 1100.5,474.5C 1103.17,485.501 1105.83,496.501 1108.5,507.5C 1107.75,506.469 1107.08,505.302 1106.5,504C 1105.26,504.077 1104.26,503.911 1103.5,503.5C 1104.39,500.916 1104.73,498.249 1104.5,495.5C 1101.42,495.749 1100.76,494.415 1102.5,491.5C 1100.5,487.806 1099.33,483.806 1099,479.5C 1098.33,478.833 1097.67,478.167 1097,477.5C 1095.94,479.396 1095.1,479.563 1094.5,478C 1096.17,473.515 1095.67,469.348 1093,465.5C 1092.45,461.83 1091.95,458.163 1091.5,454.5 Z"/></g>
<g><path style="opacity:1" fill="#edfad9" d="M 1100.5,474.5 C 1103.91,483.911 1107.08,493.578 1110,503.5C 1110.5,506.146 1110.66,508.813 1110.5,511.5C 1110.17,511.5 1109.83,511.5 1109.5,511.5C 1109.77,509.901 1109.43,508.568 1108.5,507.5C 1105.83,496.501 1103.17,485.501 1100.5,474.5 Z"/></g>
<g><path style="opacity:1" fill="#f3fce4" d="M 1068.5,506.5 C 1070.06,510.652 1071.39,514.985 1072.5,519.5C 1073.15,521.435 1073.48,523.435 1073.5,525.5C 1071.35,521.802 1069.35,517.802 1067.5,513.5C 1068.37,511.253 1068.71,508.92 1068.5,506.5 Z"/></g>
<g><path style="opacity:1" fill="#a0c765" d="M 1109.5,511.5 C 1109.83,511.5 1110.17,511.5 1110.5,511.5C 1111.3,515.476 1111.96,519.476 1112.5,523.5C 1111.03,522.653 1110.2,521.32 1110,519.5C 1109.5,516.854 1109.34,514.187 1109.5,511.5 Z"/></g>
<g><path style="opacity:1" fill="#f3fde3" d="M 1073.5,527.5 C 1075.79,537.932 1077.46,548.598 1078.5,559.5C 1077.78,559.082 1077.28,558.416 1077,557.5C 1075.34,547.55 1074.17,537.55 1073.5,527.5 Z"/></g>
<g><path style="opacity:1" fill="#9bc55f" d="M 1072.5,519.5 C 1074.87,524.471 1076.7,529.805 1078,535.5C 1081.37,562.22 1082.2,588.887 1080.5,615.5C 1080.67,600.163 1080.5,584.83 1080,569.5C 1079.82,565.975 1079.32,562.641 1078.5,559.5C 1077.46,548.598 1075.79,537.932 1073.5,527.5C 1073.5,526.833 1073.5,526.167 1073.5,525.5C 1073.48,523.435 1073.15,521.435 1072.5,519.5 Z"/></g>
<g><path style="opacity:1" fill="#9dc761" d="M 1112.5,524.5 C 1113.37,527.003 1114.04,529.67 1114.5,532.5C 1119.34,563.154 1120.67,593.821 1118.5,624.5C 1118.5,622.167 1118.5,619.833 1118.5,617.5C 1118.67,605.162 1118.5,592.829 1118,580.5C 1115.75,561.858 1113.91,543.192 1112.5,524.5 Z"/></g>
<g><path style="opacity:1" fill="#f7fee4" d="M 1078.5,559.5 C 1079.32,562.641 1079.82,565.975 1080,569.5C 1080.5,584.83 1080.67,600.163 1080.5,615.5C 1080.07,623.864 1079.4,632.197 1078.5,640.5C 1077.83,643.167 1077.17,645.833 1076.5,648.5C 1079.27,618.998 1079.94,589.331 1078.5,559.5 Z"/></g>
<g><path style="opacity:1" fill="#91c051" d="M 1118.5,617.5 C 1118.5,619.833 1118.5,622.167 1118.5,624.5C 1117.88,631.482 1117.38,638.482 1117,645.5C 1116.85,649.133 1116.02,652.466 1114.5,655.5C 1115.31,642.491 1116.64,629.825 1118.5,617.5 Z"/></g>
<g><path style="opacity:1" fill="#b0c986" d="M 961.5,629.5 C 961.784,627.585 961.451,625.919 960.5,624.5C 961.032,622.37 961.865,620.37 963,618.5C 963.35,622.381 962.85,626.048 961.5,629.5 Z"/></g>
<g><path style="opacity:1" fill="#8bc040" d="M 960.5,624.5 C 961.451,625.919 961.784,627.585 961.5,629.5C 958.341,646.319 953.674,662.653 947.5,678.5C 948.986,673.235 949.819,667.902 950,662.5C 947.22,659.985 944.386,659.985 941.5,662.5C 948.38,650.073 954.713,637.407 960.5,624.5 Z"/></g>
<g><path style="opacity:1" fill="#b2d47e" d="M 1078.5,640.5 C 1078.69,647.16 1077.69,653.493 1075.5,659.5C 1076.11,655.865 1076.45,652.198 1076.5,648.5C 1077.17,645.833 1077.83,643.167 1078.5,640.5 Z"/></g>
<g><path style="opacity:1" fill="#f5fce5" d="M 1114.5,532.5 C 1115.12,532.611 1115.62,532.944 1116,533.5C 1120.36,566.352 1121.69,599.352 1120,632.5C 1119.02,641.044 1117.85,649.544 1116.5,658C 1116.65,660.197 1116.98,662.364 1117.5,664.5C 1117.13,665.91 1116.3,666.91 1115,667.5C 1113.65,677.643 1111.49,687.643 1108.5,697.5C 1109.36,700.28 1110.69,702.78 1112.5,705C 1110.8,706.583 1109.46,706.083 1108.5,703.5C 1105.78,708.025 1103.44,712.692 1101.5,717.5C 1103.48,708.38 1105.98,699.38 1109,690.5C 1111.32,678.897 1113.15,667.231 1114.5,655.5C 1116.02,652.466 1116.85,649.133 1117,645.5C 1117.38,638.482 1117.88,631.482 1118.5,624.5C 1120.67,593.821 1119.34,563.154 1114.5,532.5 Z"/></g>
<g><path style="opacity:1" fill="#97c453" d="M 1075.5,665.5 C 1075.67,668.85 1075.5,672.183 1075,675.5C 1073.25,681.851 1071.41,688.184 1069.5,694.5C 1068.82,694.863 1068.15,695.196 1067.5,695.5C 1069.59,685.111 1072.26,675.111 1075.5,665.5 Z"/></g>
<g><path style="opacity:1" fill="#99adb9" d="M 468.5,677.5 C 468.328,678.492 468.662,679.158 469.5,679.5C 468.772,681.512 467.938,683.512 467,685.5C 466.567,682.581 467.067,679.914 468.5,677.5 Z"/></g>
<g><path style="opacity:1" fill="#96c15b" d="M 931.5,677.5 C 928.158,682.352 924.991,687.352 922,692.5C 917.62,697.211 913.62,702.211 910,707.5C 909.184,708.823 908.017,709.489 906.5,709.5C 914.892,698.787 923.225,688.121 931.5,677.5 Z"/></g>
<g><path style="opacity:1" fill="#eaf7d9" d="M 511.5,693.5 C 519.141,692.016 526.808,692.349 534.5,694.5C 534.5,695.5 534.5,696.5 534.5,697.5C 533.833,697.5 533.167,697.5 532.5,697.5C 530.91,695.766 528.91,694.6 526.5,694C 521.511,693.501 516.511,693.334 511.5,693.5 Z"/></g>
<g><path style="opacity:1" fill="#93bf51" d="M 940.5,696.5 C 937.621,704.591 933.954,712.257 929.5,719.5C 930.806,715.847 932.139,712.181 933.5,708.5C 935.343,704.137 937.677,700.137 940.5,696.5 Z"/></g>
<g><path style="opacity:1" fill="#8ac03e" d="M 511.5,693.5 C 516.511,693.334 521.511,693.501 526.5,694C 528.91,694.6 530.91,695.766 532.5,697.5C 531.504,697.414 530.671,697.748 530,698.5C 525.669,696.561 521.003,695.561 516,695.5C 512.582,695.925 509.582,697.258 507,699.5C 504.863,698.923 502.696,698.59 500.5,698.5C 500.5,699.5 500.5,700.5 500.5,701.5C 496.352,701.834 494.685,704.167 495.5,708.5C 494.07,708.579 492.736,708.246 491.5,707.5C 487.89,709.125 484.557,711.125 481.5,713.5C 489.129,703.192 499.129,696.526 511.5,693.5 Z"/></g>
<g><path style="opacity:1" fill="#f3fde4" d="M 1064.5,702.5 C 1062.77,710.538 1060.1,718.205 1056.5,725.5C 1056.19,723.076 1056.53,720.743 1057.5,718.5C 1060.05,713.049 1062.38,707.716 1064.5,702.5 Z"/></g>
<g><path style="opacity:1" fill="#95be57" d="M 481.5,713.5 C 480.292,716.919 478.792,720.253 477,723.5C 476.329,724.252 475.496,724.586 474.5,724.5C 476.446,720.561 478.779,716.894 481.5,713.5 Z"/></g>
<g><path style="opacity:1" fill="#eefbd8" d="M 569.5,722.5 C 573.767,723.768 576.767,726.435 578.5,730.5C 575.474,727.805 572.474,725.138 569.5,722.5 Z"/></g>
<g><path style="opacity:1" fill="#8fc048" d="M 1067.5,697.5 C 1067,701.49 1066.5,705.49 1066,709.5C 1065.67,709.167 1065.33,708.833 1065,708.5C 1064.58,710.68 1064.75,712.846 1065.5,715C 1065.32,717.241 1064.49,717.741 1063,716.5C 1061.01,719.818 1059.51,723.318 1058.5,727C 1058.71,728.366 1059.04,729.699 1059.5,731C 1058.52,732.054 1057.35,732.554 1056,732.5C 1052.9,737.392 1051.9,742.725 1053,748.5C 1054.97,749.731 1054.8,750.731 1052.5,751.5C 1051.47,749.96 1050.13,749.46 1048.5,750C 1047.28,752.052 1046.28,754.219 1045.5,756.5C 1044.82,756.863 1044.15,757.196 1043.5,757.5C 1048.37,747.08 1052.71,736.413 1056.5,725.5C 1060.1,718.205 1062.77,710.538 1064.5,702.5C 1065.31,700.739 1066.31,699.072 1067.5,697.5 Z"/></g>
<g><path style="opacity:1" fill="#f1fddf" d="M 512.5,728.5 C 521.504,726.166 529.171,728.499 535.5,735.5C 530.661,733.825 525.994,731.659 521.5,729C 518.518,728.502 515.518,728.335 512.5,728.5 Z"/></g>
<g><path style="opacity:1" fill="#98c15b" d="M 473.5,725.5 C 473.489,727.547 473.156,729.547 472.5,731.5C 469.635,736.145 466.968,740.812 464.5,745.5C 466.659,738.377 469.659,731.71 473.5,725.5 Z"/></g>
<g><path style="opacity:1" fill="#8ec046" d="M 898.5,717.5 C 896.82,721.507 895.154,725.507 893.5,729.5C 890.886,729.277 889.219,730.444 888.5,733C 883.748,733.086 880.748,735.419 879.5,740C 876.153,742.524 872.486,744.357 868.5,745.5C 878.775,736.562 888.775,727.228 898.5,717.5 Z"/></g>
<g><path style="opacity:1" fill="#f3fce3" d="M 1098.5,726.5 C 1098.04,731.748 1096.71,736.748 1094.5,741.5C 1094.68,742.554 1095.01,743.554 1095.5,744.5C 1095.06,745.506 1094.4,745.506 1093.5,744.5C 1090.79,749.528 1088.12,754.528 1085.5,759.5C 1089.57,748.367 1093.9,737.367 1098.5,726.5 Z"/></g>
<g><path style="opacity:1" fill="#f5fce8" d="M 464.5,745.5 C 462.586,749.996 461.253,754.663 460.5,759.5C 458.727,765.141 457.06,770.808 455.5,776.5C 455.883,770.54 456.883,764.707 458.5,759C 457.748,756.846 457.581,754.68 458,752.5C 458.662,756.353 459.496,756.353 460.5,752.5C 460.148,751.214 459.482,750.381 458.5,750C 459.923,749.955 460.923,748.789 461.5,746.5C 462.325,745.614 463.325,745.281 464.5,745.5 Z"/></g>
<g><path style="opacity:1" fill="#8fc147" d="M 868.5,745.5 C 867.972,746.721 867.305,747.887 866.5,749C 864.307,750.064 862.307,751.398 860.5,753C 860.957,753.414 861.291,753.914 861.5,754.5C 858.763,755.812 855.929,756.812 853,757.5C 852.51,758.793 852.343,760.127 852.5,761.5C 847.413,762.441 842.413,763.774 837.5,765.5C 847.808,758.872 858.141,752.205 868.5,745.5 Z"/></g>
<g><path style="opacity:1" fill="#e9f7cf" d="M 495.5,754.5 C 495.251,757.002 494.917,759.502 494.5,762C 494.392,763.681 493.725,764.848 492.5,765.5C 492.742,761.521 493.742,757.854 495.5,754.5 Z"/></g>
<g><path style="opacity:1" fill="#f3fbe3" d="M 913.5,747.5 C 912.291,750.721 910.624,753.721 908.5,756.5C 908.608,757.442 908.941,758.275 909.5,759C 907.453,760.073 905.453,761.239 903.5,762.5C 902.038,766.593 899.705,770.093 896.5,773C 895.207,773.49 893.873,773.657 892.5,773.5C 897.387,767.422 902.053,761.089 906.5,754.5C 909.215,752.452 911.548,750.118 913.5,747.5 Z"/></g>
<g><path style="opacity:1" fill="#f5fde4" d="M 825.5,770.5 C 823.231,771.976 820.898,773.476 818.5,775C 812.01,777.381 805.676,779.881 799.5,782.5C 797.139,782.674 794.806,783.007 792.5,783.5C 794.367,780.229 797.034,779.229 800.5,780.5C 802.22,779.066 804.22,778.233 806.5,778C 805.833,777.667 805.167,777.333 804.5,777C 811.835,775.609 818.835,773.443 825.5,770.5 Z"/></g>
<g><path style="opacity:1" fill="#edfbd9" d="M 652.5,776.5 C 663.26,778.621 673.593,781.954 683.5,786.5C 672.817,783.978 662.484,780.645 652.5,776.5 Z"/></g>
<g><path style="opacity:1" fill="#f3fbe1" d="M 454.5,782.5 C 453.78,788.138 453.447,793.804 453.5,799.5C 452.833,802.167 452.167,804.833 451.5,807.5C 451.476,801.15 451.809,794.817 452.5,788.5C 452.539,786.048 453.206,784.048 454.5,782.5 Z"/></g>
<g><path style="opacity:1" fill="#96c254" d="M 799.5,782.5 C 796.138,783.95 792.805,785.783 789.5,788C 778.926,790.029 768.259,791.195 757.5,791.5C 762.486,790.419 767.486,789.419 772.5,788.5C 779.62,788.32 786.286,786.653 792.5,783.5C 794.806,783.007 797.139,782.674 799.5,782.5 Z"/></g>
<g><path style="opacity:1" fill="#f3fbdf" d="M 693.5,788.5 C 706.416,789.325 719.749,789.992 733.5,790.5C 746.662,790.602 759.662,789.935 772.5,788.5C 767.486,789.419 762.486,790.419 757.5,791.5C 755.435,791.517 753.435,791.85 751.5,792.5C 739.5,792.5 727.5,792.5 715.5,792.5C 707.902,791.96 700.569,790.627 693.5,788.5 Z"/></g>
<g><path style="opacity:1" fill="#92c04d" d="M 460.5,759.5 C 458.477,770.66 456.977,781.993 456,793.5C 455.155,795.611 454.322,797.611 453.5,799.5C 453.447,793.804 453.78,788.138 454.5,782.5C 455.461,780.735 455.795,778.735 455.5,776.5C 457.06,770.808 458.727,765.141 460.5,759.5 Z"/></g>
<g><path style="opacity:1" fill="#90bc50" d="M 715.5,792.5 C 727.5,792.5 739.5,792.5 751.5,792.5C 739.509,795.062 727.509,795.062 715.5,792.5 Z"/></g>
<g><path style="opacity:1" fill="#ecfad6" d="M 1072.5,784.5 C 1072.66,786.199 1072.49,787.866 1072,789.5C 1069.86,792.302 1067.7,794.968 1065.5,797.5C 1067.41,792.93 1069.74,788.596 1072.5,784.5 Z"/></g>
<g><path style="opacity:1" fill="#f4fce0" d="M 492.5,767.5 C 491.881,775.666 491.215,783.833 490.5,792C 491.983,798.25 491.483,804.417 489,810.5C 488.198,825.878 488.365,841.211 489.5,856.5C 487.787,855.365 487.12,853.698 487.5,851.5C 487.327,830.821 487.66,810.155 488.5,789.5C 489.542,782.022 490.876,774.689 492.5,767.5 Z"/></g>
<g><path style="opacity:1" fill="#a1c56a" d="M 592.5,799.5 C 594.749,800.08 596.415,801.413 597.5,803.5C 595.251,802.92 593.585,801.587 592.5,799.5 Z"/></g>
<g><path style="opacity:1" fill="#f4fde8" d="M 875.5,791.5 C 872.032,795.141 868.698,798.974 865.5,803C 859.81,804.919 855.143,808.252 851.5,813C 850.207,813.49 848.873,813.657 847.5,813.5C 856.828,806.174 866.161,798.84 875.5,791.5 Z"/></g>
<g><path style="opacity:1" fill="#93c34e" d="M 1022.5,793.5 C 1022.24,795.792 1022.58,797.959 1023.5,800C 1022.28,802.096 1021.45,801.929 1021,799.5C 1019.73,800.905 1019.23,802.571 1019.5,804.5C 1018.07,804.421 1016.74,804.754 1015.5,805.5C 1014.29,809.776 1011.63,812.776 1007.5,814.5C 1011.77,806.963 1016.77,799.963 1022.5,793.5 Z"/></g>
<g><path style="opacity:1" fill="#8ebd4a" d="M 1058.5,807.5 C 1055.4,812.709 1052.07,817.709 1048.5,822.5C 1048.2,820.396 1048.53,818.396 1049.5,816.5C 1052.41,813.258 1055.41,810.258 1058.5,807.5 Z"/></g>
<g><path style="opacity:1" fill="#90c147" d="M 614.5,816.5 C 615.873,816.343 617.207,816.51 618.5,817C 621.876,819.999 625.876,821.666 630.5,822C 632.037,823.11 632.703,824.61 632.5,826.5C 636.817,825.492 639.15,827.159 639.5,831.5C 630.339,827.758 622.006,822.758 614.5,816.5 Z"/></g>
<g><path style="opacity:1" fill="#f0fbdc" d="M 825.5,826.5 C 824.534,828.057 823.2,829.39 821.5,830.5C 818.318,830.948 815.651,832.282 813.5,834.5C 811.547,835.156 809.547,835.489 807.5,835.5C 813.141,832.013 819.141,829.013 825.5,826.5 Z"/></g>
<g><path style="opacity:1" fill="#edfad4" d="M 1046.5,826.5 C 1046.66,827.873 1046.49,829.207 1046,830.5C 1043.35,833.316 1040.52,835.982 1037.5,838.5C 1037.73,836.938 1038.4,835.605 1039.5,834.5C 1041.83,831.833 1044.17,829.167 1046.5,826.5 Z"/></g>
<g><path style="opacity:1" fill="#9fca65" d="M 488.5,789.5 C 487.66,810.155 487.327,830.821 487.5,851.5C 486.338,832.004 486.171,812.338 487,792.5C 487.232,791.263 487.732,790.263 488.5,789.5 Z"/></g>
<g><path style="opacity:1" fill="#8cbf43" d="M 802.5,836.5 C 799.5,837.833 796.5,839.167 793.5,840.5C 790.254,841.054 787.254,842.054 784.5,843.5C 773.465,846.239 762.465,848.572 751.5,850.5C 748.833,850.5 746.167,850.5 743.5,850.5C 743.918,849.778 744.584,849.278 745.5,849C 758.072,848.071 770.406,845.737 782.5,842C 778.106,839.279 773.773,838.779 769.5,840.5C 768.833,840.167 768.167,839.833 767.5,839.5C 770.996,837.739 774.663,837.239 778.5,838C 781.155,839.441 783.988,840.274 787,840.5C 792.068,838.721 797.234,837.387 802.5,836.5 Z"/></g>
<g><path style="opacity:1" fill="#e8f9d1" d="M 805.5,835.5 C 802.276,838.772 798.276,840.439 793.5,840.5C 796.5,839.167 799.5,837.833 802.5,836.5C 803.391,835.89 804.391,835.557 805.5,835.5 Z"/></g>
<g><path style="opacity:1" fill="#93c34c" d="M 639.5,831.5 C 643.351,832.561 647.185,832.561 651,831.5C 651.5,831.833 652,832.167 652.5,832.5C 651.271,833.281 649.938,833.781 648.5,834C 649.833,834.667 651.167,835.333 652.5,836C 658.181,836.047 663.514,837.213 668.5,839.5C 668.527,841.199 669.194,842.533 670.5,843.5C 665.463,842.324 660.463,840.991 655.5,839.5C 650.167,836.833 644.833,834.167 639.5,831.5 Z"/></g>
<g><path style="opacity:1" fill="#f0fbde" d="M 655.5,839.5 C 660.463,840.991 665.463,842.324 670.5,843.5C 694.47,850.758 718.804,853.091 743.5,850.5C 746.167,850.5 748.833,850.5 751.5,850.5C 743.026,851.832 734.193,852.498 725,852.5C 716.167,852.333 707.333,852.167 698.5,852C 691.813,850.797 685.146,849.464 678.5,848C 671.987,845.497 665.321,843.497 658.5,842C 657.058,841.623 656.058,840.79 655.5,839.5 Z"/></g>
<g><path style="opacity:1" fill="#fafeed" d="M 450.5,815.5 C 449.901,823.486 449.568,831.486 449.5,839.5C 448.066,845.775 447.4,852.275 447.5,859C 447.501,863.015 447.835,866.849 448.5,870.5C 448.833,871.5 449.5,872.167 450.5,872.5C 451.833,874.167 453.167,875.833 454.5,877.5C 451.606,876.118 449.106,874.118 447,871.5C 446.333,862.833 446.333,854.167 447,845.5C 447.625,835.144 448.791,825.144 450.5,815.5 Z"/></g>
<g><path style="opacity:1" fill="#f3fce3" d="M 784.5,843.5 C 784.445,847.718 782.612,848.718 779,846.5C 773.917,847.811 768.75,848.978 763.5,850C 759.514,850.499 755.514,850.666 751.5,850.5C 762.465,848.572 773.465,846.239 784.5,843.5 Z"/></g>
<g><path style="opacity:1" fill="#92bf51" d="M 453.5,799.5 C 452.843,820.823 451.51,841.99 449.5,863C 449.591,866.217 449.925,869.384 450.5,872.5C 449.5,872.167 448.833,871.5 448.5,870.5C 448.485,860.153 448.818,849.819 449.5,839.5C 449.568,831.486 449.901,823.486 450.5,815.5C 451.473,813.052 451.806,810.385 451.5,807.5C 452.167,804.833 452.833,802.167 453.5,799.5 Z"/></g>
<g><path style="opacity:1" fill="#94c052" d="M 985.5,839.5 C 983.076,846.088 978.743,850.921 972.5,854C 969.236,857.773 965.57,860.94 961.5,863.5C 969.167,855.167 977.167,847.167 985.5,839.5 Z"/></g>
<g><path style="opacity:1" fill="#e7f7c7" d="M 449.5,839.5 C 448.818,849.819 448.485,860.153 448.5,870.5C 447.835,866.849 447.501,863.015 447.5,859C 447.4,852.275 448.066,845.775 449.5,839.5 Z"/></g>
<g><path style="opacity:1" fill="#8bbe40" d="M 1039.5,834.5 C 1038.4,835.605 1037.73,836.938 1037.5,838.5C 1024.23,854.102 1010.23,869.102 995.5,883.5C 995.5,881.833 995.5,880.167 995.5,878.5C 996.5,878.5 997.5,878.5 998.5,878.5C 998.5,877.5 998.5,876.5 998.5,875.5C 999.833,875.5 1001.17,875.5 1002.5,875.5C 1002.83,872.5 1004.5,870.833 1007.5,870.5C 1007.5,869.167 1007.5,867.833 1007.5,866.5C 1008.68,866.719 1009.68,866.386 1010.5,865.5C 1009.52,863.902 1009.35,862.235 1010,860.5C 1011.11,862.037 1012.61,862.703 1014.5,862.5C 1014.24,861.022 1014.57,859.689 1015.5,858.5C 1017.98,857.585 1018.65,856.085 1017.5,854C 1019.04,853.71 1020.38,853.044 1021.5,852C 1020.35,851.086 1020.51,850.253 1022,849.5C 1023.01,850.337 1024.18,850.67 1025.5,850.5C 1025.34,848.801 1025.51,847.134 1026,845.5C 1027.72,846.552 1028.72,845.886 1029,843.5C 1029.33,843.833 1029.67,844.167 1030,844.5C 1030.33,842.833 1030.67,841.167 1031,839.5C 1032.01,840.337 1033.18,840.67 1034.5,840.5C 1034.34,837.813 1035.17,835.48 1037,833.5C 1037.67,834.252 1038.5,834.586 1039.5,834.5 Z"/></g>
<g><path style="opacity:1" fill="#f2fae2" d="M 513.5,876.5 C 508.591,873.926 504.258,870.592 500.5,866.5C 502.949,865.943 505.282,865.943 507.5,866.5C 506.975,867.192 506.308,867.692 505.5,868C 508.033,871.031 510.7,873.864 513.5,876.5 Z"/></g>
<g><path style="opacity:1" fill="#f4fde3" d="M 952.5,869.5 C 948.485,873.513 944.152,877.179 939.5,880.5C 941.893,874.768 946.227,871.102 952.5,869.5 Z"/></g>
<g><path style="opacity:1" fill="#8ec049" d="M 933.5,885.5 C 932.883,887.229 931.883,888.729 930.5,890C 926.678,891.141 924.512,893.641 924,897.5C 923.275,896.941 922.442,896.608 921.5,896.5C 919.431,896.824 919.098,897.658 920.5,899C 914.744,900.597 909.077,902.431 903.5,904.5C 904.167,903.833 904.833,903.167 905.5,902.5C 914.861,896.822 924.194,891.155 933.5,885.5 Z"/></g>
<g><path style="opacity:1" fill="#90be4b" d="M 540.5,896.5 C 551.931,903.264 563.598,909.597 575.5,915.5C 575.5,915.833 575.5,916.167 575.5,916.5C 570.097,915.211 565.43,913.878 561.5,912.5C 561.719,911.325 561.386,910.325 560.5,909.5C 556.694,906.429 552.361,904.762 547.5,904.5C 547.719,903.325 547.386,902.325 546.5,901.5C 543.825,900.479 541.825,898.813 540.5,896.5 Z"/></g>
<g><path style="opacity:1" fill="#f3fee2" d="M 905.5,902.5 C 904.833,903.167 904.167,903.833 903.5,904.5C 897.5,907.5 891.5,910.5 885.5,913.5C 890.033,909.883 895.033,906.716 900.5,904C 899.549,903.282 899.383,902.449 900,901.5C 901.699,902.406 903.533,902.739 905.5,902.5 Z"/></g>
<g><path style="opacity:1" fill="#eef9da" d="M 575.5,916.5 C 575.5,916.167 575.5,915.833 575.5,915.5C 582.142,916.988 588.476,919.321 594.5,922.5C 595.298,922.957 595.631,923.624 595.5,924.5C 588.627,922.279 581.96,919.612 575.5,916.5 Z"/></g>
<g><path style="opacity:1" fill="#98c355" d="M 855.5,927.5 C 850.03,930.069 844.697,932.902 839.5,936C 833.396,936.266 827.396,937.099 821.5,938.5C 832.631,934.457 843.965,930.79 855.5,927.5 Z"/></g>
<g><path style="opacity:1" fill="#ebf9d6" d="M 925.5,936.5 C 923.349,939.415 920.349,941.082 916.5,941.5C 919.008,939.076 922.008,937.41 925.5,936.5 Z"/></g>
<g><path style="opacity:1" fill="#ecf9d5" d="M 639.5,938.5 C 648.148,939.994 656.815,941.494 665.5,943C 669.266,944.029 672.933,945.196 676.5,946.5C 674.833,946.5 673.167,946.5 671.5,946.5C 660.611,944.778 649.944,942.111 639.5,938.5 Z"/></g>
<g><path style="opacity:1" fill="#97c357" d="M 808.5,941.5 C 808.196,942.15 807.863,942.817 807.5,943.5C 801.573,944.825 795.573,945.492 789.5,945.5C 795.682,943.99 802.015,942.657 808.5,941.5 Z"/></g>
<g><path style="opacity:1" fill="#f2fcdf" d="M 676.5,946.5 C 703.804,948.069 731.137,948.736 758.5,948.5C 756.167,949.167 753.833,949.833 751.5,950.5C 735.83,950.667 720.163,950.5 704.5,950C 694.957,949.348 685.624,948.181 676.5,946.5 Z"/></g>
<g><path style="opacity:1" fill="#94c250" d="M 788.5,945.5 C 784.467,947.593 780.134,949.093 775.5,950C 767.507,950.5 759.507,950.666 751.5,950.5C 753.833,949.833 756.167,949.167 758.5,948.5C 768.547,947.939 778.547,946.939 788.5,945.5 Z"/></g>
<g><path style="opacity:1" fill="#8dbd4a" d="M 671.5,946.5 C 673.167,946.5 674.833,946.5 676.5,946.5C 685.624,948.181 694.957,949.348 704.5,950C 720.163,950.5 735.83,950.667 751.5,950.5C 750.048,951.302 748.382,951.802 746.5,952C 723.082,953.394 699.915,952.227 677,948.5C 674.705,948.453 672.871,947.787 671.5,946.5 Z"/></g>
<g><path style="opacity:1" fill="#95c153" d="M 553.5,947.5 C 557.374,948.761 561.374,949.428 565.5,949.5C 565.5,950.5 565.5,951.5 565.5,952.5C 567.857,952.337 570.19,952.503 572.5,953C 571.167,953.667 571.167,954.333 572.5,955C 576.137,954.684 578.804,956.018 580.5,959C 589.876,961.751 598.876,965.251 607.5,969.5C 588.508,964.27 570.508,956.937 553.5,947.5 Z"/></g>
<g><path style="opacity:1" fill="#e8f8cf" d="M 894.5,952.5 C 888.941,956.107 882.941,959.274 876.5,962C 874.866,962.494 873.199,962.66 871.5,962.5C 878.925,958.796 886.591,955.463 894.5,952.5 Z"/></g>
<g><path style="opacity:1" fill="#f2fbdf" d="M 852.5,969.5 C 847.005,973.712 840.672,975.712 833.5,975.5C 835.371,974.203 837.371,973.203 839.5,972.5C 843.897,971.699 848.231,970.699 852.5,969.5 Z"/></g>
<g><path style="opacity:1" fill="#90bf4c" d="M 839.5,972.5 C 837.371,973.203 835.371,974.203 833.5,975.5C 832.833,975.5 832.167,975.5 831.5,975.5C 820.975,978.465 810.308,980.798 799.5,982.5C 801.364,980.782 803.697,979.615 806.5,979C 817.669,977.375 828.669,975.209 839.5,972.5 Z"/></g>
<g><path style="opacity:1" fill="#94c252" d="M 680.5,985.5 C 655.276,983.774 630.942,978.441 607.5,969.5C 612.323,971.171 616.823,970.505 621,967.5C 621.833,967.833 622.667,968.167 623.5,968.5C 622.5,969.167 621.5,969.833 620.5,970.5C 622.911,971.088 624.911,972.255 626.5,974C 631.783,975.056 636.949,976.556 642,978.5C 654.937,980.66 667.77,982.994 680.5,985.5 Z"/></g>
<g><path style="opacity:1" fill="#f0fbdf" d="M 831.5,975.5 C 831.586,976.496 831.252,977.329 830.5,978C 821.897,979.479 813.563,981.479 805.5,984C 795.692,985.907 785.692,986.74 775.5,986.5C 783.347,984.97 791.347,983.637 799.5,982.5C 810.308,980.798 820.975,978.465 831.5,975.5 Z"/></g>
<g><path style="opacity:1" fill="#90bc52" d="M 684.5,986.5 C 706.825,987.273 729.158,987.606 751.5,987.5C 737.677,988.496 723.677,988.829 709.5,988.5C 705.5,988.5 701.5,988.5 697.5,988.5C 692.99,988.116 688.657,987.449 684.5,986.5 Z"/></g>
<g><path style="opacity:1" fill="#dcf0b8" d="M 775.5,986.5 C 770.209,987.762 764.875,988.762 759.5,989.5C 742.658,989.83 725.992,989.497 709.5,988.5C 723.677,988.829 737.677,988.496 751.5,987.5C 759.517,987.499 767.517,987.166 775.5,986.5 Z"/></g>
<g><path style="opacity:1" fill="#f9ffeb" d="M 697.5,988.5 C 701.5,988.5 705.5,988.5 709.5,988.5C 725.992,989.497 742.658,989.83 759.5,989.5C 740.671,990.662 721.671,990.829 702.5,990C 700.618,989.802 698.952,989.302 697.5,988.5 Z"/></g>
<g><path style="opacity:1" fill="#1c5171" d="M 403.5,1040.5 C 405.631,1039.69 407.964,1039.19 410.5,1039C 394.833,1038.33 379.167,1038.33 363.5,1039C 364.056,1039.38 364.389,1039.88 364.5,1040.5C 363.5,1040.5 362.5,1040.5 361.5,1040.5C 361.5,1039.5 361.5,1038.5 361.5,1037.5C 378.5,1037.5 395.5,1037.5 412.5,1037.5C 412.5,1038.5 412.5,1039.5 412.5,1040.5C 409.5,1040.5 406.5,1040.5 403.5,1040.5 Z"/></g>
<g><path style="opacity:1" fill="#356788" d="M 792.5,1062.5 C 794.467,1054.9 795.134,1046.9 794.5,1038.5C 770.684,1038.01 747.017,1038.51 723.5,1040C 725.081,1040.71 726.581,1041.54 728,1042.5C 728.83,1069.34 728.664,1096 727.5,1122.5C 727.667,1096.5 727.5,1070.5 727,1044.5C 723.518,1041.12 719.351,1039.78 714.5,1040.5C 714.5,1039.5 714.5,1038.5 714.5,1037.5C 741.5,1037.5 768.5,1037.5 795.5,1037.5C 795.5,1047.17 795.5,1056.83 795.5,1066.5C 794.5,1066.5 793.5,1066.5 792.5,1066.5C 792.5,1065.17 792.5,1063.83 792.5,1062.5 Z"/></g>
<g><path style="opacity:1" fill="#105583" d="M 377.5,1118.5 C 377.649,1115.39 377.149,1112.39 376,1109.5C 375.832,1088.33 375.332,1067.33 374.5,1046.5C 372.465,1042.48 369.131,1040.48 364.5,1040.5C 364.389,1039.88 364.056,1039.38 363.5,1039C 379.167,1038.33 394.833,1038.33 410.5,1039C 407.964,1039.19 405.631,1039.69 403.5,1040.5C 401.897,1041.6 400.397,1042.93 399,1044.5C 398.333,1068.17 398.333,1091.83 399,1115.5C 401.173,1125.66 407.506,1130.66 418,1130.5C 432.144,1129.36 440.144,1121.69 442,1107.5C 442.667,1087.83 442.667,1068.17 442,1048.5C 439.457,1042.64 434.957,1039.97 428.5,1040.5C 428.5,1039.5 428.5,1038.5 428.5,1037.5C 439.833,1037.5 451.167,1037.5 462.5,1037.5C 462.5,1038.5 462.5,1039.5 462.5,1040.5C 456.261,1039.54 451.761,1041.87 449,1047.5C 448.667,1067.5 448.333,1087.5 448,1107.5C 446.591,1122.15 438.757,1131.32 424.5,1135C 410.779,1138.34 397.779,1136.67 385.5,1130C 381.418,1127.1 378.751,1123.26 377.5,1118.5 Z"/></g>
<g><path style="opacity:1" fill="#0c5585" d="M 644.5,1040.5 C 641.551,1041.61 639.385,1043.61 638,1046.5C 637.5,1058.16 637.333,1069.83 637.5,1081.5C 637.369,1082.38 637.702,1083.04 638.5,1083.5C 650.363,1082.84 662.197,1082.18 674,1081.5C 674.333,1082.17 674.667,1082.83 675,1083.5C 675.389,1076.83 675.223,1070.16 674.5,1063.5C 674.361,1059.16 675.028,1054.99 676.5,1051C 674.332,1046.49 671.332,1042.66 667.5,1039.5C 676.816,1038.33 686.149,1038.17 695.5,1039C 696.973,1039.71 697.64,1040.88 697.5,1042.5C 696.5,1042.5 695.5,1042.5 694.5,1042.5C 694.5,1046.17 694.5,1049.83 694.5,1053.5C 693.022,1053.24 691.689,1053.57 690.5,1054.5C 691.289,1056.49 692.455,1056.82 694,1055.5C 694.195,1080.2 694.695,1104.86 695.5,1129.5C 696.5,1129.5 697.5,1129.5 698.5,1129.5C 701.92,1131.22 705.586,1131.89 709.5,1131.5C 709.5,1132.5 709.5,1133.5 709.5,1134.5C 692.5,1134.5 675.5,1134.5 658.5,1134.5C 658.5,1133.5 658.5,1132.5 658.5,1131.5C 661.941,1131.7 665.274,1131.2 668.5,1130C 669.701,1129.1 670.535,1127.93 671,1126.5C 671.5,1113.5 671.667,1100.5 671.5,1087.5C 660.167,1087.5 648.833,1087.5 637.5,1087.5C 636.34,1099.99 636.173,1112.66 637,1125.5C 637.093,1128.01 637.926,1130.17 639.5,1132C 630.167,1132.67 620.833,1132.67 611.5,1132C 614.203,1129.09 615.703,1125.59 616,1121.5C 617.422,1121.41 618.922,1121.07 620.5,1120.5C 619.311,1119.57 617.978,1119.24 616.5,1119.5C 616.5,1096.5 616.5,1073.5 616.5,1050.5C 620.5,1051.17 622.167,1049.5 621.5,1045.5C 619.167,1045.5 616.833,1045.5 614.5,1045.5C 614.5,1044.17 614.5,1042.83 614.5,1041.5C 616.716,1041.73 618.383,1040.89 619.5,1039C 629.167,1038.33 638.833,1038.33 648.5,1039C 646.942,1039.21 645.609,1039.71 644.5,1040.5 Z"/></g>
<g><path style="opacity:1" fill="#105684" d="M 792.5,1062.5 C 790.556,1054.06 785.556,1048.22 777.5,1045C 768.893,1043.66 760.226,1043.16 751.5,1043.5C 751.5,1056.5 751.5,1069.5 751.5,1082.5C 762.605,1082.9 769.105,1077.57 771,1066.5C 771.497,1064.19 771.663,1061.86 771.5,1059.5C 772.833,1059.5 774.167,1059.5 775.5,1059.5C 775.5,1076.5 775.5,1093.5 775.5,1110.5C 774.167,1110.5 772.833,1110.5 771.5,1110.5C 772.023,1102.39 769.357,1095.55 763.5,1090C 761.846,1089.39 760.179,1088.89 758.5,1088.5C 756.393,1087.53 754.059,1087.2 751.5,1087.5C 751.171,1100.01 751.505,1112.34 752.5,1124.5C 752.916,1126.75 754.249,1128.25 756.5,1129C 763.523,1129.62 770.523,1129.46 777.5,1128.5C 784.402,1129.7 789.402,1127.2 792.5,1121C 794.869,1120.46 796.869,1119.3 798.5,1117.5C 799.645,1121.03 798.311,1123.2 794.5,1124C 793.167,1124.67 793.167,1125.33 794.5,1126C 790.345,1128.27 790.678,1129.44 795.5,1129.5C 795.5,1130.5 795.5,1131.5 795.5,1132.5C 768.836,1133.24 742.169,1133.41 715.5,1133C 716.056,1132.62 716.389,1132.12 716.5,1131.5C 723.589,1132.4 727.255,1129.4 727.5,1122.5C 728.664,1096 728.83,1069.34 728,1042.5C 726.581,1041.54 725.081,1040.71 723.5,1040C 747.017,1038.51 770.684,1038.01 794.5,1038.5C 795.134,1046.9 794.467,1054.9 792.5,1062.5 Z"/></g>
<g><path style="opacity:1" fill="#0e5684" d="M 959.5,1042.5 C 958.206,1043.29 957.039,1044.29 956,1045.5C 955.333,1071.83 955.333,1098.17 956,1124.5C 957.167,1125.67 958.333,1126.83 959.5,1128C 967.5,1128.67 975.5,1128.67 983.5,1128C 984.416,1127.72 985.082,1127.22 985.5,1126.5C 990.232,1125.29 994.066,1122.62 997,1118.5C 1000.78,1112.66 1003.28,1106.33 1004.5,1099.5C 1005.83,1099.5 1007.17,1099.5 1008.5,1099.5C 1007.91,1106.18 1007.24,1112.84 1006.5,1119.5C 1005.78,1119.92 1005.28,1120.58 1005,1121.5C 1004.5,1125.49 1004.33,1129.49 1004.5,1133.5C 979.5,1133.5 954.5,1133.5 929.5,1133.5C 930.64,1130.98 931.307,1128.31 931.5,1125.5C 931.667,1098.5 931.5,1071.5 931,1044.5C 927.518,1041.12 923.351,1039.78 918.5,1040.5C 918.5,1039.5 918.5,1038.5 918.5,1037.5C 935.833,1037.5 953.167,1037.5 970.5,1037.5C 970.5,1038.5 970.5,1039.5 970.5,1040.5C 967.482,1040.34 964.482,1040.5 961.5,1041C 960.584,1041.28 959.918,1041.78 959.5,1042.5 Z"/></g>
<g><path style="opacity:1" fill="#0a5484" d="M 1085.5,1051.5 C 1079.27,1044.07 1071.27,1041.4 1061.5,1043.5C 1060.34,1071 1060.17,1098.66 1061,1126.5C 1061.38,1127.06 1061.88,1127.39 1062.5,1127.5C 1062.83,1128.17 1063.17,1128.83 1063.5,1129.5C 1063.5,1130.5 1063.5,1131.5 1063.5,1132.5C 1054.32,1132.47 1044.98,1132.3 1035.5,1132C 1037.57,1129.99 1038.23,1127.82 1037.5,1125.5C 1037.5,1098.17 1037.5,1070.83 1037.5,1043.5C 1031.79,1043.31 1026.12,1043.65 1020.5,1044.5C 1019.17,1044.5 1017.83,1044.5 1016.5,1044.5C 1016.5,1043.5 1016.5,1042.5 1016.5,1041.5C 1015.5,1041.5 1014.5,1041.5 1013.5,1041.5C 1013.5,1040.5 1013.5,1039.5 1013.5,1038.5C 1039.83,1038.5 1066.17,1038.5 1092.5,1038.5C 1092.67,1046.17 1092.5,1053.84 1092,1061.5C 1091.13,1060.89 1090.63,1060.06 1090.5,1059C 1091.49,1056.55 1091.66,1054.05 1091,1051.5C 1090.09,1055.19 1089.42,1054.85 1089,1050.5C 1087.99,1051.34 1086.82,1051.67 1085.5,1051.5 Z"/></g>
<g><path style="opacity:1" fill="#1e5981" d="M 1085.5,1051.5 C 1086.82,1051.67 1087.99,1051.34 1089,1050.5C 1089.42,1054.85 1090.09,1055.19 1091,1051.5C 1091.66,1054.05 1091.49,1056.55 1090.5,1059C 1090.63,1060.06 1091.13,1060.89 1092,1061.5C 1092.5,1053.84 1092.67,1046.17 1092.5,1038.5C 1066.17,1038.5 1039.83,1038.5 1013.5,1038.5C 1013.5,1039.5 1013.5,1040.5 1013.5,1041.5C 1014.5,1041.5 1015.5,1041.5 1016.5,1041.5C 1016.5,1042.5 1016.5,1043.5 1016.5,1044.5C 1017.83,1044.5 1019.17,1044.5 1020.5,1044.5C 1016.73,1046.94 1014.06,1050.27 1012.5,1054.5C 1010.29,1056.96 1009.12,1059.96 1009,1063.5C 1007.99,1064.34 1006.82,1064.67 1005.5,1064.5C 1005.5,1055.5 1005.5,1046.5 1005.5,1037.5C 1034.83,1037.5 1064.17,1037.5 1093.5,1037.5C 1093.5,1046.5 1093.5,1055.5 1093.5,1064.5C 1092.5,1064.5 1091.5,1064.5 1090.5,1064.5C 1089.65,1059.81 1087.98,1055.48 1085.5,1051.5 Z"/></g>
<g><path style="opacity:1" fill="#0d5584" d="M 1151.5,1131.5 C 1146.54,1132.83 1141.21,1133.49 1135.5,1133.5C 1130.17,1133.33 1124.83,1133.17 1119.5,1133C 1113.03,1132.92 1112.19,1131.08 1117,1127.5C 1117.73,1129.16 1118.89,1129.66 1120.5,1129C 1119.66,1127.99 1119.33,1126.82 1119.5,1125.5C 1118.5,1125.5 1117.5,1125.5 1116.5,1125.5C 1116.67,1098.16 1116.5,1070.83 1116,1043.5C 1114.67,1042.42 1113.17,1041.75 1111.5,1041.5C 1108.19,1040.95 1104.86,1040.62 1101.5,1040.5C 1101.5,1039.5 1101.5,1038.5 1101.5,1037.5C 1118.5,1037.5 1135.5,1037.5 1152.5,1037.5C 1152.5,1038.5 1152.5,1039.5 1152.5,1040.5C 1146.41,1039.14 1141.91,1041.14 1139,1046.5C 1138.5,1058.16 1138.33,1069.83 1138.5,1081.5C 1149.83,1081.5 1161.17,1081.5 1172.5,1081.5C 1172.67,1069.16 1172.5,1056.83 1172,1044.5C 1168.52,1041.12 1164.35,1039.78 1159.5,1040.5C 1159.5,1039.5 1159.5,1038.5 1159.5,1037.5C 1176.5,1037.5 1193.5,1037.5 1210.5,1037.5C 1210.5,1038.5 1210.5,1039.5 1210.5,1040.5C 1204.93,1039.42 1200.43,1041.08 1197,1045.5C 1196.33,1072.17 1196.33,1098.83 1197,1125.5C 1199.91,1130.86 1204.41,1132.86 1210.5,1131.5C 1210.5,1132.5 1210.5,1133.5 1210.5,1134.5C 1193.5,1134.5 1176.5,1134.5 1159.5,1134.5C 1159.5,1133.5 1159.5,1132.5 1159.5,1131.5C 1162.94,1131.7 1166.27,1131.2 1169.5,1130C 1170.7,1129.1 1171.53,1127.93 1172,1126.5C 1173.38,1113.55 1173.88,1100.55 1173.5,1087.5C 1161.83,1087.5 1150.17,1087.5 1138.5,1087.5C 1138.33,1099.84 1138.5,1112.17 1139,1124.5C 1141.1,1130.31 1145.27,1132.64 1151.5,1131.5 Z"/></g>
<g><path style="opacity:1" fill="#0e5685" d="M 548.5,1049.5 C 541.88,1043.98 534.214,1041.98 525.5,1043.5C 525.333,1070.84 525.5,1098.17 526,1125.5C 527.71,1129.69 530.876,1131.69 535.5,1131.5C 535.918,1132.22 536.584,1132.72 537.5,1133C 526.833,1133.67 516.167,1133.67 505.5,1133C 503.321,1132.56 502.655,1131.56 503.5,1130C 502.837,1101.07 502.171,1072.24 501.5,1043.5C 495.311,1043.03 489.311,1043.7 483.5,1045.5C 480.541,1045.35 478.041,1046.35 476,1048.5C 475.667,1048.17 475.333,1047.83 475,1047.5C 471.77,1049.16 470.937,1051.49 472.5,1054.5C 472.523,1056.07 472.023,1057.4 471,1058.5C 470.833,1055.33 470.667,1052.17 470.5,1049C 470.55,1045.4 471.217,1042.06 472.5,1039C 500.498,1038.5 528.498,1038.33 556.5,1038.5C 556.666,1044.18 556.499,1049.84 556,1055.5C 555.586,1055.96 555.086,1056.29 554.5,1056.5C 553.548,1054.95 553.215,1053.29 553.5,1051.5C 551.678,1051.17 550.011,1050.5 548.5,1049.5 Z"/></g>
<g><path style="opacity:1" fill="#e9fafc" d="M 1037.5,1125.5 C 1035.18,1129.83 1031.51,1131.83 1026.5,1131.5C 1028.5,1129.02 1031.17,1128.02 1034.5,1128.5C 1036.43,1100.6 1037.1,1072.6 1036.5,1044.5C 1030.97,1044.14 1025.63,1044.98 1020.5,1047C 1017.99,1049.68 1015.32,1052.18 1012.5,1054.5C 1014.06,1050.27 1016.73,1046.94 1020.5,1044.5C 1026.12,1043.65 1031.79,1043.31 1037.5,1043.5C 1037.5,1070.83 1037.5,1098.17 1037.5,1125.5 Z"/></g>
<g><path style="opacity:1" fill="#e5f7fa" d="M 959.5,1042.5 C 958.68,1044.81 957.847,1047.15 957,1049.5C 956.191,1073.69 956.358,1097.85 957.5,1122C 957.844,1123.37 958.511,1124.53 959.5,1125.5C 968.141,1126.5 976.808,1126.83 985.5,1126.5C 985.082,1127.22 984.416,1127.72 983.5,1128C 975.5,1128.67 967.5,1128.67 959.5,1128C 958.333,1126.83 957.167,1125.67 956,1124.5C 955.333,1098.17 955.333,1071.83 956,1045.5C 957.039,1044.29 958.206,1043.29 959.5,1042.5 Z"/></g>
<g><path style="opacity:1" fill="#4a7d9a" d="M 1061.5,1043.5 C 1061.18,1071.54 1061.52,1099.54 1062.5,1127.5C 1061.88,1127.39 1061.38,1127.06 1061,1126.5C 1060.17,1098.66 1060.34,1071 1061.5,1043.5 Z"/></g>
<g><path style="opacity:1" fill="#175074" d="M 501.5,1043.5 C 502.171,1072.24 502.837,1101.07 503.5,1130C 502.655,1131.56 503.321,1132.56 505.5,1133C 516.167,1133.67 526.833,1133.67 537.5,1133C 536.584,1132.72 535.918,1132.22 535.5,1131.5C 536.5,1131.5 537.5,1131.5 538.5,1131.5C 538.5,1132.5 538.5,1133.5 538.5,1134.5C 521.833,1134.5 505.167,1134.5 488.5,1134.5C 488.5,1133.5 488.5,1132.5 488.5,1131.5C 493.777,1132.44 497.943,1130.77 501,1126.5C 501.5,1098.84 501.667,1071.17 501.5,1043.5 Z"/></g>
<g><path style="opacity:1" fill="#165276" d="M 644.5,1040.5 C 645.609,1039.71 646.942,1039.21 648.5,1039C 638.833,1038.33 629.167,1038.33 619.5,1039C 618.383,1040.89 616.716,1041.73 614.5,1041.5C 614.5,1042.83 614.5,1044.17 614.5,1045.5C 616.833,1045.5 619.167,1045.5 621.5,1045.5C 622.167,1049.5 620.5,1051.17 616.5,1050.5C 616.5,1073.5 616.5,1096.5 616.5,1119.5C 617.978,1119.24 619.311,1119.57 620.5,1120.5C 618.922,1121.07 617.422,1121.41 616,1121.5C 615.703,1125.59 614.203,1129.09 611.5,1132C 620.833,1132.67 630.167,1132.67 639.5,1132C 637.926,1130.17 637.093,1128.01 637,1125.5C 636.173,1112.66 636.34,1099.99 637.5,1087.5C 637.333,1099.84 637.5,1112.17 638,1124.5C 640.385,1130.61 644.885,1132.94 651.5,1131.5C 651.5,1132.5 651.5,1133.5 651.5,1134.5C 634.5,1134.5 617.5,1134.5 600.5,1134.5C 600.5,1133.5 600.5,1132.5 600.5,1131.5C 607.115,1132.94 611.615,1130.61 614,1124.5C 614.667,1098.5 614.667,1072.5 614,1046.5C 613.215,1044.71 612.049,1043.21 610.5,1042C 607.243,1040.96 603.91,1040.46 600.5,1040.5C 600.5,1039.5 600.5,1038.5 600.5,1037.5C 617.5,1037.5 634.5,1037.5 651.5,1037.5C 651.5,1038.5 651.5,1039.5 651.5,1040.5C 649.167,1040.5 646.833,1040.5 644.5,1040.5 Z"/></g>
<g><path style="opacity:1" fill="#21516f" d="M 374.5,1046.5 C 375.332,1067.33 375.832,1088.33 376,1109.5C 377.149,1112.39 377.649,1115.39 377.5,1118.5C 376.113,1116.12 375.279,1113.46 375,1110.5C 374.5,1089.17 374.333,1067.84 374.5,1046.5 Z"/></g>
<g><path style="opacity:1" fill="#21597f" d="M 698.5,1129.5 C 697.5,1129.5 696.5,1129.5 695.5,1129.5C 694.695,1104.86 694.195,1080.2 694,1055.5C 692.455,1056.82 691.289,1056.49 690.5,1054.5C 691.689,1053.57 693.022,1053.24 694.5,1053.5C 694.5,1049.83 694.5,1046.17 694.5,1042.5C 695.5,1042.5 696.5,1042.5 697.5,1042.5C 697.64,1040.88 696.973,1039.71 695.5,1039C 686.149,1038.17 676.816,1038.33 667.5,1039.5C 671.332,1042.66 674.332,1046.49 676.5,1051C 675.028,1054.99 674.361,1059.16 674.5,1063.5C 675.223,1070.16 675.389,1076.83 675,1083.5C 674.667,1082.83 674.333,1082.17 674,1081.5C 662.197,1082.18 650.363,1082.84 638.5,1083.5C 637.702,1083.04 637.369,1082.38 637.5,1081.5C 648.833,1081.5 660.167,1081.5 671.5,1081.5C 671.667,1069.16 671.5,1056.83 671,1044.5C 667.518,1041.12 663.351,1039.78 658.5,1040.5C 658.5,1039.5 658.5,1038.5 658.5,1037.5C 675.5,1037.5 692.5,1037.5 709.5,1037.5C 709.5,1038.5 709.5,1039.5 709.5,1040.5C 703.93,1039.42 699.43,1041.08 696,1045.5C 695.333,1072.17 695.333,1098.83 696,1125.5C 696.662,1126.98 697.496,1128.32 698.5,1129.5 Z"/></g>
<g><path style="opacity:1" fill="#175275" d="M 1111.5,1041.5 C 1113.17,1041.75 1114.67,1042.42 1116,1043.5C 1116.5,1070.83 1116.67,1098.16 1116.5,1125.5C 1117.5,1125.5 1118.5,1125.5 1119.5,1125.5C 1119.33,1126.82 1119.66,1127.99 1120.5,1129C 1118.89,1129.66 1117.73,1129.16 1117,1127.5C 1112.19,1131.08 1113.03,1132.92 1119.5,1133C 1124.83,1133.17 1130.17,1133.33 1135.5,1133.5C 1141.21,1133.49 1146.54,1132.83 1151.5,1131.5C 1152.4,1132.21 1152.74,1133.21 1152.5,1134.5C 1135.5,1134.5 1118.5,1134.5 1101.5,1134.5C 1101.5,1133.5 1101.5,1132.5 1101.5,1131.5C 1104.94,1131.7 1108.27,1131.2 1111.5,1130C 1113.49,1128.68 1114.65,1126.85 1115,1124.5C 1115.67,1098.5 1115.67,1072.5 1115,1046.5C 1114,1044.68 1112.84,1043.01 1111.5,1041.5 Z"/></g>
<g><path style="opacity:1" fill="#245c80" d="M 548.5,1049.5 C 550.011,1050.5 551.678,1051.17 553.5,1051.5C 553.215,1053.29 553.548,1054.95 554.5,1056.5C 555.086,1056.29 555.586,1055.96 556,1055.5C 556.499,1049.84 556.666,1044.18 556.5,1038.5C 528.498,1038.33 500.498,1038.5 472.5,1039C 471.217,1042.06 470.55,1045.4 470.5,1049C 470.667,1052.17 470.833,1055.33 471,1058.5C 472.023,1057.4 472.523,1056.07 472.5,1054.5C 470.937,1051.49 471.77,1049.16 475,1047.5C 475.333,1047.83 475.667,1048.17 476,1048.5C 478.041,1046.35 480.541,1045.35 483.5,1045.5C 477.706,1050.08 474.206,1056.08 473,1063.5C 471.989,1064.34 470.822,1064.67 469.5,1064.5C 469.5,1055.5 469.5,1046.5 469.5,1037.5C 498.833,1037.5 528.167,1037.5 557.5,1037.5C 557.5,1046.5 557.5,1055.5 557.5,1064.5C 556.5,1064.5 555.5,1064.5 554.5,1064.5C 553.316,1059.14 551.316,1054.14 548.5,1049.5 Z"/></g>
<g><path style="opacity:1" fill="#0e5583" d="M 300.5,1130.5 C 307.563,1132.08 314.563,1131.42 321.5,1128.5C 322.782,1118.8 322.782,1109.14 321.5,1099.5C 323.284,1100.57 324.451,1102.24 325,1104.5C 325.189,1112.51 325.189,1120.51 325,1128.5C 325.739,1129.57 326.739,1130.24 328,1130.5C 327.973,1129.21 328.973,1128.21 331,1127.5C 331.388,1128.43 332.055,1129.09 333,1129.5C 334.15,1128.58 335.15,1128.58 336,1129.5C 336.165,1126.01 337.998,1124.17 341.5,1124C 340.062,1123.78 338.729,1123.28 337.5,1122.5C 337.808,1121.69 338.308,1121.03 339,1120.5C 340.996,1121 342.663,1122 344,1123.5C 344.199,1115.78 344.699,1108.12 345.5,1100.5C 345.167,1099.83 344.833,1099.17 344.5,1098.5C 347.602,1096.82 350.936,1096.15 354.5,1096.5C 350.502,1096.64 347.669,1098.64 346,1102.5C 345.5,1111.49 345.334,1120.49 345.5,1129.5C 328.278,1135.14 310.611,1137.3 292.5,1136C 259.851,1127.02 246.351,1105.86 252,1072.5C 261.198,1048.58 278.531,1036.25 304,1035.5C 309.547,1035.53 315.047,1036.03 320.5,1037C 325.733,1039.12 331.066,1040.95 336.5,1042.5C 339.962,1041.37 341.962,1039.04 342.5,1035.5C 343.5,1035.5 344.5,1035.5 345.5,1035.5C 345.832,1046.85 345.499,1058.19 344.5,1069.5C 340.723,1062.13 336.056,1055.3 330.5,1049C 317.77,1039.05 304.437,1038.05 290.5,1046C 282.086,1054.34 277.586,1064.5 277,1076.5C 274.823,1092.44 277.49,1107.44 285,1121.5C 289.084,1126.43 294.251,1129.43 300.5,1130.5 Z"/></g>
<g><path style="opacity:1" fill="#f7fcfc" d="M 855.5,1071.5 C 859.494,1081.49 863.494,1091.49 867.5,1101.5C 858.143,1101.83 848.81,1101.5 839.5,1100.5C 844.051,1090 848.884,1079.67 854,1069.5C 854.278,1070.42 854.778,1071.08 855.5,1071.5 Z"/></g>
<g><path style="opacity:1" fill="#185072" d="M 355.5,1096.5 C 349.202,1095.17 342.535,1094.5 335.5,1094.5C 328.465,1094.5 321.798,1095.17 315.5,1096.5C 313.5,1096.5 311.5,1096.5 309.5,1096.5C 309.5,1095.5 309.5,1094.5 309.5,1093.5C 325.5,1093.5 341.5,1093.5 357.5,1093.5C 357.715,1095.18 357.048,1096.18 355.5,1096.5 Z"/></g>
<g><path style="opacity:1" fill="#095585" d="M 355.5,1096.5 C 355.167,1096.5 354.833,1096.5 354.5,1096.5C 350.936,1096.15 347.602,1096.82 344.5,1098.5C 344.833,1099.17 345.167,1099.83 345.5,1100.5C 344.699,1108.12 344.199,1115.78 344,1123.5C 342.663,1122 340.996,1121 339,1120.5C 338.308,1121.03 337.808,1121.69 337.5,1122.5C 338.729,1123.28 340.062,1123.78 341.5,1124C 337.998,1124.17 336.165,1126.01 336,1129.5C 335.15,1128.58 334.15,1128.58 333,1129.5C 332.055,1129.09 331.388,1128.43 331,1127.5C 328.973,1128.21 327.973,1129.21 328,1130.5C 326.739,1130.24 325.739,1129.57 325,1128.5C 325.189,1120.51 325.189,1112.51 325,1104.5C 324.451,1102.24 323.284,1100.57 321.5,1099.5C 320.833,1099.17 320.167,1098.83 319.5,1098.5C 318.005,1098.01 316.671,1097.34 315.5,1096.5C 321.798,1095.17 328.465,1094.5 335.5,1094.5C 342.535,1094.5 349.202,1095.17 355.5,1096.5 Z"/></g>
<g><path style="opacity:1" fill="#095585" d="M 879.5,1071.5 C 879.507,1074.04 879.841,1076.54 880.5,1079C 882.553,1081.46 884.053,1084.29 885,1087.5C 885.743,1089.44 885.576,1091.27 884.5,1093C 886.739,1094.98 888.072,1097.48 888.5,1100.5C 889.425,1099.36 890.259,1099.36 891,1100.5C 891.333,1103.17 891.667,1105.83 892,1108.5C 895.232,1111.18 897.565,1114.51 899,1118.5C 898.948,1120.91 898.615,1123.24 898,1125.5C 899.113,1126.71 900.28,1126.71 901.5,1125.5C 902.386,1126.32 902.719,1127.32 902.5,1128.5C 904.91,1129.38 907.243,1130.55 909.5,1132C 898.818,1132.83 888.151,1132.67 877.5,1131.5C 881.358,1127.76 881.358,1123.92 877.5,1120C 878.151,1118.69 877.485,1117.86 875.5,1117.5C 875.567,1115.6 875.233,1113.77 874.5,1112C 874.905,1111.05 875.572,1110.39 876.5,1110C 874.382,1109.74 872.716,1108.74 871.5,1107C 861.833,1106.67 852.167,1106.33 842.5,1106C 843.337,1104.99 843.67,1103.82 843.5,1102.5C 851.684,1102.83 859.684,1102.49 867.5,1101.5C 863.494,1091.49 859.494,1081.49 855.5,1071.5C 855.201,1069.4 855.534,1067.4 856.5,1065.5C 857.333,1066.5 858.167,1067.5 859,1068.5C 859.695,1065.61 860.528,1062.78 861.5,1060C 860.167,1056.67 860.167,1053.33 861.5,1050C 861.507,1048.19 860.84,1046.69 859.5,1045.5C 859.833,1045.17 860.167,1044.83 860.5,1044.5C 862.149,1045.71 863.649,1047.04 865,1048.5C 865.419,1052.94 866.252,1057.28 867.5,1061.5C 867.519,1064.24 866.852,1066.74 865.5,1069C 865.833,1069.83 866.167,1070.67 866.5,1071.5C 868.558,1067.49 870.392,1063.83 872,1060.5C 874.853,1063.58 876.019,1067.24 875.5,1071.5C 876.833,1071.5 878.167,1071.5 879.5,1071.5 Z"/></g>
<g><path style="opacity:1" fill="#15557f" d="M 879.5,1071.5 C 878.167,1071.5 876.833,1071.5 875.5,1071.5C 876.019,1067.24 874.853,1063.58 872,1060.5C 870.392,1063.83 868.558,1067.49 866.5,1071.5C 866.167,1070.67 865.833,1069.83 865.5,1069C 866.852,1066.74 867.519,1064.24 867.5,1061.5C 866.252,1057.28 865.419,1052.94 865,1048.5C 863.649,1047.04 862.149,1045.71 860.5,1044.5C 860.167,1044.83 859.833,1045.17 859.5,1045.5C 860.84,1046.69 861.507,1048.19 861.5,1050C 860.167,1053.33 860.167,1056.67 861.5,1060C 860.528,1062.78 859.695,1065.61 859,1068.5C 858.167,1067.5 857.333,1066.5 856.5,1065.5C 855.534,1067.4 855.201,1069.4 855.5,1071.5C 854.778,1071.08 854.278,1070.42 854,1069.5C 848.884,1079.67 844.051,1090 839.5,1100.5C 848.81,1101.5 858.143,1101.83 867.5,1101.5C 859.684,1102.49 851.684,1102.83 843.5,1102.5C 843.67,1103.82 843.337,1104.99 842.5,1106C 852.167,1106.33 861.833,1106.67 871.5,1107C 872.716,1108.74 874.382,1109.74 876.5,1110C 875.572,1110.39 874.905,1111.05 874.5,1112C 875.233,1113.77 875.567,1115.6 875.5,1117.5C 873.943,1114.38 872.277,1111.21 870.5,1108C 859.167,1107.33 847.833,1107.33 836.5,1108C 832.434,1113.94 830.6,1120.44 831,1127.5C 834.444,1130.88 838.61,1132.22 843.5,1131.5C 843.5,1132.5 843.5,1133.5 843.5,1134.5C 832.5,1134.5 821.5,1134.5 810.5,1134.5C 810.281,1133.32 810.614,1132.32 811.5,1131.5C 814.877,1130.73 817.711,1129.06 820,1126.5C 835.085,1096.75 848.919,1066.41 861.5,1035.5C 862.5,1035.5 863.5,1035.5 864.5,1035.5C 869.494,1047.49 874.494,1059.49 879.5,1071.5 Z"/></g>
<g><path style="opacity:1" fill="#d7ebf4" d="M 319.5,1098.5 C 320.167,1098.83 320.833,1099.17 321.5,1099.5C 322.782,1109.14 322.782,1118.8 321.5,1128.5C 314.563,1131.42 307.563,1132.08 300.5,1130.5C 307.117,1131.09 313.451,1130.09 319.5,1127.5C 320.781,1117.85 320.781,1108.18 319.5,1098.5 Z"/></g>
<g><path style="opacity:1" fill="#b3cfdf" d="M 758.5,1088.5 C 756.5,1088.5 754.5,1088.5 752.5,1088.5C 752.5,1100.5 752.5,1112.5 752.5,1124.5C 751.505,1112.34 751.171,1100.01 751.5,1087.5C 754.059,1087.2 756.393,1087.53 758.5,1088.5 Z"/></g>
<g><path style="opacity:1" fill="#17537b" d="M 716.5,1131.5 C 716.389,1132.12 716.056,1132.62 715.5,1133C 742.169,1133.41 768.836,1133.24 795.5,1132.5C 795.5,1131.5 795.5,1130.5 795.5,1129.5C 790.678,1129.44 790.345,1128.27 794.5,1126C 793.167,1125.33 793.167,1124.67 794.5,1124C 798.311,1123.2 799.645,1121.03 798.5,1117.5C 796.869,1119.3 794.869,1120.46 792.5,1121C 789.402,1127.2 784.402,1129.7 777.5,1128.5C 789.723,1124.6 797.057,1116.27 799.5,1103.5C 800.5,1103.5 801.5,1103.5 802.5,1103.5C 801.54,1113.89 800.207,1124.22 798.5,1134.5C 770.5,1134.5 742.5,1134.5 714.5,1134.5C 714.285,1132.82 714.952,1131.82 716.5,1131.5 Z"/></g>
<g><path style="opacity:1" fill="#19557b" d="M 879.5,1071.5 C 887.02,1088.86 894.853,1106.19 903,1123.5C 905.369,1128.38 909.203,1131.05 914.5,1131.5C 914.5,1132.5 914.5,1133.5 914.5,1134.5C 898.5,1134.5 882.5,1134.5 866.5,1134.5C 866.5,1133.5 866.5,1132.5 866.5,1131.5C 870.839,1132.15 874.673,1131.15 878,1128.5C 877.8,1124.74 876.967,1121.07 875.5,1117.5C 877.485,1117.86 878.151,1118.69 877.5,1120C 881.358,1123.92 881.358,1127.76 877.5,1131.5C 888.151,1132.67 898.818,1132.83 909.5,1132C 907.243,1130.55 904.91,1129.38 902.5,1128.5C 902.719,1127.32 902.386,1126.32 901.5,1125.5C 900.28,1126.71 899.113,1126.71 898,1125.5C 898.615,1123.24 898.948,1120.91 899,1118.5C 897.565,1114.51 895.232,1111.18 892,1108.5C 891.667,1105.83 891.333,1103.17 891,1100.5C 890.259,1099.36 889.425,1099.36 888.5,1100.5C 888.072,1097.48 886.739,1094.98 884.5,1093C 885.576,1091.27 885.743,1089.44 885,1087.5C 884.053,1084.29 882.553,1081.46 880.5,1079C 879.841,1076.54 879.507,1074.04 879.5,1071.5 Z"/></g>
<g><path style="opacity:1" fill="#165177" d="M 1037.5,1125.5 C 1038.23,1127.82 1037.57,1129.99 1035.5,1132C 1044.98,1132.3 1054.32,1132.47 1063.5,1132.5C 1063.5,1131.5 1063.5,1130.5 1063.5,1129.5C 1066.89,1131.22 1070.56,1131.89 1074.5,1131.5C 1074.5,1132.5 1074.5,1133.5 1074.5,1134.5C 1057.83,1134.5 1041.17,1134.5 1024.5,1134.5C 1024.29,1132.82 1024.95,1131.82 1026.5,1131.5C 1031.51,1131.83 1035.18,1129.83 1037.5,1125.5 Z"/></g>
<g><path style="opacity:1" fill="#205170" d="M 1006.5,1119.5 C 1005.67,1124.45 1005.34,1129.45 1005.5,1134.5C 976.5,1134.5 947.5,1134.5 918.5,1134.5C 918.5,1133.5 918.5,1132.5 918.5,1131.5C 924.41,1132.37 928.743,1130.37 931.5,1125.5C 931.307,1128.31 930.64,1130.98 929.5,1133.5C 954.5,1133.5 979.5,1133.5 1004.5,1133.5C 1004.33,1129.49 1004.5,1125.49 1005,1121.5C 1005.28,1120.58 1005.78,1119.92 1006.5,1119.5 Z"/></g>
<g><path style="opacity:1" fill="#1e5882" d="M 741.5,1161.5 C 747.195,1161.63 748.862,1164.3 746.5,1169.5C 742.495,1172.5 739.828,1171.5 738.5,1166.5C 739.092,1164.58 740.092,1162.91 741.5,1161.5 Z"/></g>
<g><path style="opacity:1" fill="#1f5981" d="M 881.5,1161.5 C 887.195,1161.63 888.862,1164.3 886.5,1169.5C 882.495,1172.5 879.828,1171.5 878.5,1166.5C 879.092,1164.58 880.092,1162.91 881.5,1161.5 Z"/></g>
<g><path style="opacity:1" fill="#21577b" d="M 508.5,1182.5 C 506.968,1183.37 505.468,1183.04 504,1181.5C 502.374,1178.39 502.208,1175.22 503.5,1172C 502.576,1170.19 501.743,1170.36 501,1172.5C 499.682,1175.41 499.348,1178.41 500,1181.5C 501.687,1184.73 503.521,1187.73 505.5,1190.5C 500.636,1188.12 498.302,1184.12 498.5,1178.5C 499.531,1168.05 505.364,1163.05 516,1163.5C 519.933,1164.05 523.766,1165.05 527.5,1166.5C 529.397,1166.27 530.73,1165.27 531.5,1163.5C 532.833,1170.17 532.833,1176.83 531.5,1183.5C 529.545,1171.36 522.545,1165.86 510.5,1167C 503.453,1171.43 502.787,1176.6 508.5,1182.5 Z"/></g>
<g><path style="opacity:1" fill="#195175" d="M 841.5,1161.5 C 842.5,1161.5 843.5,1161.5 844.5,1161.5C 844.333,1180.17 844.5,1198.84 845,1217.5C 845.356,1220.73 847.19,1222.23 850.5,1222C 844.167,1222.67 837.833,1222.67 831.5,1222C 833.676,1221.84 835.509,1221 837,1219.5C 837.667,1202.5 837.667,1185.5 837,1168.5C 835.902,1167.03 834.402,1166.2 832.5,1166C 835.859,1164.95 838.859,1163.45 841.5,1161.5 Z"/></g>
<g><path style="opacity:1" fill="#085585" d="M 839.5,1165.5 C 840.978,1165.24 842.311,1165.57 843.5,1166.5C 842.193,1184.49 842.193,1202.49 843.5,1220.5C 841.833,1220.5 840.167,1220.5 838.5,1220.5C 838.193,1202.12 838.526,1183.79 839.5,1165.5 Z"/></g>
<g><path style="opacity:1" fill="#19567f" d="M 692.5,1181.5 C 698.731,1180.85 703.898,1182.85 708,1187.5C 709.115,1194.97 706.781,1196.3 701,1191.5C 700.199,1185.18 696.699,1183.01 690.5,1185C 684.788,1190.67 682.955,1197.5 685,1205.5C 687.955,1215.14 694.122,1218.31 703.5,1215C 705.7,1212.77 707.533,1210.27 709,1207.5C 707.888,1219.27 701.388,1224.43 689.5,1223C 680.92,1218.72 676.92,1211.72 677.5,1202C 677.758,1191.59 682.758,1184.76 692.5,1181.5 Z"/></g>
<g><path style="opacity:1" fill="#14547f" d="M 873.5,1222.5 C 875.291,1221.61 877.124,1220.61 879,1219.5C 879.667,1209.17 879.667,1198.83 879,1188.5C 877.266,1187.75 875.433,1187.25 873.5,1187C 876.522,1185.49 879.522,1183.99 882.5,1182.5C 883.583,1182.46 884.583,1182.13 885.5,1181.5C 886.333,1193.82 886.833,1206.15 887,1218.5C 887.976,1220.89 889.809,1222.05 892.5,1222C 886.175,1222.5 879.842,1222.67 873.5,1222.5 Z"/></g>
<g><path style="opacity:1" fill="#15557f" d="M 975.5,1169.5 C 976.485,1173.63 976.818,1177.97 976.5,1182.5C 979.5,1182.5 982.5,1182.5 985.5,1182.5C 985.5,1183.5 985.5,1184.5 985.5,1185.5C 982.5,1185.5 979.5,1185.5 976.5,1185.5C 976.334,1195.84 976.5,1206.17 977,1216.5C 980.082,1219.2 982.915,1218.86 985.5,1215.5C 986.229,1217.6 985.563,1219.43 983.5,1221C 978,1224.98 973.5,1224.15 970,1218.5C 969.5,1207.51 969.333,1196.51 969.5,1185.5C 967.396,1185.8 965.396,1185.47 963.5,1184.5C 969.157,1180.87 973.157,1175.87 975.5,1169.5 Z"/></g>
<g><path style="opacity:1" fill="#165681" d="M 508.5,1182.5 C 514.308,1186.24 520.308,1189.74 526.5,1193C 538.921,1201.52 539.587,1210.85 528.5,1221C 519.987,1224.08 511.487,1223.91 503,1220.5C 501.416,1220.99 500.249,1221.99 499.5,1223.5C 498.167,1216.83 498.167,1210.17 499.5,1203.5C 502.888,1218.09 511.555,1222.92 525.5,1218C 528.803,1214.21 529.303,1210.04 527,1205.5C 519.854,1200.35 512.688,1195.35 505.5,1190.5C 503.521,1187.73 501.687,1184.73 500,1181.5C 499.348,1178.41 499.682,1175.41 501,1172.5C 501.743,1170.36 502.576,1170.19 503.5,1172C 502.208,1175.22 502.374,1178.39 504,1181.5C 505.468,1183.04 506.968,1183.37 508.5,1182.5 Z"/></g>
<g><path style="opacity:1" fill="#14547f" d="M 743.5,1181.5 C 744.5,1181.5 745.5,1181.5 746.5,1181.5C 746.333,1193.84 746.5,1206.17 747,1218.5C 747.976,1220.89 749.809,1222.05 752.5,1222C 746.167,1222.67 739.833,1222.67 733.5,1222C 735.676,1221.84 737.509,1221 739,1219.5C 739.667,1209.17 739.667,1198.83 739,1188.5C 737.266,1187.75 735.433,1187.25 733.5,1187C 736.985,1185.25 740.319,1183.41 743.5,1181.5 Z"/></g>
<g><path style="opacity:1" fill="#1f5881" d="M 923.5,1181.5 C 927.6,1181.52 931.6,1182.19 935.5,1183.5C 936.672,1183.08 937.672,1182.41 938.5,1181.5C 939.833,1185.83 939.833,1190.17 938.5,1194.5C 937.243,1190.47 934.91,1187.3 931.5,1185C 929.167,1184.33 926.833,1184.33 924.5,1185C 919.493,1187.73 919.16,1191.07 923.5,1195C 927.221,1197.53 931.221,1199.53 935.5,1201C 945.055,1209.23 944.389,1216.57 933.5,1223C 928.667,1223.88 924,1223.38 919.5,1221.5C 918.328,1221.92 917.328,1222.59 916.5,1223.5C 915.167,1219.17 915.167,1214.83 916.5,1210.5C 918.512,1216.85 922.846,1220.18 929.5,1220.5C 935.267,1219.36 936.934,1216.03 934.5,1210.5C 930.239,1207.02 925.572,1204.19 920.5,1202C 913.245,1193.95 914.245,1187.12 923.5,1181.5 Z"/></g>
<g><path style="opacity:1" fill="#1a5781" d="M 787.5,1181.5 C 791.56,1181.48 795.56,1181.98 799.5,1183C 801.378,1184.54 802.878,1186.38 804,1188.5C 804.333,1198.17 804.667,1207.83 805,1217.5C 807.001,1217.83 808.835,1217.83 810.5,1217.5C 808.086,1221.91 804.42,1223.75 799.5,1223C 798.134,1221.4 797.134,1219.57 796.5,1217.5C 791.786,1222.8 786.119,1224.3 779.5,1222C 773.382,1214.27 774.382,1207.61 782.5,1202C 787.408,1199.96 792.241,1197.8 797,1195.5C 798.414,1189.31 796.08,1185.64 790,1184.5C 787.966,1184.35 786.299,1185.02 785,1186.5C 784.989,1189.66 784.155,1192.49 782.5,1195C 780.888,1195.72 779.388,1195.55 778,1194.5C 777.085,1187.24 780.252,1182.91 787.5,1181.5 Z"/></g>
<g><path style="opacity:1" fill="#f5fafb" d="M 795.5,1199.5 C 796.487,1204.31 796.821,1209.31 796.5,1214.5C 789.924,1220.75 785.258,1219.59 782.5,1211C 784.444,1204.56 788.778,1200.73 795.5,1199.5 Z"/></g>
<g><path style="opacity:1" fill="#b1d1e2" d="M 795.5,1199.5 C 795.56,1198.96 795.893,1198.62 796.5,1198.5C 797.815,1203.99 797.815,1209.32 796.5,1214.5C 796.821,1209.31 796.487,1204.31 795.5,1199.5 Z"/></g>
<g><path style="opacity:1" fill="#185681" d="M 636.5,1181.5 C 648.331,1181 654.331,1186.66 654.5,1198.5C 645.5,1198.5 636.5,1198.5 627.5,1198.5C 627.083,1205.5 629.75,1211 635.5,1215C 644.193,1218.82 650.193,1216.32 653.5,1207.5C 653.524,1217.15 648.524,1222.49 638.5,1223.5C 626.942,1221.43 621.275,1214.43 621.5,1202.5C 621.563,1191.8 626.563,1184.8 636.5,1181.5 Z"/></g>
<g><path style="opacity:1" fill="#f4fbfc" d="M 633.5,1184.5 C 641.677,1183.68 645.677,1187.35 645.5,1195.5C 639.5,1195.5 633.5,1195.5 627.5,1195.5C 628.198,1191.1 630.198,1187.44 633.5,1184.5 Z"/></g>
<g><path style="opacity:1" fill="#e9f9fd" d="M 873.5,1222.5 C 879.842,1222.67 886.175,1222.5 892.5,1222C 889.809,1222.05 887.976,1220.89 887,1218.5C 886.833,1206.15 886.333,1193.82 885.5,1181.5C 884.583,1182.13 883.583,1182.46 882.5,1182.5C 884.159,1179.86 885.992,1179.86 888,1182.5C 888.167,1194.85 888.667,1207.18 889.5,1219.5C 890.736,1220.25 892.07,1220.58 893.5,1220.5C 893.684,1223.32 892.351,1224.99 889.5,1225.5C 884.887,1224.72 880.22,1224.22 875.5,1224C 874.584,1223.72 873.918,1223.22 873.5,1222.5 Z"/></g>
<g><path style="opacity:1" fill="#1f5a84" d="M 567.5,1181.5 C 568.833,1181.5 570.167,1181.5 571.5,1181.5C 571.337,1183.86 571.503,1186.19 572,1188.5C 582.038,1178.36 590.371,1179.7 597,1192.5C 598.946,1201.97 597.279,1210.63 592,1218.5C 585.681,1224.04 579.014,1224.71 572,1220.5C 571.333,1226.5 571.333,1232.5 572,1238.5C 573.491,1240 575.324,1240.84 577.5,1241C 570.833,1241.67 564.167,1241.67 557.5,1241C 559.519,1240.55 561.352,1239.72 563,1238.5C 563.5,1221.5 563.667,1204.5 563.5,1187.5C 561.473,1187.66 559.473,1187.5 557.5,1187C 560.745,1184.9 564.079,1183.07 567.5,1181.5 Z"/></g>
<g><path style="opacity:1" fill="#f8fcfc" d="M 576.5,1187.5 C 584.082,1187.24 588.582,1190.91 590,1198.5C 591.639,1206.09 590.139,1212.92 585.5,1219C 579.834,1221.81 575.334,1220.65 572,1215.5C 571.333,1207.83 571.333,1200.17 572,1192.5C 573.707,1190.96 575.207,1189.3 576.5,1187.5 Z"/></g>
</svg>
