<?xml version="1.0" encoding="utf-8"?>
<!-- Generator: Adobe Illustrator 26.5.0, SVG Export Plug-In . SVG Version: 6.00 Build 0)  -->
<svg version="1.1" id="Layer_1" xmlns="http://www.w3.org/2000/svg" xmlns:xlink="http://www.w3.org/1999/xlink" x="0px" y="0px"
	 viewBox="0 0 100 100" style="enable-background:new 0 0 100 100;" xml:space="preserve">
<style type="text/css">
	.st0{fill:#1B5A90;}
	.st1{fill:#57C9E9;}
</style>
<g>
	<path class="st0" d="M76.22,68.53c-10.08-6.58-21.12-8.76-32.88-7.3c-8.84,1.09-16.78,4.43-23.64,10.39c2.8,0,5.61-0.01,8.41,0
		c1.88,0.01,3.3,1.21,3.44,2.85c0.14,1.64-1.07,3.11-2.78,3.31c-0.61,0.07-1.23,0.01-1.85,0.04c-1.77,0.1-3.07,1.38-3.08,3.02
		c-0.02,1.69,1.35,3.09,3.15,3.11c3.4,0.04,6.79,0.01,10.19,0.01c2.19,0,3.63,1.23,3.63,3.1c0,1.85-1.45,3.1-3.65,3.1
		c-9.31,0-18.63,0.03-27.94-0.04c-1.38-0.01-1.96,0.4-2.03,1.76c-0.08,1.43-0.29,2.84-0.46,4.35c-0.94,0-1.84,0-3.07,0
		c0.21-1.91,0.3-3.79,0.64-5.62c1.71-9.3,6.75-16.56,14.08-22.31c1.25-0.98,1.59-1.7,0.76-3.1c-0.86-1.45-1.48-3.05-2.21-4.58
		c-0.04-0.08-0.15-0.14-0.22-0.21c-0.1-0.02-0.21-0.07-0.29-0.04c-2.58,0.92-2.57,0.91-3.73-1.66c-0.55-1.22-1.12-2.42-1.69-3.64
		c-1.62-3.46-1.52-3.91,1.35-6.18c-2.19-2.22-2.66-3.83-1.63-5.61c0.88-1.52,2.69-2.29,4.37-1.85c1.86,0.49,2.82,2.05,2.9,4.84
		c0.4-0.11,0.76-0.2,1.13-0.31c1.47-0.42,2.86,0.03,3.56,1.4c1.24,2.43,2.38,4.9,3.47,7.4c0.13,0.29-0.22,0.97-0.54,1.24
		c-0.45,0.38-1.08,0.54-1.83,0.89c0.95,2.04,1.87,4.01,2.78,5.95c2.91-1.04,5.61-2.19,8.42-2.95c3.02-0.81,6.12-1.31,9.21-1.82
		c0.97-0.16,1.32-0.45,1.29-1.43c-0.06-2.15-0.02-4.3-0.02-6.55c-1.06-0.06-1.96-0.11-3.04-0.16c0-3.16-0.19-6.29,0.07-9.39
		c0.16-1.96,1.96-2.43,3.45-2.49c-0.11-1.35-0.41-2.65-0.23-3.87c0.11-0.74,0.86-1.51,1.52-2.03c1.34-1.05,3.28-0.88,4.57,0.22
		c1.56,1.33,1.76,3.02,0.59,5.57c0.51,0.1,1,0.18,1.47,0.3c1.33,0.33,2.3,1.18,2.36,2.53c0.12,3.02,0.04,6.04,0.04,9.16
		c-1.03,0.06-1.93,0.11-2.94,0.16c0,2.54,0,5.03,0,7.67c6.79,0.49,13.3,2.06,19.59,4.96c0.91-1.98,1.76-3.82,2.65-5.77
		c-0.92-0.5-1.72-0.92-2.71-1.46c1.32-2.82,2.52-5.64,3.97-8.34c0.64-1.2,1.93-1.65,3.36-1.19c0.38,0.12,0.76,0.24,1.15,0.36
		c0.34-3.29,1.3-4.64,3.46-4.96c1.68-0.25,3.31,0.65,4.03,2.22c0.83,1.81,0.23,3.52-1.93,5.27c0.39,0.26,0.75,0.49,1.11,0.73
		c1.26,0.86,1.81,2.08,1.23,3.48c-1.13,2.75-2.43,5.43-3.72,8.26c-1.01-0.38-1.89-0.71-2.9-1.09c-0.89,1.92-1.81,3.76-2.56,5.66
		c-0.13,0.34,0.27,1.12,0.65,1.4c4.79,3.61,8.8,7.9,11.67,13.19c2.36,4.36,3.73,9.01,4.03,13.97c0.02,0.41,0.02,0.82,0.01,1.23
		c0,0.15-0.07,0.29-0.13,0.53c-0.9,0-1.8,0-2.75,0c-0.28-2.01-0.58-4.02-0.83-6.05c-0.15-1.18-0.7-1.58-1.93-1.57
		c-7.56,0.06-15.13,0.03-22.69,0.01c-0.71,0-1.46-0.02-2.12-0.26c-1.34-0.49-2.14-2-1.92-3.36c0.22-1.36,1.42-2.44,2.9-2.55
		c0.61-0.05,1.24,0.01,1.85-0.04c1.66-0.13,2.91-1.44,2.94-3.02c0.03-1.64-1.26-3.06-2.99-3.12c-1.95-0.07-3.91,0-5.87-0.02
		c-2.38-0.02-3.5-1.28-3.5-3.87c0-2.61,1.1-3.84,3.5-3.85C67.29,68.52,71.75,68.53,76.22,68.53z"/>
	<path class="st1" d="M36.11,16.11c0-2.41,0.02-4.83-0.01-7.24c-0.02-1.08,0.41-1.72,1.45-2.05c1.91-0.6,3.8-1.27,5.7-1.89
		c2.27-0.74,4.64-0.91,6.8,0.07c3.5,1.58,6.72,1.12,10.07-0.41c3.3-1.5,3.78-1.09,3.78,2.57c0,3.49-0.08,6.99,0.05,10.48
		c0.07,1.76-0.46,2.81-2.04,3.69c-2.52,1.42-4.93,3.07-7.97,2.9c-1.47-0.08-2.96-0.33-4.36-0.76c-1.84-0.56-3.61-0.72-5.44-0.1
		c-1.85,0.62-3.71,1.22-5.57,1.81c-1.63,0.52-2.46-0.08-2.47-1.81C36.08,20.94,36.1,18.52,36.11,16.11
		C36.1,16.11,36.11,16.11,36.11,16.11z M39.21,21.64c0.73-0.23,1.27-0.35,1.78-0.56c3.41-1.36,6.79-1.68,10.34-0.33
		c3.41,1.3,6.3-0.28,9.02-2.18c0.22-0.15,0.42-0.49,0.43-0.75c0.04-1.3,0.02-2.6,0.02-4.09c-1.03,0.38-1.79,0.66-2.55,0.94
		c-2.14,0.79-4.42,1.17-6.47,0.2c-4.01-1.91-7.79-1.12-11.6,0.42c-0.39,0.16-0.91,0.62-0.93,0.97
		C39.16,17.99,39.21,19.72,39.21,21.64z"/>
	<path class="st1" d="M68.53,22.16c0-2.26,0.07-4.52-0.03-6.78c-0.07-1.45,0.53-2.17,1.87-2.54c1.38-0.38,2.75-0.84,4.09-1.36
		c3.23-1.25,6.4-1.19,9.58,0.21c2.03,0.88,4.12,0.74,6.16-0.04c1.29-0.5,2.56-1.07,3.86-1.54c1.24-0.44,2.23,0.17,2.24,1.47
		c0.05,4.57,0.03,9.14-0.01,13.72c0,0.41-0.23,0.99-0.55,1.2c-2.66,1.72-5.21,3.83-8.58,3.84c-1.76,0.01-3.57-0.28-5.28-0.75
		c-1.85-0.5-3.61-0.67-5.44-0.05c-1.6,0.55-3.22,1.06-4.83,1.59c-2.43,0.8-3.11,0.32-3.11-2.19C68.53,26.68,68.53,24.42,68.53,22.16
		z M82.41,26.59c0-3.83-0.07-7.36,0.04-10.89c0.04-1.24-0.53-1.59-1.53-1.84c-2.05-0.5-3.94,0.04-5.86,0.69
		c-3.4,1.16-3.41,1.13-3.42,4.74c0,2.75,0,5.49,0,8.46C75.25,26.74,78.56,25.17,82.41,26.59z"/>
	<path class="st1" d="M3.68,22.27c0-2.36,0.03-4.73-0.01-7.09c-0.02-1.2,0.43-1.91,1.62-2.25c1.43-0.4,2.84-0.9,4.23-1.43
		c3.28-1.26,6.49-1.22,9.73,0.2c2.13,0.93,4.32,0.68,6.45-0.18c1.14-0.46,2.28-0.95,3.43-1.37c1.34-0.48,2.32,0.1,2.34,1.49
		c0.05,4.52,0.05,9.04,0,13.56c-0.01,0.49-0.32,1.21-0.7,1.42c-2.33,1.26-4.62,2.82-7.13,3.46c-1.95,0.5-4.27,0.05-6.32-0.43
		c-2.07-0.48-4.01-0.73-6.03,0c-1.74,0.62-3.5,1.18-5.27,1.72c-1.45,0.44-2.3-0.17-2.32-1.7C3.66,27.2,3.68,24.74,3.68,22.27z
		 M6.91,15.32c0,4.39,0,8.34,0,12.36c0.34-0.06,0.55-0.07,0.73-0.14c3.93-1.58,7.8-1.96,11.97-0.46c3,1.08,5.76-0.42,8.4-2.54
		C20.92,21.45,14.06,18.45,6.91,15.32z"/>
	<path class="st1" d="M37.81,67.07c0.99,0,1.9,0,2.9,0c0,0.96,0,1.86,0,2.9c-0.92,0-1.85,0-2.9,0
		C37.81,69.05,37.81,68.15,37.81,67.07z"/>
	<path class="st1" d="M42.42,76.17c0-0.99,0-1.89,0-2.9c0.95,0,1.85,0,2.89,0c0,0.92,0,1.85,0,2.9
		C44.42,76.17,43.52,76.17,42.42,76.17z"/>
	<path class="st1" d="M59.25,93.34c0,0.97,0,1.87,0,2.88c-0.94,0-1.84,0-2.88,0c0-0.9,0-1.84,0-2.88
		C57.26,93.34,58.15,93.34,59.25,93.34z"/>
</g>
</svg>
