<?xml version="1.0" encoding="utf-8"?>
<!-- Generator: Adobe Illustrator 26.5.0, SVG Export Plug-In . SVG Version: 6.00 Build 0)  -->
<svg version="1.1" id="Layer_1" xmlns="http://www.w3.org/2000/svg" xmlns:xlink="http://www.w3.org/1999/xlink" x="0px" y="0px"
	 viewBox="0 0 60 60" style="enable-background:new 0 0 60 60;" xml:space="preserve">
<style type="text/css">
	.st0{fill:#045787;}
</style>
<g>
	<g>
		<path class="st0" d="M56.33,31.19c0.11,2.73-0.2,5.43-0.8,8.09c-0.89,3.97-2.29,7.73-4.75,11.03c-1.89,2.54-4.29,4.45-7.21,5.71
			c-1.93,0.84-3.91,1.5-5.96,1.91c-2.28,0.45-4.6,0.72-6.93,0.49c-2.3-0.23-4.53-0.76-6.48-2.12c-1.59-1.1-2.69-2.57-3.48-4.31
			c-0.72-1.57-1.51-3.1-2.93-4.18c-1.11-0.85-2.35-1.15-3.74-0.99c-1.65,0.19-2.97,1.02-4.28,1.94c-0.86,0.6-1.83,1.08-2.79,1.5
			c-1.07,0.47-2.48-0.19-2.89-1.36c-0.28-0.8-0.4-1.66-0.53-2.5c-0.07-0.48,0.02-0.98-0.03-1.46c-0.14-1.29,0.48-2.2,1.34-3.06
			c1.52-1.5,3.4-2.33,5.35-3.06c1.36-0.51,2.77-0.88,4.21-0.86c1.24,0.02,2.49,0.22,3.71,0.49c1.36,0.3,2.68,0.81,4.03,1.15
			c2.13,0.53,3.95-0.12,5.38-1.71c2.39-2.64,3.4-5.78,2.94-9.32c-0.28-2.2-1.12-4.25-2-6.28c-1.19-2.75-2.46-5.48-3.48-8.3
			c-0.66-1.81-0.98-3.75-1.34-5.66c-0.26-1.39-0.36-2.82-0.49-4.24c-0.07-0.77,0.27-1.2,0.9-1.22c0.57-0.02,1.06,0.45,1.1,1.15
			c0.25,4.5,1.23,8.83,3.08,12.95c0.98,2.19,1.97,4.39,2.89,6.61c1.05,2.55,1.64,5.22,1.34,8c-0.23,2.1-0.96,4.05-2.12,5.84
			c-1.03,1.59-2.28,2.92-4.04,3.69c-1.35,0.6-2.77,0.83-4.22,0.48c-1.47-0.36-2.91-0.79-4.36-1.22c-2.03-0.6-4.07-0.61-6.09,0.02
			c-1.63,0.51-3.21,1.14-4.6,2.15c-0.69,0.5-1.47,1-1.57,1.96c-0.12,1.13-0.15,2.28,0.24,3.39c0.17,0.5,0.53,0.59,0.93,0.36
			c0.9-0.52,1.83-1.01,2.66-1.63c1.64-1.23,3.48-1.84,5.48-1.87c2.49-0.03,4.5,1.12,5.91,3.12c0.86,1.22,1.51,2.6,2.21,3.94
			c1.22,2.35,3.23,3.58,5.72,4.2c2.85,0.71,5.71,0.5,8.53-0.07c3.15-0.63,6.16-1.69,8.78-3.62c2-1.47,3.48-3.37,4.68-5.52
			c1.12-2,1.9-4.13,2.51-6.33c0.98-3.5,1.37-7.06,1.17-10.67c-0.1-1.92-0.42-3.83-0.68-5.73c-0.26-1.87-0.89-3.62-1.73-5.3
			c-1.2-2.4-2.7-4.57-4.95-6.13c-1.67-1.16-3.49-1.89-5.56-1.77c-1.91,0.11-3.64,0.81-5.22,1.87c-0.3,0.2-0.58,0.41-0.87,0.61
			c-0.58,0.41-1.31,0.22-1.57-0.45c-0.7-1.83-1.3-3.7-1.5-5.67c-0.15-1.43-0.26-2.87-0.34-4.31c-0.02-0.34,0.06-0.73,0.23-1.01
			c0.19-0.32,0.57-0.51,0.97-0.38c0.44,0.15,0.71,0.47,0.75,0.95c0.05,0.84,0.1,1.68,0.13,2.53c0.07,1.88,0.53,3.7,1.05,5.49
			c0.11,0.37,0.28,0.43,0.66,0.2c2.22-1.34,4.61-2.06,7.22-1.77c2.48,0.28,4.58,1.42,6.45,3.02c1.84,1.57,3.15,3.54,4.24,5.66
			c1.19,2.31,1.94,4.77,2.26,7.35c0.26,2.06,0.44,4.13,0.66,6.19C56.44,31.18,56.39,31.18,56.33,31.19z"/>
		<path class="st0" d="M41.58,32.01c-0.15,0.97-0.38,2.58-0.66,4.18c-0.14,0.79-0.32,1.58-0.56,2.34c-0.22,0.73,0.07,1.36,0.26,2.01
			c0.36,1.23,0.78,2.45,1.14,3.69c0.14,0.46,0.27,0.96-0.1,1.39c-0.28,0.32-0.66,0.44-1.07,0.29c-0.63-0.23-1.25-0.49-1.87-0.75
			c-1.5-0.62-2.99-1.26-4.49-1.88c-0.4-0.17-0.73-0.36-0.8-0.84c-0.08-0.53,0.21-0.86,0.6-1.11c1.24-0.8,2.48-1.6,3.73-2.39
			c0.35-0.22,0.55-0.47,0.67-0.89c0.57-2.01,0.96-4.05,1.05-6.12c0.12-2.74-0.63-5.21-2.45-7.31c-1.46-1.68-2.96-3.33-4.35-5.07
			c-1.57-1.95-2.6-4.2-3.41-6.57c-1.07-3.16-1.54-6.43-1.85-9.73c-0.05-0.58,0.38-1.15,0.93-1.22c0.45-0.06,0.95,0.35,1.04,0.91
			c0.15,1.06,0.27,2.12,0.4,3.18c0.68,5.47,2.51,10.43,6.35,14.53c1.19,1.27,2.34,2.58,3.4,3.96
			C41.06,26.58,41.52,28.91,41.58,32.01z M38.59,40.75c-0.72,0.47-1.32,0.87-2.05,1.35c1.02,0.42,1.85,0.75,2.83,1.15
			C39.08,42.33,38.85,41.58,38.59,40.75z"/>
		<path class="st0" d="M33.63,49.53c0.08-0.22,0.13-0.46,0.24-0.67c0.52-0.99,1.05-1.97,1.58-2.95c0.28-0.52,0.85-0.7,1.38-0.45
			c0.49,0.23,0.69,0.8,0.41,1.32c-0.58,1.1-1.17,2.2-1.78,3.29c-0.22,0.39-0.58,0.59-1.04,0.46C33.96,50.38,33.63,50.1,33.63,49.53z
			"/>
		<path class="st0" d="M34.68,44.4c-0.19,0.37-0.28,0.65-0.46,0.84c-0.77,0.84-1.55,1.68-2.35,2.49c-0.51,0.51-0.98,0.52-1.43,0.1
			c-0.42-0.39-0.43-0.97,0-1.45c0.77-0.85,1.55-1.67,2.34-2.5c0.3-0.31,0.69-0.57,1.1-0.34C34.2,43.73,34.41,44.1,34.68,44.4z"/>
		<path class="st0" d="M40.61,47.4c-0.16,0.57-0.36,1.29-0.57,2c-0.13,0.43-0.28,0.85-0.41,1.28c-0.19,0.61-0.71,0.88-1.32,0.69
			c-0.54-0.17-0.79-0.73-0.6-1.33c0.31-1,0.62-2,0.92-2.99c0.16-0.53,0.66-0.91,1.11-0.83C40.26,46.31,40.6,46.72,40.61,47.4z"/>
	</g>
</g>
</svg>
