<?xml version="1.0" encoding="utf-8"?>
<!-- Generator: Adobe Illustrator 26.5.0, SVG Export Plug-In . SVG Version: 6.00 Build 0)  -->
<svg version="1.1" id="Layer_1" xmlns="http://www.w3.org/2000/svg" xmlns:xlink="http://www.w3.org/1999/xlink" x="0px" y="0px"
	 viewBox="0 0 60 60" style="enable-background:new 0 0 60 60;" xml:space="preserve">
<style type="text/css">
	.st0{fill:#045787;}
</style>
<g>
	<path class="st0" d="M225.38-272.35c2.72-1.32,5.01-2.38,7.27-3.53c2.34-1.2,3.69-0.34,5.02,1.76c2.4,3.8,4.85,7.6,7.72,11.04
		c2.92,3.51,6.22,3.56,9.15,0.13c2.91-3.4,5.43-7.17,7.84-10.96c1.8-2.82,2.79-3.23,5.65-1.65c2.03,1.12,4.22,1.96,6.72,3.1
		c0,3.64-0.04,7.63,0.02,11.62c0.03,2.18-1.49,1.81-2.78,1.81C263.54-259,255.1-259,246.67-259c-6.28,0-12.55-0.06-18.83,0.03
		c-1.87,0.03-2.56-0.57-2.5-2.47C225.46-265.14,225.38-268.84,225.38-272.35z"/>
	<path class="st0" d="M260.56-308.07c-0.45,1.96-0.88,3.82-1.32,5.75c-6.1,0-12.03,0-18.27,0c-0.45-1.76-0.91-3.59-1.46-5.75
		C246.51-308.07,253.36-308.07,260.56-308.07z"/>
	<path class="st0" d="M256.99-300.21c0,1.42,0.02,2.72-0.01,4.02c-0.02,0.79-0.12,1.58-0.2,2.52c-4.51,0-8.84,0-13.41,0
		c0-2.17,0-4.25,0-6.54C247.8-300.21,252.23-300.21,256.99-300.21z"/>
	<path class="st0" d="M260.38-273.35c-1.64,2.29-3.2,4.64-4.98,6.82c-0.38,0.46-1.56,0.35-2.37,0.34c-1.79-0.02-3.73-0.61-5.32-0.09
		c-1.83,0.61-2.88,0.35-3.87-1.1c-1.36-1.99-2.71-3.99-4.12-6.05c1.66-1.26,2.53-1.56,3.85,0.04c3.64,4.41,9.19,4.27,13.07,0.06
		c0.66-0.71,1.89-0.89,2.85-1.31C259.8-274.22,260.09-273.79,260.38-273.35z"/>
	<path class="st0" d="M249.43-275.68c-0.04-1.74,0.08-3.51-0.18-5.22c-0.21-1.37-1.06-2.63-1.29-4c-0.35-2.07-0.4-4.18-0.6-6.53
		c1.84,0,3.31,0,5.16,0c-0.46,2.54,0.84,4.88-1.29,7.65c-1.37,1.79-0.45,5.34-0.55,8.1C250.27-275.68,249.85-275.68,249.43-275.68z"
		/>
	<path class="st0" d="M249.43-275.68c0.42,0,0.84,0,1.26,0c1.48,0.08,2.97,0.16,4.61,0.25c-2.38,4.45-7.27,4.57-10.85,0.06
		C246.35-275.49,247.89-275.59,249.43-275.68z"/>
	<path class="st0" d="M237.68-279.1c-2.39-2.04-4.77-4.08-7.16-6.11c0.36-0.42,0.73-0.85,1.09-1.27c2.39,2.04,4.78,4.08,7.17,6.12
		C238.41-279.95,238.04-279.53,237.68-279.1z"/>
	<path class="st0" d="M269.61-285.26c-2.37,2.05-4.74,4.1-7.41,6.4c-0.08-2.53,2.94-5.58,6.57-7.24
		C269.06-285.82,269.34-285.54,269.61-285.26z"/>
	<path class="st0" d="M244.34-280.98c-3.01-1.36-4.83-5.51-3.85-8.76C241.88-286.58,242.97-284.11,244.34-280.98z"/>
	<path class="st0" d="M259.36-289c1.11,2.68-0.63,6.57-3.3,7.38C257.16-284.08,258.26-286.54,259.36-289z"/>
	<path class="st0" d="M247.16-264.59c2.02,0,3.8,0,6.05,0C250.67-261.78,249.09-261.83,247.16-264.59z"/>
</g>
<g>
	<path class="st0" d="M244.64-238.1c1.38,2.31,2.32,4.63,3.91,6.35c1.74,1.88,3.97,2.71,6.23,0.16c1.02-1.14,2.51-1.97,3.93-2.63
		c3.42-1.58,5.41-0.98,8.61,2.53c0.09-0.87,0.16-1.49,0.22-2.08c7.85,2.29,12.14,13.47,8.67,22.99
		c-4.16,11.41-17.16,17.73-27.16,13.2c0.4-0.34,0.79-0.68,1.33-1.15c-2.72-0.48-5.19-0.86-7.63-1.35c-1.71-0.34-3.38-0.98-5.11-1.19
		c-1.1-0.14-2.26,0.26-3.39,0.42c0.49,0.95,0.82,2.05,1.5,2.83c1.97,2.24,4.12,4.33,6.13,6.54c0.29,0.32,0.2,1,0.31,1.64
		c-2.41,0.39-4.52,0.87-6-1.89c-0.63-1.19-2.29-1.82-3.47-2.72c-3.8-2.9-4.74-6.59-2.64-10.29c2.17-3.81,6.54-5.35,10.7-3.47
		c2.04,0.93,3.67,1.09,5.89,0.26c2.59-0.97,5.45-1.01,8.35,0.01c1.66,0.58,3.79-0.15,5.7-0.29c-0.53-1.94-0.47-4.44-1.7-5.71
		c-2.52-2.61-5.59-4.64-6.59-8.46c-0.11-0.44-1.21-0.71-1.9-0.89c-5.62-1.48-8.68-5.27-10.16-10.72c-0.59-2.18-0.44-3.51,2.16-3.67
		C243.38-237.73,244.19-238.01,244.64-238.1z"/>
	<path class="st0" d="M244.65-221.53c4.99,4.31,12.56,4.83,15.21,11.74c-0.15,0.38-0.31,0.76-0.46,1.15
		c-1.73-0.37-3.56-0.48-5.16-1.16c-2.03-0.86-3.77-2.41-5.81-3.24C244.69-214.57,243.75-217.27,244.65-221.53z"/>
	<path class="st0" d="M242.44-218.74c-3.66-2.11-7.36-4.14-10.93-6.39c-0.62-0.39-0.67-1.69-0.98-2.58c0.85-0.1,1.9-0.56,2.53-0.23
		c3,1.56,6.02,3.16,8.76,5.11c0.93,0.66,1.08,2.4,1.59,3.65C243.09-219.03,242.77-218.89,242.44-218.74z"/>
</g>
<path class="st0" d="M261.17-144.69c-4.18,0.67-8.2,2.23-11.96,1.74c-7.54-0.98-9.64-7.59-11.84-13.68
	c-0.25-0.69-0.28-1.47-0.4-2.21c-0.62-3.65,0.64-5.27,4.28-5.49c0.94-0.06,1.89-0.01,2.94-0.01c0.35-1.46,0.35-3.01,1.06-4.08
	c1.06-1.59,2.38-3.38,4.02-4.11c3.14-1.39,6.59-2.08,10.39-3.21c-1.36-1.92-2.67-3.35-3.45-5.03c-0.61-1.3-0.57-2.91-0.81-4.38
	c1.58,0.16,3.16,0.32,5.23,0.52c0.49-0.74,0.38-3.52,3.68-2.62c-0.32,4.2-0.84,8.63,4.34,10.04c3.36,0,6.65-0.19,9.9,0.1
	c1.1,0.1,2.67,1.19,3.02,2.18c0.59,1.65,0.47,3.46-1.55,4.7c-3.02,1.87-6.12,3.78-8.63,6.24c-1.43,1.4-1.76,3.91-2.62,6
	c9.38,2.79,13.3,7.42,14.07,15.83c0.29,3.18-0.81,4.5-4.02,4.79c-3.76,0.34-5.68-1.1-6.16-4.05c-0.31-1.88-1.32-3.65-2.01-5.47
	c-0.26,0.13-0.52,0.27-0.78,0.4c-0.44,2.18-0.49,4.58-1.52,6.43c-0.45,0.81-2.94,0.68-4.5,0.62
	C259.44-139.54,261.8-143.19,261.17-144.69z M271.09-169.84c-1.06,0.54-2.08,1.15-3.18,1.6c-1.87,0.77-3.79,1.43-5.69,2.16
	c-1.18,0.45-2.32,1.2-3.53,1.35c-4.43,0.54-6.06,3.99-7.81,7.28c-0.62,1.17-0.84,2.55-1.37,4.22c1.46,0.3,3.01,0.62,4.56,0.94
	c0.08-0.39,0.17-0.79,0.25-1.18c-1.09-0.3-2.19-0.6-3.28-0.89c0.03-0.25,0.06-0.49,0.09-0.74c2.39,0.32,4.77,0.64,7.16,0.96
	c0.07-0.29,0.14-0.59,0.21-0.88c-1.17-0.59-2.33-1.18-3.5-1.77c0.08-0.2,0.15-0.39,0.23-0.59c1.48,0.33,2.97,0.66,3.54,0.79
	c2.06-1.99,3.6-4.77,5.28-4.85c4.44-0.23,6.12-3.38,8.37-5.77C271.91-168.24,271.5-169.04,271.09-169.84
	c1.96,0.7,3.93,3.37,5.74,0.38C275.04-172.97,273.06-170.5,271.09-169.84z M246.12-167.73c0.03,0.5,0.07,0.99,0.1,1.49
	c1.75,0,3.57,0.29,5.25-0.06c3.76-0.79,7.94-0.82,10.45-4.56c0.16-0.23,0.61-0.49,0.82-0.43c3.56,1.12,6.18-1.6,9.28-2.32
	c1.4-0.32,2.62-1.45,3.93-2.21c-1.46-0.6-2.62-0.58-3.73-0.35c-2.17,0.45-4.42,1.69-6.46,1.4c-6.22-0.89-11.34,2.79-17.12,3.57
	c-0.51,0.07-0.91,0.9-1.32,1.33c1.36,0.57,2.51,1.06,4.32,1.82C249.23-167.91,247.68-167.82,246.12-167.73z M272.09-171.13
	c-0.08-0.25-0.17-0.5-0.25-0.76c-0.19-0.07-0.39-0.21-0.58-0.21c-0.31,0-0.71,0-0.93,0.17c-3.44,2.74-8.88,1.03-11.71,5.27
	c-0.33,0.5-1.58,0.44-2.41,0.57c-3.45,0.53-6.91,1.04-10.36,1.55c-0.04,0.14-0.07,0.27-0.11,0.41c1.34,0.31,2.67,0.62,4.08,0.95
	c-0.79,2.85-1.52,5.5-2.26,8.16c0.27,0.06,0.55,0.11,0.82,0.17c1.36-2.45,2.37-5.18,4.14-7.29c3.72-4.44,9.52-5.21,14.52-7.35
	C268.67-170.18,270.41-170.59,272.09-171.13z M267.87-140.79c0-6.69,0-13.39,0-20.29C266.47-159.17,266.11-144.5,267.87-140.79z"/>
<g>
	<path class="st0" d="M260.27-77.82c-1.85-3.18-3.6-6.19-5.34-9.2c-3.22-5.56-4.91-5.94-9.74-2.22c-0.2-13.93,11.08-23.7,26.05-22.3
		c-2.2,7.04-0.98,13.49,3.26,19.47c0.41,0.58,0.06,2.04-0.4,2.82C270.95-83.9,266.43-80.12,260.27-77.82z"/>
	<path class="st0" d="M291.66-108.48c-0.07,8.16-4.74,14.15-12.62,15.91c-0.98,0.22-2.67-0.25-3.22-1
		c-3.61-4.88-4.88-10.31-3.2-16.3c0.51-1.83,1.43-2.58,3.41-2.7c3.45-0.21,6.93-0.61,10.31-1.33c4.14-0.89,5.14-0.34,5.33,3.8
		C291.68-109.57,291.66-109.03,291.66-108.48z"/>
	<path class="st0" d="M249.5-72.52c-2.07,0-4.15,0.08-6.21-0.02c-2.68-0.13-3.88-1.85-2.66-4.17c2.07-3.94,4.33-7.79,6.7-11.57
		c1.35-2.16,3.55-2.05,4.91,0.18c2.21,3.62,4.35,7.29,6.4,11c1.48,2.69,0.46,4.44-2.58,4.56C253.86-72.45,251.68-72.52,249.5-72.52z
		"/>
	<path class="st0" d="M273.88-70.72c-2.22,0-3.92,0-5.37,0c-0.78-2.54-1.5-4.89-2.28-7.43c4.27-3.96,9.15-8.49,14.03-13.02
		c0.34,0.35,0.68,0.69,1.02,1.04c-1.77,1.64-3.37,3.54-5.36,4.83c-1.47,0.95-2.16,1.76-2.09,3.54
		C273.98-78.21,273.88-74.63,273.88-70.72z"/>
	<path class="st0" d="M263.36-112.83c0-2.31,0.18-4.6-0.05-6.85c-0.29-2.84,0.91-3.52,3.54-3.42c2.03,0.08,3.14,0.54,2.88,2.75
		c-0.04,0.32,0,0.65,0,0.98C269.63-112.49,270.67-113.8,263.36-112.83z"/>
</g>
<path class="st0" d="M294.51,0.66c-7.29,0-14.09,0-20.8,0c-1.83-5.44,0.68-9.1,5.15-12.31c-0.86-0.88-1.47-1.5-2.6-2.66
	c-1.52,2.01-2.74,3.6-4.15,5.46c-1.57-1.96-2.82-3.51-4.17-5.19c-1.23,1.08-1.86,1.64-2.81,2.47c4.11,3.1,6.86,6.68,4.97,12.18
	c-6.71,0-13.58,0-20.86,0c0.71-10.07-1.83-20.25,3.59-29.76c2.64-4.63,2.49-8.81,1.13-18.06c11.93,0,23.83,0,35.41,0
	c0,4.42-0.22,8.79,0.09,13.11c0.15,2.11,1.07,4.27,2.06,6.2c2.06,4.02,3.02,8.22,2.98,12.71C294.47-9.98,294.51-4.77,294.51,0.66z
	 M274.68-18.16c3.79,1.45,2.72-1.75,3.59-3.02c0.75,0.26,1.5,0.53,2.42,0.85c0.54-3.28,1.03-6.28,1.51-9.22
	c-4.3-1.41-2.23,2.78-3.82,3.58c-0.64-0.25-1.29-0.51-2.04-0.8C275.76-23.76,275.23-21.03,274.68-18.16z M265.1-25.69
	c-0.22-1.26-0.21-2.31-0.63-3.15c-0.25-0.51-1.15-0.91-1.78-0.95c-0.32-0.02-1.05,0.94-0.98,1.36c0.41,2.72,1,5.42,1.55,8.24
	c0.97-0.44,1.63-0.74,2.32-1.06c0.89,3.85,0.89,3.85,3.52,2.8c-0.56-2.75-1.12-5.54-1.72-8.52
	C266.57-26.51,266.07-26.23,265.1-25.69z M259.22-16.15c0.88-3.11-1.04-2.84-2.79-2.83c-2.24,0.01-2,1.27-1.58,2.83
	C256.34-16.15,257.71-16.15,259.22-16.15z M284.34-16.21c1.52,0,2.96,0,4.34,0c0.8-2.48-0.42-2.8-2.37-2.81
	C284.15-19.03,283.79-18.1,284.34-16.21z M260.65-10.39c-1.44,1.05-2.62,1.9-3.96,2.88c1.08,0.89,1.67,1.37,2.01,1.64
	c1.17-1.03,2.18-1.92,3.51-3.08C261.5-9.6,260.93-10.12,260.65-10.39z M286.94-7.25c-1.39-1.48-2.26-2.41-3.41-3.63
	c-0.85,0.78-1.49,1.37-1.88,1.73c1.16,1.53,2,2.63,2.97,3.91C285.6-6.09,286.17-6.59,286.94-7.25z"/>
<g>
	<g>
		<path class="st0" d="M246.98-405.99c0.37-0.4,0.7-0.86,1.12-1.2c6.3-5.12,7.77-11.08,4.41-18.54c-1.29-2.86-2.6-5.67-2.44-8.92
			c0.19-3.87,1.42-7.38,3.51-10.77c0.57,0.24,1.1,0.47,1.67,0.71c-0.71,1.57-1.49,3.03-2.06,4.57c-1.62,4.43-0.6,8.35,2.88,11.52
			c1.08,0.98,2.27,1.87,3.23,2.95c3.33,3.76,4.25,8.25,3.09,13c-1.49,6.14-5,11.04-10.56,14.12c-6.1,3.39-12.28,2.3-18.3-0.48
			c-3.51-1.62-6.59-3.87-9.34-6.6c-0.43-0.43-1.17-0.54-1.77-0.8c-0.22,0.62-0.65,1.24-0.63,1.85c0.06,2.4,1.06,4.48,2.57,6.32
			c0.37,0.45,0.76,0.89,1.35,1.59c-2.33,0-4.37,0.02-6.4-0.02c-0.26,0-0.57-0.22-0.75-0.44c-3.74-4.58-4.64-11.38-0.51-16.11
			c2.54-2.91,6.29-3.75,9.91-2.3c0.7,0.28,1.38,0.63,2.04,0.99c3.61,2,6.48,1.46,9.04-1.79c2.73-3.46,3.99-7.54,4.68-11.81
			c0.6-3.67,0.77-7.43,1.62-11.03c0.62-2.6,2.02-5.02,3.16-7.48c0.16-0.34,0.83-0.45,1.5-0.78c-1.11,3-2.24,5.49-2.94,8.09
			c-1.23,4.58-0.79,9.06,1.29,13.39c0.86,1.8,1.61,3.72,2.01,5.67c0.9,4.37-1.18,7.58-4.46,10.2c-0.28,0.22-0.57,0.42-0.86,0.62
			c-0.93,0.61-1.55,1.38-1.02,2.52c0.52,1.12,1.46,1.26,2.55,0.87c0.12-0.04,0.29,0.03,0.44,0.04c0.89,1.97,2.39,3.68,3.69,3.75
			c-1.07-1.4-1.98-2.61-2.94-3.78C247.68-406.17,247.26-406.02,246.98-405.99z M241.96-413.77c-0.22,0.16-0.44,0.32-0.65,0.48
			c0.88,1.4,1.75,2.79,3.02,3.89c0.19-0.14,0.37-0.28,0.56-0.42C243.91-411.13,242.94-412.45,241.96-413.77z M244.22-405.77
			c-0.16-0.21-0.33-0.42-0.49-0.63c-1.28,0.81-2.67,1.47-3.62,2.72c0.13,0.18,0.26,0.35,0.39,0.53
			C241.74-404.02,242.98-404.9,244.22-405.77z"/>
		<path class="st0" d="M247.74-408.09c-1.15-0.78-1.2-1.36-0.24-2.2c3.93-3.42,4.97-7.64,3.2-12.53c-0.38-1.04-0.75-2.09-1.25-3.07
			c-3.7-7.16-2.19-13.91,1.53-20.68c0.57,0.23,1.06,0.43,1.6,0.65c-0.74,1.68-1.52,3.24-2.12,4.86c-1.81,4.9-1.81,9.71,0.63,14.46
			c1.53,2.98,2.48,6.14,2.1,9.58C252.76-413.21,250.64-410.47,247.74-408.09z"/>
	</g>
	<path class="st0" d="M246.57-406.99c-0.53-0.05-1.06-0.1-1.58-0.15c0.08-0.43,0.17-0.87,0.25-1.3c0.53,0.21,1.06,0.42,1.58,0.62
		C246.74-407.54,246.66-407.27,246.57-406.99z"/>
</g>
<g>
	<path class="st0" d="M221.11-348.63c-1.87-1.13-1.95-2.04,0.52-5.21c-2.47-2.17-2.43-3.33,0.18-6.03
		c-2.72-1.49-2.71-2.83-0.83-4.67c-0.19-2.29-0.96-4.28-0.29-5.17c1-1.32,3-1.94,4.68-2.6c0.18-0.07,1.03,1.56,1.72,2.64
		c1.77-1.28,4.26-3.85,5.58,1.49c2.47-3.45,3.79-1.73,4.82,0.66c0.76-0.91,1.78-2.51,2.05-2.4c1.25,0.54,2.28,1.56,3.42,2.43
		c0.55-0.65,1.24-2.2,2.12-2.31c1.09-0.14,2.32,0.92,3.47,1.45c0.96-3.8,2.32-4.15,5.7-1.21c1.15-2.44,3.12-2.76,5.4-1.96
		c2.54,0.9,3.6,2.88,3.19,5.43c-0.17,1.06-1.09,2.01-2.07,3.71c0.95,1.79,0.95,4.33-1.88,6.27c3.2,1.89,2.89,3.9-0.26,5.71
		c0.64,1.78,1.25,3.49,2.12,5.92c-3.39-1.35-5.7-2.27-8.14-3.24c-0.51-3.3,1.98-2.45,4.05-2.25c-3.65-3.9-3.25-4.7-0.1-5.94
		c-2.75-2.24-2.91-4.21,0.46-6c0.67-0.36,0.92-1.52,0.78-2.66c-0.79,0.74-1.57,1.49-2.66,2.51c-0.45-1.09-0.78-1.88-0.98-2.37
		c-1.35,1.09-2.49,2.17-3.83,2.88c-0.2,0.11-1.35-1.58-2.15-2.56c-0.54,0.66-1.11,1.86-2.05,2.33c-0.57,0.29-1.71-0.54-2.34-0.37
		c-1.78,0.32-3.57,0.83-5.35,0.81c-0.41,0-0.8-1.85-1.15-2.72c-1.35,0.41-3.01,1.05-4.72,1.28c-0.33,0.04-0.88-1.58-1.39-2.57
		c-2.49,2.54-4.77,2.43-6.23-1.97c-0.28,0.39-0.56,0.79-0.84,1.18c1,1.51,2.01,3.01,3.18,4.77c-0.35,0.39-0.91,1.01-1.48,1.64
		c0.61,1.78,2.76,3.77-0.07,4.82c0.54,2.04,1.17,4.03,1.49,6.06c0.05,0.3-1.41,0.83-2.37,1.36c0.78,1.68,3.3,3.87,0.18,5.75
		c-0.94,0.57-3.79,0.04-3.87-0.36C220.78-343.99,221.06-346.03,221.11-348.63z"/>
	<path class="st0" d="M261.5-336.95c0.04,4.91-4,9.05-8.88,9.11c-4.77,0.05-9.06-4.14-9.12-8.93c-0.06-4.81,4.09-9.02,8.94-9.07
		C257.37-345.89,261.46-341.88,261.5-336.95z M245.03-336.79c6.36,0.74,2.61,3.29,2.23,6c2.34-2.59,4.17-3.35,5.46,0.74
		c1-5.28,3.27-2.04,5.72-1.22c-1.56-2.37-3.79-4.38,1.01-5.57c-5.08-1.11-2.4-3.34-1.25-5.74c-2.33,0.93-4.48,4.2-5.6-1.48
		c-1.06,5.27-3.34,2.86-5.98,1.54C247.96-340.11,250.69-338.14,245.03-336.79z"/>
	<path class="st0" d="M237.01-322.28c-1.23-3.47-2.26-5.84-2.86-8.32c-0.25-1.03,0.41-2.29,0.79-4.08
		c-1.69-0.99-2.87-3.31-1.38-5.98c0.74-1.33,2.52-2.07,3.82-3.08c0.4,0.64,0.8,1.27,0.94,1.51c1.77-0.62,3.54-1.24,5.8-2.04
		c-1.01,3.61-1.73,6.22-2.64,9.49c-1.32-1.44-2.5-2.73-3.83-4.17c-1.49,3.08,4.06,4.76,1.47,8.31
		C237.66-328.65,237.76-325.53,237.01-322.28z"/>
	<path class="st0" d="M256.7-336.71c-2.1,1.29-3.3,2.62-4.25,2.46c-1.02-0.17-1.81-1.74-2.69-2.7c0.96-0.87,1.86-2.35,2.89-2.45
		C253.6-339.5,254.7-338.12,256.7-336.71z"/>
</g>
<g>
	<path class="st0" d="M279.7,55.99c0.06,0.77,0.15,1.38,0.15,1.98c0.01,3.78,0.01,7.55,0.01,11.78c-3.84,0-7.47,0.05-11.1-0.06
		c-0.51-0.02-1.3-0.78-1.45-1.33c-1.53-5.74-2.96-11.5-4.4-17.26c-1.42-5.69-0.26-10.98,3.3-15.46c3.13-3.94,4.83-8.05,4.16-13.06
		c-0.35-2.65,0.85-3.47,3.45-3.38c5.15,0.17,10.32,0.13,15.48,0.01c2.19-0.05,3.23,0.75,2.93,2.92c-0.72,5.36,1.22,9.7,4.42,13.94
		c4.23,5.61,4.52,11.86,1.99,18.49c-1.51,3.96-2.34,8.23-3.07,12.43c-0.37,2.11-1.03,2.92-3.16,2.82c-3.04-0.14-6.09-0.03-9.4-0.03
		c0-4.62,0-9.08,0-13.76c1.25,0.35,2.51,0.91,3.79,0.97c0.7,0.03,1.44-0.78,2.16-1.21c-0.5-0.56-0.93-1.53-1.51-1.63
		c-3.33-0.54-4.53-2.6-4.77-5.71c-0.05-0.72-0.85-1.39-1.31-2.08c-0.5,0.65-1.38,1.27-1.43,1.94c-0.2,3.26-1.49,5.37-4.96,5.89
		c-0.51,0.08-0.87,1.15-1.3,1.76c0.67,0.37,1.36,1.1,2,1.05C276.97,56.91,278.24,56.39,279.7,55.99z M278.19,33.42
		c-0.53,0.41-1.23,0.69-1.23,0.99c-0.01,0.64,0.23,1.34,0.57,1.9c0.72,1.21,1.52,2.37,2.37,3.49c0.4,0.52,0.92,1.11,1.49,1.27
		c0.3,0.08,0.91-0.65,1.25-1.11c0.89-1.21,1.78-2.44,2.53-3.73c0.32-0.56,0.45-1.31,0.39-1.95c-0.02-0.23-1-0.69-1.26-0.54
		C282.22,34.87,280.19,35.4,278.19,33.42z"/>
	<path class="st0" d="M263.38,67.1c-1.91,0.89-3.42,1.69-5.01,2.28c-0.55,0.2-1.42,0.08-1.89-0.25c-0.28-0.2-0.27-1.16-0.07-1.65
		c0.63-1.58,1.4-3.09,2.3-5.02C263.43,61.27,264.47,62.3,263.38,67.1z"/>
	<path class="st0" d="M303.88,62.45c0.9,1.93,1.67,3.45,2.3,5.02c0.2,0.49,0.21,1.45-0.07,1.65c-0.48,0.33-1.35,0.46-1.89,0.25
		c-1.57-0.58-3.07-1.37-5.01-2.28C298.11,62.3,299.15,61.27,303.88,62.45z"/>
	<path class="st0" d="M298.95,31.77c0.15-1.45-0.51-3.73,2.57-2.58c0.48,0.18,1.31-0.77,2.04-1.02c0.78-0.26,1.64-0.31,2.47-0.46
		c-0.12,0.81-0.13,1.66-0.41,2.4c-0.27,0.73-1.35,1.55-1.18,1.99c1.08,2.76-0.65,2.75-2.49,2.84
		C299.72,35.07,298.43,34.34,298.95,31.77z"/>
	<path class="st0" d="M264.13,31.36c-0.24,2.31-0.65,3.72-3.05,3.6c-1.94-0.09-4.14,0.23-2.91-3.02c0.16-0.41-1-1.22-1.33-1.95
		c-0.29-0.65-0.26-1.44-0.38-2.17c0.75,0.01,1.51-0.08,2.23,0.06c1.16,0.23,2.42,0.41,3.39,1.02
		C262.94,29.43,263.46,30.52,264.13,31.36z"/>
</g>
<path class="st0" d="M277.07,146.39c-3.38,0-6.62,0.03-9.85-0.05c-0.33-0.01-0.8-0.64-0.94-1.07c-0.98-2.94-1.7-5.92-0.91-9.05
	c1.02-4.07-0.18-8-0.8-11.96c-0.77-4.92-1.66-9.82-2.5-14.72c-0.52-2.98-0.11-3.95,2.45-5.61c1.69-1.09,3.31-2.35,5.11-3.22
	c3.08-1.48,4.64-3.94,5.17-7.15c0.25-1.55,0.92-2.07,2.55-2.02c4.05,0.13,4.11,0.02,5.28,3.93c0.6,2.01,1.76,3.42,3.55,4.46
	c2.18,1.26,4.26,2.7,6.45,3.93c2.07,1.16,2.73,2.82,2.29,5.06c-1.17,5.92-2.25,11.87-3.51,17.77c-0.76,3.55-1.21,7.04-0.27,10.62
	c0.72,2.75,0.18,5.45-0.59,8.11c-0.11,0.38-0.59,0.91-0.91,0.92c-3.51,0.07-7.03,0.04-10.94,0.04c0-4.06,0-7.94,0-11.81
	c-0.16,0-0.32,0-0.48,0C277.83,138.46,277.45,142.34,277.07,146.39z M289.65,119.51c0.02,0.2,0.03,0.41,0.05,0.61
	c-0.69,0.14-1.39,0.22-2.05,0.43c-0.47,0.14-1.09,0.33-1.31,0.69c-1.63,2.69-3.87,4.34-7.05,4.74c-0.68,0.08-1.81,0.71-1.83,1.12
	c-0.08,1.78,0.15,3.58,0.33,5.37c0.02,0.23,0.4,0.59,0.62,0.59c0.24,0.01,0.62-0.28,0.7-0.52c0.38-1.14,0.68-2.31,1.1-3.81
	c1.12-0.48,2.53-1.35,4.07-1.67c3.08-0.64,6.38-4.68,6.25-7.98c-0.04-1.04-0.3-2.47-1-3c-1.15-0.87-2.64-1.19-4.15-0.06
	c-2.17,1.61-4.67,2.16-7.41,1.76c-1.02-0.15-2.28-0.21-2.92,1.14c-0.16,0.34-0.82,0.44-1.25,0.65c-0.1-0.11-0.21-0.22-0.31-0.33
	c0.25-0.7,0.49-1.41,0.77-2.2c-1.13-0.54-2.25-1.08-3.38-1.63c-0.95,1.83-1.5,1.95-3.73,0.88c-1.72,2.52-1.35,4.85,0.52,7.14
	c1.13,1.4,3.03,1.27,3.81-0.09c-0.75-1.61-1.43-3.06-2.24-4.8c0.77,0.04,1.02-0.02,1.19,0.07c2.21,1.19,4.46,2.12,7.05,2.28
	c3,0.18,5.81-0.19,8.42-1.69C287.28,118.39,288.44,119.03,289.65,119.51z"/>
<g>
	<path class="st0" d="M18.46,3.6c10.7,0,21.29,0,32.03,0c-0.21,1.96-0.39,3.85-0.6,5.74c-0.49,4.45-1.02,8.9-1.48,13.36
		c-0.17,1.65,0.44,3.1,1.34,4.47c1.97,2.99,3.29,6.25,3.89,9.79c0.95,5.68,0.07,11.1-2.37,16.29c-1.48,3.15-1.49,3.15-4.92,3.15
		c-2.85,0-5.7,0-8.69,0c-0.62-4.4-1.23-8.74-1.85-13.15c0.16,0.06,0.27,0.07,0.34,0.14c3.28,3.12,6.17,3.56,10.2,1.49
		c0.72-0.37,1.48-0.75,2.07-1.29c0.33-0.3,0.61-1.04,0.46-1.4c-0.28-0.66-0.9-0.43-1.44-0.11c-0.94,0.56-1.87,1.16-2.88,1.58
		c-3.03,1.26-5.59,0.52-7.52-2.13c-0.62-0.85-1.08-1.81-1.63-2.72c-0.62-1.04-1.25-1.02-1.89,0.01c-0.73,1.17-1.4,2.4-2.29,3.45
		c-1.76,2.09-4.06,2.47-6.53,1.51c-1.2-0.47-2.28-1.25-3.46-1.78c-0.33-0.15-0.96-0.02-1.21,0.23c-0.17,0.16-0.06,0.89,0.17,1.14
		c2.02,2.19,6.77,3.37,9.4,2.23c1.23-0.54,2.3-1.45,3.48-2.22c-0.34,2.47-0.69,4.98-1.04,7.5c-0.21,1.53-0.47,3.06-0.63,4.6
		c-0.07,0.65-0.25,0.94-0.95,0.93c-3.47-0.03-6.93,0.01-10.4-0.04c-0.38-0.01-0.93-0.35-1.12-0.69c-5.23-9.37-5.7-18.8,0.02-28.12
		c1.44-2.34,1.67-4.64,1.34-7.23c-0.69-5.37-1.25-10.76-1.86-16.14C18.4,4.02,18.44,3.86,18.46,3.6z M20.83,33.96
		c-0.01,2.75,2.02,4.82,4.73,4.82c2.62,0,4.74-2.08,4.78-4.7c0.05-2.63-2.14-4.83-4.79-4.84C22.93,29.24,20.84,31.32,20.83,33.96z
		 M39.05,28.43c1.01-0.66,1.84-1.11,2.53-1.71c0.27-0.23,0.23-0.81,0.33-1.23c-0.43-0.08-0.97-0.38-1.26-0.21
		c-1.66,0.95-3.27,1.98-4.86,3.04c-0.25,0.17-0.52,0.65-0.45,0.89c0.09,0.31,0.47,0.67,0.79,0.76c0.71,0.2,1.46,0.23,2.46,0.37
		c-0.87,0.55-1.58,0.88-2.14,1.39c-0.31,0.28-0.36,0.85-0.53,1.29c0.46,0.1,1.05,0.43,1.36,0.26c1.56-0.87,3.06-1.86,4.54-2.86
		c0.24-0.16,0.48-0.67,0.4-0.9c-0.1-0.31-0.49-0.65-0.82-0.74C40.74,28.59,40.04,28.56,39.05,28.43z M26.9,19.71
		c-0.07-0.06-0.15-0.11-0.22-0.17c0.33-0.77,0.74-1.51,0.95-2.31c0.11-0.41-0.17-0.92-0.27-1.39c-0.46,0.21-1.15,0.3-1.33,0.65
		c-0.8,1.59-1.49,3.25-2.14,4.91c-0.14,0.35-0.1,1.05,0.12,1.2c0.32,0.21,0.91,0.16,1.32,0.03c0.59-0.19,1.13-0.55,1.92-0.96
		c-0.4,0.94-0.82,1.62-0.95,2.35c-0.08,0.44,0.26,0.97,0.4,1.45c0.41-0.24,1.01-0.37,1.18-0.72c0.75-1.53,1.4-3.11,2.02-4.69
		c0.12-0.31,0.11-0.92-0.09-1.06c-0.29-0.22-0.84-0.28-1.2-0.16C28.02,19.03,27.48,19.41,26.9,19.71z"/>
	<path class="st0" d="M11.83,26.92c0.48,0.93,0.87,1.52,1.09,2.16c0.11,0.33,0.07,0.88-0.15,1.1c-0.21,0.22-0.78,0.3-1.08,0.18
		c-1.72-0.72-3.43-1.48-5.09-2.33c-0.33-0.17-0.41-0.81-0.61-1.24c0.46-0.13,0.97-0.44,1.36-0.34c0.84,0.22,1.61,0.67,2.7,1.15
		c-0.43-0.87-0.8-1.45-1-2.08c-0.11-0.36-0.08-0.91,0.13-1.18c0.17-0.21,0.78-0.27,1.09-0.15c1.61,0.67,3.21,1.37,4.75,2.18
		c0.32,0.17,0.38,0.83,0.57,1.26c-0.46,0.12-0.96,0.41-1.37,0.31C13.51,27.78,12.84,27.37,11.83,26.92z"/>
	<path class="st0" d="M28.46,34.06c-0.02,1.61-1.4,2.98-2.96,2.95c-1.57-0.04-2.96-1.46-2.94-3.01c0.02-1.58,1.42-2.93,3.01-2.92
		C27.2,31.09,28.48,32.41,28.46,34.06z"/>
</g>
<path class="st0" d="M-64.79-175.87c-3.9,2.49-7.62,2.23-11.08-0.67c-0.21-0.18-0.54-0.22-0.83-0.31c-0.11-0.03-0.24,0.01-0.36-0.01
	c-1.16-0.13-2.1,0.19-3.07,0.94c-2.98,2.3-6.71,2.32-9.88,0.26c-0.1-0.06-0.2-0.13-0.35-0.23c-0.53,0.7-1.06,1.38-1.64,2.14
	c3.62,2.59,7.43,2.88,11.5,1.31c0,3.38,0,6.72,0,10.1c-5.48,0-10.95,0-16.45,0c-0.02-0.07-0.07-0.16-0.07-0.25
	c0.03-3.49-0.06-6.98,0.14-10.46c0.4-6.97,1.8-13.77,4.05-20.38c1.64-4.84,2.8-9.77,2.71-14.98c8.35,0,16.68,0,25.17,0
	c0,1.04-0.07,2.1,0.01,3.14c0.28,3.87,1.18,7.62,2.42,11.28c1.57,4.61,2.78,9.32,3.53,14.13c0.9,5.77,0.92,11.58,0.83,17.4
	c0,0.02-0.02,0.04-0.06,0.12c-5.44,0-10.9,0-16.42,0c0-3.34,0-6.7,0-10.11c4.03,1.58,7.85,1.28,11.48-1.28
	C-63.74-174.48-64.26-175.16-64.79-175.87z M-76.31-190.8c0-4.47,0-8.88,0-13.3c-0.88,0-1.71,0-2.55,0c0,4.45,0,8.86,0,13.3
	C-78-190.8-77.19-190.8-76.31-190.8z M-83.55-185.42c0.89,0,1.75,0,2.59,0c0.54-3.19-2.2-5.9-5.11-5.45c0,0.85,0,1.7,0,2.55
	C-84.06-188.04-83.84-187.8-83.55-185.42z M-69.1-188.3c0-0.91,0-1.76,0-2.6c-3.05-0.39-5.73,2.53-5.06,5.52c0.73,0,1.47,0,2.21,0
	c0.11,0,0.23-0.02,0.33-0.04C-71.25-187.86-71.03-188.12-69.1-188.3z"/>
<path class="st0" d="M-54.31-152.93c0,1.22,0,2.41,0,3.7c-2-0.13-3.86-0.53-5.54-1.55c-1.34-0.81-1.98-0.88-3.2,0.1
	c-0.86,0.69-1.64,1.52-2.32,2.4c-0.73,0.95-0.87,2.03-0.55,3.26c0.75,2.89,1.07,5.86,0.53,8.83c-0.21,1.15-0.67,2.25-1.03,3.37
	c-1.07,3.33-1.8,6.73-1.63,10.24c0.07,1.54,0.46,3.08,0.8,4.6c0.21,0.91-0.05,1.41-0.98,1.49c-2.22,0.19-2.95-0.27-3.71-2.39
	c-0.77-2.14-0.81-4.36-0.43-6.56c0.53-3.03,1.23-6.03,1.84-9.05c0.62-3.07,0.91-6.15,0.11-9.25c-0.3-1.18-0.88-2.15-2.13-2.48
	c-1.31-0.35-2.43,0.09-3.39,0.99c-0.55,0.52-0.73,1.15-0.54,1.91c0.64,2.49,0.37,4.88-0.88,7.16c-0.67,1.23-1.34,2.46-1.94,3.73
	c-0.73,1.56-0.74,3.05-0.06,4.75c1.49,3.73,1.31,7.55-0.44,11.17c-1.39,2.88-4.49,4.02-8.05,3.39c-5.93-1.04-9.19-5.79-10.15-10.5
	c-0.92-4.52,0.19-8.69,2.52-12.55c3.13-5.2,7.28-9.37,12.85-11.96c3.41-1.58,6.93-2.36,10.69-1.3c1.14,0.32,1.73,0,2.33-1.11
	c0.74-1.35,1.62-2.57,2.95-3.38c0.45-0.27,0.94-0.56,1.44-0.66c2.93-0.57,4.36-2.55,4.99-5.26c0.14-0.6,0.35-0.8,0.93-0.76
	c0.59,0.04,1.18,0.02,1.76-0.01c0.5-0.03,0.76,0.15,0.67,0.67c-0.21,1.23-0.29,2.52-0.69,3.69c-0.66,1.91-0.17,2.9,1.84,3.17
	C-55.25-153-54.8-152.97-54.31-152.93z M-86.14-115.88c2.76,0.06,4.07-1.37,4.62-4.11c0.12-0.6-0.15-1.07-0.76-1.22
	c-0.65-0.16-1.07,0.17-1.27,0.8c-0.1,0.32-0.18,0.65-0.28,0.96c-0.45,1.31-0.99,1.72-2.37,1.62c-1.9-0.15-3.63-0.72-4.82-2.33
	c-0.51-0.69-0.95-1.44-1.38-2.19c-0.34-0.59-0.76-0.93-1.43-0.61c-0.61,0.3-0.72,0.84-0.43,1.42
	C-92.45-117.96-90.21-116.11-86.14-115.88z M-92.96-129.72c-0.04,1.13,0.19,2.15,0.91,3.01c0.98,1.16,2.38,1.19,3.42,0.08
	c1.35-1.44,1.36-4.38,0.03-5.82c-0.96-1.03-2.35-1.07-3.34-0.07C-92.71-131.74-93.01-130.77-92.96-129.72z M-87.27-137.83
	c-0.02,0.98,0.53,1.48,1.53,1.41c1.36-0.1,2.98-1.64,3.15-2.99c0.16-1.21-0.61-1.95-1.81-1.74
	C-85.83-140.91-87.24-139.29-87.27-137.83z"/>
<g>
	<path class="st0" d="M-89.81-63.52c-2.82-0.06-5.64-0.18-8.27-1.38c-1.89-0.86-3.25-2.22-3.47-4.32c-0.13-1.23,0.03-2.54,0.35-3.74
		c0.43-1.59,1.15-3.09,1.73-4.64c0.19-0.51,0.39-1.02,0.48-1.55c0.12-0.73-0.08-1.4-0.73-1.84c-0.64-0.43-1.38-0.49-1.97-0.05
		c-0.6,0.44-1.13,1.04-1.55,1.66c-0.36,0.54-0.62,0.67-1.15,0.29c-0.82-0.58-1.7-1.09-2.51-1.68c-0.19-0.14-0.41-0.57-0.33-0.73
		c1.27-2.63,2.99-4.81,6.07-5.37c2.41-0.44,4.34,0.49,5.93,2.28c0.5,0.56,0.99,1.13,1.56,1.61c1.4,1.19,3.26,1.32,4.73,0.25
		c2.95-2.16,4.51-5.14,4.72-8.77c0.09-1.53-0.54-2.8-1.89-3.69c-3.25-2.13-4.75-5.18-4.46-9.04c0.13-1.64,0.43-3.28,0.84-4.87
		c0.66-2.56,0.15-2.03,2.72-2.08c0.8-0.02,1.6-0.01,2.4,0c0.95,0,0.98,0.11,0.89,1.04c-0.19,1.77-0.31,3.54-0.43,5.32
		c-0.02,0.38,0.08,0.77,0.17,1.15c0.59,2.37,2.44,3.27,4.61,2.11c0.84-0.45,1.57-1.17,2.24-1.87c1.71-1.81,3.8-2.81,6.22-3.2
		c4.49-0.72,8.37,1.51,10,5.75c1.32,3.42,1.31,6.94,0.66,10.47c-1.49,8.04-5.16,14.91-11.35,20.32
		C-76.78-65.57-82.89-63.42-89.81-63.52z M-104.22-80.82c0.12-0.15,0.25-0.31,0.36-0.47c0.94-1.32,2.32-1.93,3.75-1.58
		c1.58,0.39,2.61,1.37,2.83,3.01c0.11,0.84,0.17,1.72,0.01,2.54c-0.37,1.92-0.92,3.82-1.33,5.73c-0.45,2.08,0.38,3.61,2.35,4.41
		c0.48,0.19,0.98,0.4,1.48,0.43c2.29,0.14,4.59,0.36,6.87,0.29c4.25-0.13,8.21-1.39,11.72-3.79c7.65-5.21,11.73-12.67,13.29-21.63
		c0.45-2.57,0.36-5.16-0.56-7.66c-1.35-3.69-4.54-5.25-8.25-3.98c-0.99,0.34-1.94,0.85-2.82,1.42c-1.04,0.67-1.96,1.52-2.97,2.24
		c-3.45,2.47-7.76,0.87-8.54-3.3c-0.31-1.65-0.11-3.39-0.14-5.09c0-0.36,0.26-0.86-0.41-0.84c-0.53,0.02-1.3-0.51-1.46,0.55
		c-0.18,1.17-0.46,2.34-0.57,3.52c-0.18,1.93-0.01,3.83,1.07,5.53c0.81,1.29,2.01,2.17,3.27,2.92c1.73,1.03,2.49,2.59,2.65,4.48
		c0.37,4.19-1.29,7.56-4.37,10.29c-2.57,2.27-6.83,2.75-9.76-0.44c-0.61-0.66-1.28-1.28-1.97-1.86c-1.68-1.4-3.68-1.46-5.41-0.13
		c-0.61,0.47-1.15,1.04-1.64,1.63C-105.64-81.53-105.58-81.4-104.22-80.82z"/>
	<path class="st0" d="M-95.14-79.46c1.75,1.21,3.8,1.45,5.97,1.11c1.39-0.22,2.59-0.86,3.72-1.64c0.38-0.26,0.75-0.56,1.14-0.8
		c0.77-0.47,1.45-0.66,2.3,0.05c0.53,0.44,1.46,0.67,2.17,0.6c2.41-0.23,4.8-0.63,7.21-0.96c0.82-0.11,1.63-0.26,2.46-0.31
		c0.32-0.02,0.76,0.1,0.95,0.32c0.12,0.14-0.06,0.64-0.23,0.89c-1.67,2.54-3.63,4.83-5.95,6.8c-5.3,4.52-11.48,5.88-18.25,5.07
		c-0.64-0.08-1.27-0.24-1.87-0.47c-1.24-0.46-1.61-1.12-1.36-2.41c0.19-0.96,0.52-1.89,0.72-2.85
		C-95.8-75.83-95.48-77.63-95.14-79.46z"/>
</g>
<g>
	<path class="st0" d="M-67.41-30.27c-6.56-6.97-16.13-6.17-21.69-1.21c-5.42,4.83-7.38,13.61-1.9,21.06
		c-0.8-0.19-1.49-0.32-2.15-0.52c-2.38-0.76-4.54-1.93-6.43-3.57c-0.24-0.21-0.36-0.6-0.47-0.93c-0.09-0.31-0.02-0.67-0.14-0.96
		c-0.09-0.22-0.37-0.35-0.57-0.52c-0.09,0.22-0.31,0.48-0.26,0.67c0.25,0.94,0.1,1.84-0.25,2.71c-0.43,1.09-1.2,1.88-2.25,2.41
		c-0.3,0.15-0.76,0.26-0.52,0.71c0.08,0.14,0.57,0.09,0.87,0.07c0.18-0.02,0.35-0.16,0.39-0.18c0.34,0.81,0.8,1.56,0.95,2.36
		c0.21,1.13,0.24,2.31,0.22,3.47c-0.01,0.24-0.59,0.65-0.91,0.67c-1.82,0.07-3.65,0.04-5.48,0.03c-0.67,0-1.01-0.39-1.01-1.05
		c0-1.44-0.16-2.88,0.86-4.15c0.48-0.59,0.08-2.11-0.5-2.64c-1.96-1.78-2.31-5.77,1-7.25c1.45-0.65,3-1.07,4.53-1.51
		c6.57-1.89,9.71-7.96,9.24-13.66c-0.29-3.41-1.71-6.35-4.27-8.65c-1.11-1-1.65-2.13-1.58-3.62c0.06-1.45,0.01-2.9,0.02-4.35
		c0.01-0.82,0.32-1.12,1.13-1.14c0.22-0.01,0.45,0,0.68,0c0.91,0.01,1.22,0.31,1.23,1.2c0.01,0.68-0.01,1.35,0.01,2.03
		c0.06,1.91,0.87,3.39,2.61,4.22c1.72,0.81,3.33,0.5,4.82-0.68c7.93-6.23,19.03-2.84,22.04,6.72C-66.42-36-66.49-32.5-67.41-30.27z"
		/>
	<path class="st0" d="M-64.39-19.95c-0.02,8.03-6.56,14.51-14.56,14.48c-8.15-0.03-14.58-6.8-14.48-14.74
		c0.1-7.94,6.62-14.31,14.76-14.28C-70.82-34.45-64.37-27.88-64.39-19.95z M-89.9-16.34c0.09,3.76,3.27,6.96,7.02,6.91
		c0.96-0.01,1.94-0.17,2.89-0.37c0.72-0.15,1.13-0.02,1.35,0.71c0.13,0.43,0.35,0.82,0.55,1.23c0.55,1.12,1.77,1.6,2.82,1.12
		c1.06-0.49,1.52-1.72,1.03-2.86c-0.27-0.64-0.57-1.27-0.88-1.9c-0.95-1.94-2.99-2.94-5.11-2.54c-0.78,0.15-1.57,0.29-2.36,0.39
		c-1.89,0.24-3.46-1.61-2.88-3.42c0.36-1.11,0.78-2.21,1.14-3.32c0.4-1.21-0.13-2.36-1.23-2.75c-1.15-0.41-2.31,0.15-2.76,1.38
		c-0.42,1.14-0.84,2.29-1.2,3.46C-89.7-17.67-89.77-17-89.9-16.34z M-71.8-17.09c0,0.7,0,1.4,0,2.1c0.01,1.34,0.84,2.26,2.05,2.28
		c1.24,0.02,2.14-0.92,2.15-2.27c0.01-1.42-0.05-2.85,0.01-4.27c0.12-2.42-1.53-4.76-4.25-4.97c-0.55-0.04-0.72-0.27-0.71-0.8
		c0.03-1.37,0.01-2.75,0.01-4.12c0-1.34-0.83-2.28-2.02-2.31c-1.19-0.03-2.11,0.89-2.14,2.22c-0.04,1.52-0.05,3.05,0,4.57
		c0.09,2.61,1.7,4.3,4.31,4.57c0.46,0.05,0.59,0.26,0.59,0.67C-71.81-18.64-71.8-17.86-71.8-17.09z M-83.28-27.5
		c-0.13,0.57-0.22,0.96-0.31,1.34c-0.59,2.54-0.05,3.86,2.09,5.19c0.16,0.1,0.28,0.43,0.24,0.63c-0.13,0.84-0.31,1.66-0.5,2.49
		c-0.25,1.13,0.3,2.05,1.41,2.32c0.97,0.24,1.98-0.45,2.21-1.51c0.21-0.95,0.43-1.89,0.59-2.85c0.26-1.57-0.08-3.07-1.48-3.88
		c-1.14-0.65-1.15-1.34-0.77-2.33c0.03-0.09,0.03-0.2,0.06-0.29c0.54-2.52-1.31-4.82-3.88-4.77c-0.87,0.02-1.73,0.2-2.6,0.27
		c-1.35,0.11-2.1,0.94-1.95,2.2c0.13,1.05,1.14,1.67,2.36,1.49C-85.02-27.32-84.23-27.39-83.28-27.5z"/>
	<path class="st0" d="M-81.92-12.86c0,0.84,0,1.63,0,2.42c-2.67,0.68-5.74-1.15-6.7-3.98c-0.41-1.22-0.44-2.45-0.04-3.67
		c0.36-1.11,0.75-2.22,1.15-3.31c0.31-0.84,0.97-1.19,1.69-0.92c0.67,0.25,0.95,0.91,0.68,1.74c-0.41,1.25-0.94,2.47-1.22,3.75
		c-0.48,2.2,1.58,4.31,3.81,4.01C-82.37-12.85-82.18-12.85-81.92-12.86z"/>
	<path class="st0" d="M-81.12-12.97c2.74-0.71,4.6,0.04,5.55,2.52c0.16,0.42,0.39,0.81,0.55,1.22c0.28,0.71-0.01,1.43-0.65,1.7
		c-0.61,0.25-1.29-0.02-1.63-0.68c-0.29-0.58-0.54-1.18-0.81-1.76c-0.29-0.62-0.76-0.88-1.46-0.75c-0.43,0.08-0.88,0.11-1.38,0.17
		C-81.01-11.36-81.06-12.15-81.12-12.97z"/>
	<path class="st0" d="M-68.5-16.64c-0.83,0-1.57,0-2.41,0c0-0.89,0-1.75,0-2.62c-0.01-1.16-0.39-1.57-1.53-1.68
		c-1.96-0.19-3.39-1.73-3.41-3.7c-0.01-1.47-0.01-2.95,0-4.42c0-0.91,0.47-1.49,1.2-1.52c0.77-0.03,1.26,0.54,1.27,1.51
		c0.01,1.35,0,2.7,0.01,4.05c0.01,1.23,0.31,1.55,1.51,1.65c1.75,0.13,3.26,1.62,3.35,3.36C-68.45-18.92-68.5-17.82-68.5-16.64z"/>
	<path class="st0" d="M-70.88-15.68c0.8,0,1.54,0,2.33,0c0.11,0.67,0.25,1.39-0.4,1.81c-0.33,0.22-0.94,0.3-1.3,0.15
		C-71.1-14.07-70.91-14.89-70.88-15.68z"/>
	<path class="st0" d="M-78.69-18.97c-0.59-0.11-1.18-0.23-1.83-0.35c0.06-0.48,0.13-0.9,0.17-1.31c0.06-0.51-0.18-0.84-0.63-1.08
		c-1.79-0.96-2.28-2.09-1.8-4.08c0.09-0.36,0.15-0.73,0.23-1.1c0.2-0.86-0.31-1.5-1.19-1.44c-0.79,0.06-1.58,0.19-2.38,0.29
		c-0.59,0.07-1.13-0.15-1.19-0.74c-0.04-0.35,0.28-0.78,0.53-1.1c0.12-0.15,0.46-0.13,0.71-0.15c0.82-0.1,1.63-0.24,2.45-0.26
		c1.99-0.05,3.43,1.7,3.05,3.64c-0.11,0.56-0.27,1.11-0.37,1.68c-0.11,0.58,0,1.07,0.59,1.39C-78.36-22.52-77.92-21.28-78.69-18.97z
		"/>
	<path class="st0" d="M-80.73-18.47c0.63,0.12,1.22,0.24,1.87,0.37c-0.05,0.66-0.03,1.33-0.7,1.61c-0.28,0.12-0.77,0.06-1.02-0.12
		C-81.24-17.1-80.88-17.76-80.73-18.47z"/>
</g>
<g>
	<path class="st0" d="M-85.9,0.9c1.64,0.47,3.23,0.93,4.87,1.4c-0.17,0.91-0.35,1.74-0.47,2.59c-0.39,2.68,0.22,5.11,1.96,7.2
		c1.3,1.56,3.12,1.75,4.99,1.63c0.64-0.04,1.28-0.2,1.92-0.29c3.92-0.57,6.84,1.12,9.12,4.13c2.36,3.11,3.07,6.71,2.83,10.5
		c-0.62,9.81-8.9,17.87-18.52,19.45c-4.31,0.71-8.43,0.04-12.27-2.12c-2.22-1.25-3.84-3.08-5.18-5.21
		c-0.91-1.44-1.74-2.94-2.78-4.27c-2.32-2.95-5.16-2.51-6.44,1.01c-1.22,3.34-0.23,6.31,2.13,8.78c1.31,1.37,2.91,2.46,4.49,3.77
		c-0.69,1.29-1.46,2.75-2.32,4.36c-1-0.64-1.98-1.21-2.89-1.87c-3.28-2.41-5.8-5.4-6.7-9.47c-0.85-3.81-0.24-7.37,2.24-10.49
		c2.78-3.5,7.07-4.21,10.82-1.8c1.78,1.14,3.6,2.23,5.75,2.42c5.46,0.47,12.01-2.31,11.72-10.36c-0.07-2.05-1.08-3.77-2.12-5.46
		c-1.32-2.13-2.65-4.25-3.35-6.69C-86.98,7.05-86.81,4.02-85.9,0.9z M-63.91,28.1c0.03-4.86-1.06-7.57-3.24-9.67
		c-2.65-2.56-6.84-2.25-9.05-0.88c-1.26,0.79-1.77,1.95-1.53,3.38c0.47,2.74,0.38,5.42-0.98,7.92c-2,3.69-5.29,5.6-9.26,6.44
		c-1.26,0.27-2.57,0.31-3.86,0.39c-1.63,0.1-2.32,0.92-1.75,2.44c0.37,0.98,0.95,1.97,1.67,2.73c2.67,2.79,6.11,3.76,9.86,3.67
		c4.08-0.1,7.73-1.55,10.93-4.04C-66.71,37.02-64.07,32.6-63.91,28.1z"/>
	<path class="st0" d="M-66.52,33.28c-2.91,5.23-7.15,8.6-12.99,9.79c-3.1,0.64-6.16,0.37-9.02-1.12c-1.62-0.84-3.02-1.95-3.8-3.67
		c-0.53-1.18-0.36-1.43,0.89-1.46c4.01-0.08,7.67-1.19,10.79-3.79c0.54-0.45,1.07-0.46,1.61-0.09c0.47,0.33,0.85,0.22,1.37,0.03
		c0.49-0.18,1.14-0.18,1.63-0.01c0.5,0.18,0.85,0.22,1.37,0.02c0.48-0.19,1.14-0.19,1.63-0.02c0.5,0.17,0.85,0.21,1.38,0.03
		c0.52-0.18,1.15-0.03,1.73-0.02c0.4,0.01,0.87,0.17,1.17,0.01C-67.96,32.54-67.29,32.63-66.52,33.28z M-80.66,35.85
		c-0.65,0.12-1.11,0.5-1.09,1.22c0.02,0.72,0.49,1.11,1.2,1.13c0.62,0.01,1.22-0.61,1.14-1.2C-79.49,36.33-79.89,35.9-80.66,35.85z
		 M-73.42,35.37c0,0.15,0.01,0.29,0.01,0.44c0.38,0.27,0.73,0.71,1.13,0.76c0.61,0.08,1.05-0.38,1.02-1.03
		c-0.02-0.63-0.42-1.1-1.07-0.96C-72.73,34.66-73.06,35.09-73.42,35.37z M-76.72,40.91c0.37-0.59,0.78-0.96,0.72-1.21
		c-0.09-0.34-0.54-0.58-0.83-0.87c-0.27,0.29-0.76,0.57-0.76,0.87C-77.6,40.02-77.16,40.34-76.72,40.91z M-84.66,39.71
		c-0.52-0.35-0.81-0.69-1.1-0.69c-0.25,0-0.73,0.46-0.7,0.61c0.07,0.32,0.4,0.75,0.68,0.8C-85.52,40.47-85.19,40.07-84.66,39.71z"/>
	<path class="st0" d="M-71.81,22.95c-0.02,0.79-0.71,1.44-1.52,1.44c-0.8,0-1.5-0.68-1.51-1.46c0-0.78,0.8-1.55,1.58-1.52
		C-72.5,21.45-71.79,22.2-71.81,22.95z"/>
	<path class="st0" d="M-69.76,26.23c0.68-0.01,1.19,0.52,1.19,1.23c0,0.75-0.41,1.12-1.12,1.18c-0.69,0.05-1.26-0.48-1.27-1.16
		C-70.98,26.85-70.4,26.24-69.76,26.23z"/>
	<path class="st0" d="M-73.38,29.26c-0.02,0.78-0.46,1.18-1.11,1.16c-0.6-0.02-1.03-0.43-1.01-1.1c0.01-0.7,0.4-1.1,1.11-1.07
		C-73.73,28.27-73.39,28.65-73.38,29.26z"/>
</g>
<g>
	<path class="st0" d="M-70.17,76.05c1.71-0.83,2.79-1.95,3.01-3.69c0.04-0.32-0.19-0.67-0.3-1.01c-0.2,0.27-0.53,0.51-0.59,0.8
		c-0.42,1.95-1.73,3.13-3.68,3.09c-0.77-0.02-1.01,0.15-1.03,0.95c-0.05,2.79-2.27,4.25-4.95,3.27c-0.62-0.23-0.95-0.17-1.13,0.49
		c-0.72,2.76-4.21,3.45-6.01,1.53c-0.16-0.17-0.83-0.13-1,0.05c-2.51,2.59-4.78,2.31-6.48-0.85c-0.07-0.13-0.19-0.24-0.35-0.45
		c-0.31,0.17-0.6,0.33-0.89,0.49c-2.14,1.16-4.45,0.29-5.18-2.03c-0.24-0.78-0.52-1.04-1.38-0.95c-2.38,0.24-4.06-1.44-3.9-3.84
		c0.05-0.71-0.05-1.05-0.84-1.19c-0.67-0.12-1.27-0.55-1.92-0.8c-0.25-0.1-0.55-0.07-0.83-0.1c0.1,0.29,0.11,0.71,0.31,0.85
		c0.67,0.45,1.41,0.8,2.25,1.26c-0.04,1.93,0.8,3.51,2.68,4.54c0.18,0.1,0.2,1.1-0.03,1.28c-1.73,1.37-0.85,2.56-0.1,4.07
		c1.19,2.39,1,4.94-0.25,7.34c-0.52,1-1.26,1.85-2.5,1.88c-1.3,0.03-2.11-0.82-2.62-1.88c-1.43-2.96-1.39-5.91,0.48-8.68
		c0.48-0.71,0.37-1-0.23-1.5c-1.75-1.43-1.9-3.57-0.35-5.24c0.52-0.56,0.53-0.87,0.02-1.44c-1.38-1.5-1.45-3.17-0.18-4.76
		c0.48-0.6,0.39-0.95-0.05-1.49c-1.08-1.35-1.11-2.92-0.19-4.23c0.86-1.23,2.36-1.77,3.82-1.37c1.5,0.41,2.48,1.72,2.59,3.39
		c0.03,0.44,0.22,0.87,0.33,1.31c0.22,0.89,0.58,1.77,0.61,2.66c0.03,0.66,0.16,0.9,0.79,0.98c1.65,0.21,2.66,1.16,3.15,2.75
		c0.09,0.31,0.56,0.75,0.79,0.72c2.17-0.32,3.53,0.61,4.33,2.55c0.06,0.13,0.2,0.23,0.38,0.44c2.02-1.54,3.97-1.43,5.7,0.5
		c0.25-0.19,0.43-0.28,0.54-0.42c1.53-1.84,2.44-2.14,4.68-1.4c0.63,0.21,0.87,0,1.03-0.54c0.56-1.82,1.84-2.64,3.7-2.6
		c0.59,0.01,0.81-0.18,0.85-0.8c0.15-2.5,1.27-3.58,3.69-3.8c0.37-0.03,0.91-0.45,1.02-0.8c0.51-1.6,1.55-2.51,3.2-2.66
		c1.45-0.14,2.83,0.66,3.42,2c0.67,1.52,0.39,2.91-0.82,4.06c-0.49,0.47-0.4,0.78,0.03,1.26c1.67,1.82,1.54,3.8-0.37,5.39
		c-0.63,0.52-0.6,0.83-0.03,1.38c1.47,1.41,1.59,2.82,0.62,4.66c-0.18,0.35-0.18,0.99,0.02,1.32c1.52,2.56,1.18,4.97-0.99,6.96
		c-0.33,0.31-0.59,0.81-0.67,1.26c-0.7,3.74-4.59,5.47-7.86,3.49c-0.39-0.24-1.04-0.35-1.45-0.2c-2.08,0.74-3.92,0.43-5.57-1.03
		c-0.69-0.61-2.6-0.34-3.13,0.45c-0.07,0.1-0.08,0.24-0.17,0.31c-1.46,1.11-1.29,2.51-0.98,4.12c0.34,1.75-0.05,3.51-0.99,5.08
		c-1.39,2.32-3.63,2.35-4.93-0.03c-1.49-2.73-1.39-5.53-0.03-8.32c0.26-0.54,0.43-1.23,0.36-1.81c-0.25-1.87,0.74-3.47,2.56-4.1
		c0.52-0.18,1.08-0.56,1.39-1.01c1.01-1.49,2.53-2.11,4.27-1.49c0.66,0.24,1.03,0.14,1.52-0.35c1.76-1.77,4.03-2.1,6.22-0.87
		c0.91,0.52,1.24,0.3,1.41-0.64c0.24-1.3,0.96-2.32,2.06-3.01c0.64-0.4,0.78-0.81,0.62-1.54c-0.28-1.28,0.13-2.45,1.16-3.24
		c0.81-0.63,1.07-1.06,0.09-1.73C-69.67,76.87-69.84,76.49-70.17,76.05z"/>
	<path class="st0" d="M-64.57,103.95c-0.11,0.11-0.23,0.35-0.35,0.35c-0.2,0-0.49-0.11-0.57-0.26c-0.71-1.38-1.4-2.77-2.04-4.18
		c-0.08-0.17,0.12-0.46,0.19-0.7c0.22,0.1,0.54,0.15,0.63,0.32c0.69,1.34,1.34,2.71,2,4.07C-64.66,103.66-64.64,103.77-64.57,103.95
		z"/>
	<path class="st0" d="M-60.28,99.88c-0.39,0.12-0.69,0.33-0.87,0.25c-1.43-0.6-2.85-1.24-4.25-1.91c-0.14-0.07-0.26-0.43-0.2-0.57
		c0.06-0.14,0.42-0.3,0.55-0.24c1.43,0.6,2.85,1.24,4.26,1.88C-60.63,99.36-60.54,99.56-60.28,99.88z"/>
	<path class="st0" d="M-69.32,100.15c-0.38,1.57-0.69,2.94-1.07,4.28c-0.07,0.25-0.44,0.41-0.67,0.61c-0.09-0.27-0.3-0.57-0.25-0.81
		c0.31-1.37,0.66-2.72,1.04-4.07c0.07-0.23,0.38-0.39,0.58-0.58C-69.54,99.81-69.39,100.04-69.32,100.15z"/>
</g>
<g>
	<path class="st0" d="M-75.67,152.71c-2.53,1.95-5.09,2.02-7.77,0.19c0,0.97,0,1.86,0,2.76c0,0.76-0.01,1.53,0,2.29
		c0,0.42-0.09,0.75-0.58,0.79c-0.42,0.03-0.71-0.28-0.71-0.81c-0.01-1.63,0-3.26,0-4.9c0-0.19,0-0.38,0-0.63
		c-0.3,0.05-0.54,0.1-0.78,0.12c-0.41,0.02-0.76-0.1-0.81-0.57c-0.05-0.45,0.2-0.66,0.65-0.73c1.07-0.17,1.47-0.59,1.66-1.69
		c0.07-0.42,0.29-0.66,0.71-0.62c0.42,0.05,0.63,0.35,0.58,0.75c-0.05,0.4-0.13,0.82-0.32,1.17c-0.19,0.35-0.07,0.53,0.16,0.76
		c1.78,1.76,4.69,1.77,6.47,0c0.68-0.67,0.79-0.65,1.51,0.01c1.4,1.31,3.03,1.67,4.82,1c1.69-0.64,2.69-1.91,2.93-3.73
		c0.2-1.51-0.29-2.79-1.36-3.86c-0.54-0.54-0.55-0.8-0.02-1.32c1.9-1.87,1.92-4.73,0.04-6.61c-0.58-0.59-0.58-0.8,0.01-1.4
		c1.55-1.56,1.84-3.97,0.71-5.59c-0.8,0.6-1.55,1.28-2.4,1.79c-3.27,1.97-7.56,1.53-10.34-1.1c-0.59-0.56-1.23-0.68-1.92-0.68
		c-1.24,0.01-2.49,0.01-3.7,0.19c-2.03,0.32-3.84-0.02-5.43-1.4c-1.99,1.63-4.17,1.98-6.67,0.91c1.02,2.45,0.74,4.62-0.9,6.56
		c2.04,2.68,2.03,5.34,0,8.01c0.89,1.04,1.43,2.23,1.5,3.61c0.01,0.24,0,0.55-0.14,0.7c-0.15,0.16-0.49,0.28-0.69,0.22
		c-0.19-0.06-0.39-0.34-0.45-0.56c-0.15-0.54-0.12-1.15-0.35-1.65c-0.29-0.63-0.74-1.2-1.17-1.74c-0.37-0.46-0.41-0.78,0-1.19
		c2.03-2.05,2.03-4.74-0.01-6.79c-0.36-0.37-0.42-0.75-0.08-1.06c1.93-1.77,1.81-3.85,0.95-6.05c-0.09-0.23-0.2-0.45-0.3-0.66
		c-0.47,0.09-0.91,0.21-1.36,0.27c-0.4,0.05-0.7-0.15-0.74-0.58c-0.05-0.46,0.23-0.67,0.66-0.73c1.02-0.13,1.43-0.54,1.61-1.58
		c0.09-0.5,0.38-0.79,0.75-0.71c0.48,0.1,0.6,0.44,0.54,0.89c-0.03,0.19-0.01,0.42-0.1,0.57c-0.31,0.54-0.01,0.79,0.4,1.05
		c1.88,1.22,4.24,0.97,5.84-0.63c0.57-0.57,0.77-0.56,1.35,0c1.04,1.02,2.27,1.51,3.7,1.36c-0.2-0.58-0.43-1.11-0.56-1.67
		c-0.12-0.52,0.12-0.87,0.54-0.93c0.42-0.06,0.66,0.18,0.75,0.75c0.16,1.01,0.8,1.55,1.83,1.53c0.77-0.01,1.54,0,2.41,0
		c-1.26-2.32-1.57-4.68-0.8-7.25c-0.63,0.43-0.99,0.12-1.38-0.27c-1.76-1.77-4.62-1.76-6.41-0.01c-0.71,0.69-0.8,0.69-1.5,0.01
		c-1.82-1.78-4.71-1.76-6.51,0.03c-0.55,0.55-0.81,0.54-1.36-0.02c-1.81-1.86-4.69-1.91-6.54-0.11c-1.81,1.77-1.84,4.75-0.08,6.57
		c0.65,0.67,0.65,0.81,0,1.47c-1.74,1.78-1.73,4.65,0.03,6.42c0.68,0.68,0.67,0.81-0.01,1.51c-1.5,1.53-1.75,3.81-0.64,5.63
		c0.04,0.07,0.11,0.13,0.17,0.21c0.16-0.2,0.3-0.39,0.45-0.56c0.27-0.3,0.6-0.41,0.94-0.14c0.35,0.29,0.32,0.66,0.04,0.98
		c-0.43,0.5-0.56,1.06-0.36,1.68c0.08,0.23,0.24,0.43,0.38,0.63c0.25,0.36,0.28,0.71-0.07,0.99c-0.33,0.26-0.67,0.15-0.94-0.16
		c-0.17-0.2-0.32-0.41-0.48-0.63c-1.92,2.61-0.26,6.5,2.96,7.06c0.78,0.13,1.51,0.05,2.25-0.15c0.8-0.22,1.09,0,1.09,0.83
		c0,0.43-0.01,0.85,0.01,1.28c0.03,0.57,0.49,1.01,1.04,1.01c0.54,0,0.97-0.4,0.99-0.97c0.03-1.03,0.01-2.06,0.02-3.09
		c0-0.18-0.05-0.4,0.04-0.52c0.16-0.22,0.41-0.55,0.6-0.54c0.24,0.02,0.64,0.34,0.64,0.54c0.04,1.38,0.07,2.77-0.06,4.14
		c-0.11,1.09-1.28,1.82-2.45,1.73c-1.08-0.08-2.03-1.04-2.09-2.13c-0.02-0.26,0-0.53,0-0.84c-2.73,0.35-4.95-0.48-6.32-2.87
		c-1.37-2.39-1.02-4.73,0.69-6.91c-2-2.64-2.02-5.3-0.01-7.97c-2.12-2.62-1.85-5.67-0.01-7.92c-1.08-1.33-1.62-2.85-1.45-4.57
		c0.14-1.49,0.78-2.75,1.88-3.77c1.94-1.8,5.24-2.35,8-0.02c2.63-1.96,5.26-1.97,7.92,0.03c2.63-2,5.3-2.01,7.91-0.03
		c0.62-0.35,1.22-0.68,1.81-1.03c0.16-0.1,0.3-0.25,0.42-0.39c2.29-2.66,5.2-3.75,8.62-3.04c3.44,0.71,5.71,2.89,6.71,6.27
		c0.66,2.21,0.38,4.39-0.68,6.44c-0.16,0.32-0.18,0.54,0.02,0.86c1.39,2.19,1.28,4.73-0.28,6.81c-0.17,0.22-0.3,0.37-0.06,0.67
		c1.77,2.33,1.75,5.09-0.03,7.41c-0.05,0.07-0.1,0.14-0.18,0.25c1.25,1.47,1.75,3.16,1.41,5.08c-0.23,1.32-0.89,2.42-1.89,3.31
		C-69.88,154.59-73.14,154.84-75.67,152.71z M-74.62,116.74c-4.17,0.01-7.54,3.37-7.54,7.53c0,4.17,3.39,7.52,7.6,7.52
		c4.12-0.01,7.49-3.39,7.49-7.53C-67.07,120.11-70.46,116.74-74.62,116.74z"/>
	<path class="st0" d="M-76.97,143.04c-1.06-2.46-0.73-4.63,0.89-6.62c-0.22-0.31-0.44-0.6-0.64-0.92c-0.23-0.36-0.22-0.73,0.17-0.98
		c0.37-0.23,0.66-0.08,0.91,0.25c0.29,0.38,0.6,0.74,0.92,1.1c0.33,0.37,0.35,0.73-0.03,1.07c-2.05,1.82-2.05,5.06,0,6.87
		c0.27,0.24,0.39,0.58,0.17,0.85c-0.16,0.19-0.53,0.37-0.75,0.32c-0.6-0.13-1.17-0.38-1.76-0.58c-1-0.34-1.99-0.77-3.09-0.63
		c-1.18,0.15-2.16,0.66-2.93,1.56c-0.34,0.39-0.67,0.52-1.14,0.2c-2.03-1.4-4.79,0.04-4.79,2.7c0,3.12,0,6.24,0,9.36
		c0,0.19,0,0.39-0.02,0.58c-0.03,0.35-0.23,0.56-0.58,0.57c-0.37,0.01-0.6-0.18-0.68-0.54c-0.02-0.1-0.02-0.21-0.02-0.32
		c0-3.25-0.02-6.49,0.01-9.74c0.02-2.24,1.53-4.04,3.65-4.39c0.84-0.14,1.65-0.05,2.45,0.3c0.16,0.07,0.47,0.05,0.59-0.05
		c1.71-1.47,3.62-1.92,5.79-1.22C-77.6,142.86-77.33,142.93-76.97,143.04z"/>
	<path class="st0" d="M-70.78,123.03c0.32-0.05,0.56-0.1,0.8-0.14c0.42-0.07,0.71,0.09,0.79,0.51c0.08,0.42-0.13,0.67-0.55,0.76
		c-0.29,0.06-0.58,0.12-0.88,0.19c0.97,1.88,0.28,3.42-0.66,4.18c-1.24,1-2.67,0.94-4.3-0.24c-0.12,0.28-0.22,0.56-0.35,0.83
		c-0.16,0.34-0.44,0.54-0.82,0.39c-0.39-0.15-0.52-0.46-0.38-0.86c0.09-0.26,0.2-0.52,0.31-0.81c-0.4-0.08-0.76-0.12-1.11-0.22
		c-1.4-0.43-2.26-1.77-2.15-3.28c0.1-1.36,1.2-2.57,2.59-2.78c0.4-0.06,0.62-0.19,0.77-0.6c0.49-1.38,2.21-2.25,3.58-1.89
		c1.6,0.42,2.6,1.85,2.42,3.46C-70.72,122.67-70.75,122.82-70.78,123.03z M-78.73,124.64c0,1.28,1.32,2.13,2.51,1.61
		c0.73-0.33,0.99-0.22,1.33,0.5c0.12,0.26,0.32,0.5,0.53,0.72c0.16,0.17,0.4,0.4,0.61,0.08c0.16-0.23,0.47-0.47,0.09-0.81
		c-0.34-0.31-0.34-0.73,0.02-1.02c0.29-0.23,0.26-0.42,0.13-0.67c-0.11-0.2-0.22-0.42-0.37-0.57c-0.38-0.37-0.47-0.75-0.22-1.24
		c0.08-0.17,0.1-0.5-0.01-0.61c-0.4-0.42-0.39-0.76-0.05-1.22c0.1-0.14-0.06-0.5-0.17-0.72c-0.03-0.06-0.41-0.05-0.47,0.04
		c-0.3,0.42-0.66,0.84-0.79,1.32c-0.23,0.85-0.21,0.91-1.1,0.84C-77.85,122.8-78.73,123.57-78.73,124.64z"/>
	<path class="st0" d="M-78.29,120.52c-0.37-0.06-0.61-0.25-0.6-0.66c0-0.41,0.25-0.62,0.64-0.62c0.39,0.01,0.64,0.26,0.63,0.64
		C-77.64,120.26-77.89,120.48-78.29,120.52z"/>
	<path class="st0" d="M-76.29,124.65c0,0.38-0.33,0.72-0.7,0.72c-0.37-0.01-0.73-0.36-0.69-0.73c0.04-0.4,0.26-0.66,0.68-0.68
		C-76.61,123.94-76.29,124.26-76.29,124.65z"/>
</g>
<g>
	<path class="st0" d="M-67.39,188.02c0,5.51,0,10.94,0,16.42c-0.98,0-1.94,0-2.94,0c-0.18-0.8-0.61-1.4-1.53-1.44
		c-0.75-0.03-1.22,0.42-1.57,1.47c-2.94,0-5.89,0-8.9,0c-0.2-0.82-0.63-1.48-1.58-1.46c-0.91,0.02-1.36,0.63-1.52,1.47
		c-3,0-5.95,0-8.92,0c-0.19-0.84-0.62-1.44-1.54-1.47c-0.75-0.03-1.22,0.42-1.57,1.47c-2.94,0-5.89,0-8.9,0
		c-0.2-0.82-0.63-1.48-1.59-1.46c-0.92,0.01-1.34,0.65-1.52,1.46c-0.98,0-1.93,0-2.91,0c0-5.48,0-10.92,0-16.43
		c4.3,0,8.62,0,13.02,0c-0.27,0.33-0.52,0.61-0.81,0.95c0.36,0.31,0.7,0.6,1.04,0.89c0.05,0.07,0.1,0.14,0.15,0.22
		c0.5-0.58,0.98-1.19,1.52-1.72c0.22-0.21,0.6-0.38,0.9-0.38c9.51-0.02,19.02-0.02,28.54-0.01C-67.82,187.97-67.6,188-67.39,188.02z
		 M-104.92,193.97c0-1.64-1.37-3-3.01-3c-1.64,0-3,1.37-3,3.01c0,1.64,1.37,3,3.01,3C-106.28,196.97-104.92,195.61-104.92,193.97z
		 M-92.91,193.97c0-1.64-1.37-3-3.01-3c-1.65,0.01-3,1.36-3,3.01c0,1.64,1.37,3,3.01,3C-94.26,196.97-92.91,195.61-92.91,193.97z
		 M-80.89,193.98c0-1.64-1.36-3.01-3-3.01c-1.65,0-3.01,1.35-3.01,3c-0.01,1.64,1.36,3.01,3,3.01
		C-82.26,196.98-80.9,195.62-80.89,193.98z M-71.9,190.97c-1.65,0.02-2.99,1.38-2.98,3.03c0.01,1.64,1.39,3,3.03,2.98
		c1.64-0.01,2.99-1.39,2.98-3.03C-68.89,192.31-70.26,190.96-71.9,190.97z M-89.88,197.73c-1.22-0.02-2.25,0.99-2.28,2.21
		c-0.02,1.22,0.97,2.26,2.19,2.3c1.24,0.04,2.31-1,2.31-2.24C-87.65,198.77-88.65,197.75-89.88,197.73z M-75.64,199.98
		c0-1.22-1.01-2.23-2.24-2.25c-1.22-0.01-2.25,1-2.26,2.22c-0.02,1.25,1.03,2.3,2.27,2.28C-76.65,202.22-75.63,201.19-75.64,199.98z
		 M-101.96,202.13c1.26,0.02,2.26-0.93,2.29-2.16c0.03-1.25-1-2.31-2.25-2.31c-1.22,0-2.24,1.01-2.25,2.23
		C-104.18,201.12-103.21,202.11-101.96,202.13z"/>
	<path class="st0" d="M-91.54,178.09c-0.18-0.2-0.36-0.4-0.55-0.62c0.71-0.67,1.39-1.32,2.18-2.07c0.49,0.59,1.04,1.23,1.61,1.92
		c0.47-0.47,0.8-0.8,1.27-1.27c-0.68-0.57-1.33-1.11-1.99-1.67c0.49-0.44,0.86-0.78,1.39-1.26c0.46,0.6,0.99,1.29,1.55,2.03
		c0.52-0.54,0.83-0.87,1.25-1.31c-0.67-0.54-1.32-1.06-2-1.6c0.56-0.52,0.94-0.87,1.43-1.33c0.47,0.57,1,1.22,1.56,1.91
		c0.48-0.51,0.79-0.84,1.24-1.32c-0.61-0.5-1.26-1.03-1.88-1.54c1.06-1.04,1.98-1.94,2.99-2.93c0.34,0.42,0.76,0.94,1.13,1.39
		c1.49-1.49,2.83-2.82,4.23-4.23c-0.24-0.25-0.58-0.61-0.96-1.01c0.51-0.46,1.01-0.9,1.43-1.28c1.15,1.14,2.36,2.35,3.63,3.62
		c-0.39,0.32-0.9,0.75-1.53,1.26c-0.15-0.25-0.42-0.67-0.62-1.01c-1.55,1.55-2.9,2.89-4.35,4.34c0.4,0.35,0.9,0.78,1.36,1.18
		c-3.57,3.56-7.03,7.02-10.54,10.53c-0.17-0.14-0.41-0.34-0.74-0.63c-0.43,0.52-0.85,1.03-1.3,1.58c-0.46-0.42-0.77-0.7-1.02-0.93
		c-1.04,1.03-2.06,2.03-3.12,3.08c8.82,0,17.62,0,26.47,0c0,0.51,0,0.97,0,1.48c-9.31,0-18.63,0-28.07,0
		c0.47-0.5,0.86-0.92,1.35-1.44c-0.71,0-1.3,0-1.99,0c1.48-1.43,2.87-2.78,4.3-4.17c-0.42-0.45-0.7-0.75-1.17-1.25
		c0.58-0.41,1.14-0.82,1.7-1.22C-91.39,178.26-91.46,178.17-91.54,178.09z"/>
	<path class="st0" d="M-112.4,186.46c0-0.54,0-0.98,0-1.46c5.34,0,10.64,0,16.06,0c-0.74,0.84-1.31,1.53-2.58,1.5
		c-4.2-0.1-8.4-0.04-12.59-0.04C-111.79,186.46-112.06,186.46-112.4,186.46z"/>
	<path class="st0" d="M-107.9,192.48c0.8,0.02,1.47,0.69,1.47,1.49c0,0.83-0.7,1.52-1.53,1.51c-0.8-0.02-1.46-0.69-1.47-1.49
		C-109.43,193.14-108.74,192.46-107.9,192.48z"/>
	<path class="st0" d="M-94.41,194.01c-0.02,0.8-0.69,1.46-1.49,1.47c-0.83,0-1.52-0.7-1.5-1.53c0.02-0.84,0.73-1.51,1.57-1.47
		C-95.05,192.51-94.4,193.21-94.41,194.01z"/>
	<path class="st0" d="M-82.4,193.96c0.01,0.8-0.64,1.49-1.45,1.52c-0.83,0.03-1.54-0.66-1.55-1.48c-0.01-0.84,0.68-1.53,1.52-1.51
		C-83.07,192.49-82.41,193.16-82.4,193.96z"/>
	<path class="st0" d="M-71.9,192.48c0.8-0.01,1.49,0.64,1.52,1.44c0.04,0.83-0.65,1.55-1.48,1.56c-0.8,0.01-1.49-0.64-1.52-1.44
		C-73.41,193.2-72.74,192.49-71.9,192.48z"/>
	<path class="st0" d="M-89.05,200.19c-0.3,0.18-0.64,0.54-0.89,0.49c-0.27-0.05-0.62-0.48-0.65-0.77c-0.02-0.2,0.45-0.62,0.7-0.62
		c0.28,0,0.57,0.36,0.85,0.56C-89.04,199.96-89.05,200.07-89.05,200.19z"/>
	<path class="st0" d="M-77.02,200.13c-0.29,0.2-0.59,0.58-0.85,0.55c-0.28-0.03-0.65-0.43-0.7-0.72c-0.03-0.2,0.4-0.65,0.65-0.67
		c0.28-0.02,0.59,0.32,0.89,0.5C-77.03,199.9-77.03,200.01-77.02,200.13z"/>
	<path class="st0" d="M-102.16,200.63c-0.12-0.17-0.43-0.42-0.47-0.71c-0.07-0.46,0.28-0.81,0.73-0.72c0.28,0.06,0.64,0.41,0.7,0.69
		C-101.12,200.33-101.45,200.61-102.16,200.63z"/>
</g>
<g>
	<path class="st0" d="M-92.2,225.25c7.36,0.11,13.57,5.53,14.61,12.74c0.31,2.14,0.14,4.21-0.43,6.26c-0.1,0.34-0.44,0.74-0.76,0.87
		c-3.87,1.61-6.5,4.37-7.99,8.27c-0.12,0.32-0.51,0.66-0.85,0.78c-7.7,2.71-16.7-2.07-18.8-9.98c-2.23-8.36,2.53-16.42,10.94-18.47
		C-94.43,225.46-93.3,225.4-92.2,225.25z M-87.48,230.46c-1.94-0.01-3.47,1.5-3.46,3.4c0.01,1.85,1.54,3.39,3.39,3.42
		c1.89,0.03,3.44-1.53,3.44-3.44C-84.12,231.94-85.59,230.47-87.48,230.46z M-95.19,242.16c-0.01-1.84-1.44-3.28-3.26-3.3
		c-1.84-0.02-3.34,1.48-3.34,3.34c0,1.85,1.49,3.34,3.33,3.33C-96.61,245.52-95.18,244.04-95.19,242.16z M-84.56,240.07
		c-1.73,0-3.04,1.29-3.05,2.99c-0.01,1.73,1.36,3.09,3.09,3.07c1.68-0.02,3.04-1.4,3.03-3.06
		C-81.51,241.39-82.86,240.08-84.56,240.07z M-95.04,233.07c0.01-1.47-1.29-2.76-2.77-2.77c-1.49-0.01-2.79,1.23-2.83,2.71
		c-0.04,1.47,1.33,2.85,2.82,2.84C-96.36,235.84-95.04,234.52-95.04,233.07z M-92.56,251.7c1.52-0.01,2.77-1.24,2.77-2.74
		c0-1.5-1.25-2.74-2.77-2.75c-1.57-0.01-2.84,1.26-2.81,2.79C-95.34,250.52-94.11,251.7-92.56,251.7z"/>
	<path class="st0" d="M-73.83,270.57c-6.93-0.02-12.59-5.68-12.6-12.61c-0.01-6.99,5.72-12.67,12.76-12.64
		c6.96,0.03,12.56,5.73,12.55,12.75C-61.14,264.96-66.86,270.59-73.83,270.57z M-72.76,260.95c0.79-1.07,1.57-2,2.2-3.01
		c0.89-1.43,1.43-2.97,1.09-4.72c-0.42-2.15-2.39-3.55-4.78-3.35c-1.94,0.16-3.38,1.86-3.39,4.01c-0.01,1.72,0.64,3.23,1.54,4.65
		c0.5,0.78,1.07,1.51,1.63,2.28c-0.36,0.31-0.65,0.61-0.99,0.86c-1.1,0.8-2.22,1.55-3.3,2.38c-0.21,0.16-0.24,0.57-0.35,0.87
		c0.32,0.02,0.64,0.07,0.95,0.04c0.16-0.02,0.31-0.17,0.46-0.28c1.36-0.99,2.73-1.97,4.13-3c0.16,0.14,0.35,0.33,0.55,0.49
		c1.19,0.93,2.36,1.87,3.58,2.75c0.2,0.15,0.62,0,0.94-0.01c-0.11-0.3-0.18-0.62-0.34-0.89c-0.1-0.16-0.34-0.24-0.51-0.37
		C-70.47,262.76-71.63,261.85-72.76,260.95z"/>
	<path class="st0" d="M-91.65,258.25c0.54,0,0.93-0.08,1.25,0.03c0.25,0.08,0.43,0.38,0.64,0.58c-0.19,0.19-0.37,0.55-0.57,0.55
		c-1.26,0.05-2.53,0.05-3.8,0c-0.19-0.01-0.51-0.37-0.51-0.57c0-0.2,0.3-0.5,0.52-0.56c0.37-0.09,0.77-0.03,1.28-0.03
		c0-0.73,0-1.41,0-2.13c0.43,0,0.75,0,1.19,0C-91.65,256.79-91.65,257.47-91.65,258.25z"/>
	<path class="st0" d="M-103.87,251.02c0.28,0.28,0.49,0.49,0.86,0.87c-0.61,0.43-1.17,0.83-1.81,1.28c0.48,0.5,0.82,0.76,1.02,1.11
		c0.13,0.23,0.06,0.57,0.08,0.86c-0.27-0.01-0.64,0.09-0.79-0.05c-0.93-0.86-1.83-1.75-2.68-2.69c-0.14-0.15,0.01-0.57,0.02-0.86
		c0.26,0.04,0.6,0,0.78,0.14c0.3,0.24,0.49,0.6,0.78,0.98C-104.92,252.02-104.42,251.54-103.87,251.02z"/>
	<path class="st0" d="M-104.77,227.06c0.59,0.44,1.15,0.85,1.78,1.32c-0.39,0.36-0.63,0.57-1.01,0.93
		c-0.43-0.57-0.84-1.13-1.29-1.73c-0.48,0.45-0.75,0.79-1.1,1.01c-0.2,0.13-0.52,0.08-0.78,0.11c0-0.29-0.12-0.7,0.02-0.86
		c0.85-0.94,1.76-1.83,2.69-2.69c0.14-0.13,0.57-0.07,0.77,0.05c0.1,0.06,0.1,0.52-0.02,0.69
		C-103.95,226.25-104.3,226.55-104.77,227.06z"/>
	<path class="st0" d="M-78.92,227.52c-0.61,0.7-1.04,1.2-1.55,1.78c-0.29-0.36-0.5-0.62-0.8-0.99c0.48-0.37,1.02-0.79,1.61-1.25
		c-0.46-0.48-0.8-0.75-1.01-1.1c-0.13-0.22-0.05-0.57-0.06-0.86c0.27,0.02,0.64-0.08,0.79,0.06c0.92,0.86,1.82,1.75,2.67,2.68
		c0.14,0.15,0.03,0.52,0.04,0.79c-0.29-0.02-0.65,0.06-0.84-0.08C-78.37,228.34-78.57,227.97-78.92,227.52z"/>
	<path class="st0" d="M-91.64,221.97c0,0.79,0,1.44,0,2.13c-0.4,0-0.73,0-1.16,0c0-0.68,0-1.36,0-2.13c-0.49,0-0.89,0.07-1.25-0.02
		c-0.24-0.07-0.42-0.37-0.62-0.57c0.2-0.18,0.39-0.5,0.59-0.5c1.23-0.05,2.47-0.05,3.7,0c0.22,0.01,0.42,0.36,0.63,0.55
		c-0.22,0.18-0.42,0.45-0.67,0.52C-90.77,222.03-91.14,221.97-91.64,221.97z"/>
	<path class="st0" d="M-110.4,239.54c0.78,0,1.41,0,2.13,0c0.02,0.36,0.04,0.67,0.06,1.13c-0.53,0-1,0.03-1.47-0.01
		c-0.55-0.04-0.78,0.17-0.73,0.73c0.02,0.21,0.06,0.46-0.02,0.63c-0.12,0.23-0.35,0.4-0.53,0.59c-0.19-0.19-0.54-0.37-0.55-0.57
		c-0.05-1.27-0.06-2.54,0-3.8c0.01-0.22,0.39-0.41,0.61-0.62c0.16,0.21,0.42,0.41,0.47,0.65
		C-110.34,238.63-110.4,239.03-110.4,239.54z"/>
	<path class="st0" d="M-76.2,240.61c0-0.37,0-0.67,0-1.04c0.7,0,1.35,0,2.15,0c0-0.49-0.06-0.91,0.02-1.31
		c0.05-0.24,0.31-0.43,0.48-0.64c0.21,0.21,0.6,0.41,0.61,0.62c0.06,1.27,0.05,2.54,0,3.8c-0.01,0.2-0.34,0.46-0.58,0.53
		c-0.12,0.03-0.43-0.27-0.5-0.48c-0.16-0.45-0.07-1.11-0.36-1.35c-0.3-0.24-0.92-0.07-1.41-0.08
		C-75.9,240.66-76.02,240.63-76.2,240.61z"/>
	<path class="st0" d="M-89.79,233.81c0.01-1.28,1.05-2.27,2.34-2.24c1.24,0.03,2.21,1.03,2.21,2.28c0,1.29-1.01,2.28-2.3,2.28
		C-88.83,236.12-89.8,235.12-89.79,233.81z"/>
	<path class="st0" d="M-98.49,240.03c1.25-0.01,2.18,0.9,2.2,2.13c0.02,1.23-1,2.26-2.21,2.24c-1.18-0.02-2.16-1.02-2.16-2.21
		C-100.65,240.96-99.73,240.04-98.49,240.03z"/>
	<path class="st0" d="M-84.55,244.99c-1.11,0.01-1.96-0.84-1.95-1.92c0.01-1.04,0.86-1.88,1.91-1.89c1.1-0.01,1.95,0.83,1.94,1.94
		C-82.67,244.19-83.46,244.98-84.55,244.99z"/>
	<path class="st0" d="M-97.88,234.67c-0.9-0.02-1.59-0.71-1.58-1.62c0-0.89,0.81-1.69,1.68-1.66c0.83,0.03,1.61,0.84,1.61,1.66
		C-96.18,233.96-96.95,234.69-97.88,234.67z"/>
	<path class="st0" d="M-90.98,249c-0.02,0.89-0.73,1.61-1.6,1.61c-0.88,0-1.68-0.82-1.66-1.69c0.03-0.92,0.8-1.61,1.74-1.58
		C-91.6,247.38-90.96,248.06-90.98,249z"/>
	<path class="st0" d="M-73.57,259.97c-1.48-1.62-2.59-3.35-2.92-5.48c-0.21-1.3,0.36-2.6,1.31-3.15c1.02-0.59,2.46-0.46,3.49,0.31
		c1.02,0.77,1.44,2.16,1.06,3.59C-71.1,257.09-72.2,258.54-73.57,259.97z"/>
</g>
</svg>
